SplineFontDB: 3.2
FontName: Light
FullName: Fontoshan Sinhala Handwrite
FamilyName: Fontoshan Sinhala Handwrite
Weight: Light
Copyright: Copyright (c) 2023, Sky Production
UComments: "2023-12-25: Created with FontForge (http://fontforge.org)"
Version: 1.0
ItalicAngle: 0
UnderlinePosition: -102.4
UnderlineWidth: 51.2
Ascent: 819
Descent: 205
InvalidEm: 0
LayerCount: 2
Layer: 0 0 "Back" 1
Layer: 1 0 "Fore" 0
XUID: [1021 562 969387525 31403]
FSType: 0
OS2Version: 0
OS2_WeightWidthSlopeOnly: 0
OS2_UseTypoMetrics: 1
CreationTime: 1703506701
ModificationTime: 1703677468
PfmFamily: 65
TTFWeight: 300
TTFWidth: 5
LineGap: 92
VLineGap: 0
OS2TypoAscent: 0
OS2TypoAOffset: 1
OS2TypoDescent: 0
OS2TypoDOffset: 1
OS2TypoLinegap: 92
OS2WinAscent: 0
OS2WinAOffset: 1
OS2WinDescent: 0
OS2WinDOffset: 1
HheadAscent: 0
HheadAOffset: 1
HheadDescent: 0
HheadDOffset: 1
OS2Vendor: 'PfEd'
MarkAttachClasses: 1
DEI: 91125
Encoding: ISO8859-1
UnicodeInterp: none
NameList: AGL For New Fonts
DisplaySize: -48
AntiAlias: 1
FitToEm: 0
WidthSeparation: 50
WinInfo: 0 38 12
BeginPrivate: 0
EndPrivate
BeginChars: 274 189

StartChar: d
Encoding: 100 100 0
Width: 345
Flags: HW
LayerCount: 2
Fore
SplineSet
288.579101562 415 m 1
 287.579101562 415 l 1
 305.579101562 345 312.579101562 265 298.579101562 194 c 0
 276.579101562 79 168.579101562 -33 41.5791015625 11 c 0
 19.5791015625 19 28.5791015625 53 50.5791015625 45 c 0
 113.579101562 23 181.579101562 51 220.579101562 103 c 0
 262.579101562 158 272.579101562 228 268.579101562 295 c 0
 265.579101562 357 261.579101562 446 201.579101562 481 c 0
 144.579101562 514 76.5791015625 487 51.5791015625 429 c 0
 42.5791015625 408 10.5791015625 426 19.5791015625 447 c 0
 44.5791015625 506 108.579101562 540 172.579101562 529 c 0
 233.579101562 518 273.579101562 472 288.579101562 415 c 1
EndSplineSet
EndChar

StartChar: e
Encoding: 101 101 1
Width: 369
Flags: HW
LayerCount: 2
Fore
SplineSet
318.671875 87 m 0
 337.671875 99 355.671875 68 336.671875 56 c 0
 278.671875 18 207.671875 -12 137.671875 10 c 0
 79.671875 29 42.671875 81 36.671875 142 c 0
 28.671875 215 63.671875 284 105.671875 340 c 0
 142.671875 389 183.671875 436 223.671875 483 c 1
 164.671875 469 104.671875 454 45.671875 440 c 0
 23.671875 435 14.671875 469 36.671875 474 c 0
 113.671875 493 191.671875 511 268.671875 530 c 0
 286.671875 534 296.671875 514 285.671875 501 c 0
 242.671875 451 199.671875 400 157.671875 349 c 0
 118.671875 301 79.671875 247 71.671875 183 c 0
 64.671875 125 89.671875 63 147.671875 44 c 0
 208.671875 24 268.671875 54 318.671875 87 c 0
EndSplineSet
Validated: 33
EndChar

StartChar: f
Encoding: 102 102 2
Width: 521
Flags: HW
LayerCount: 2
Fore
SplineSet
469.870117188 452 m 1
 470.870117188 451 l 1
 349.870117188 516 177.870117188 521 93.8701171875 390 c 0
 22.8701171875 279 70.8701171875 145 175.870117188 81 c 0
 228.870117188 49 299.870117188 25 360.870117188 37 c 0
 430.870117188 51 459.870117188 116 443.870117188 185 c 0
 429.870117188 244 396.870117188 306 345.870117188 338 c 0
 311.870117188 360 268.870117188 368 231.870117188 355 c 1
 263.870117188 359 299.870117188 345 316.870117188 315 c 0
 336.870117188 280 324.870117188 238 290.870117188 218 c 0
 255.870117188 198 199.870117188 203 165.870117188 224 c 0
 153.870117188 232 145.870117188 242 140.870117188 254 c 0
 136.870117188 258 135.870117188 263 136.870117188 269 c 0
 133.870117188 284 134.870117188 300 140.870117188 315 c 0
 153.870117188 350 184.870117188 375 217.870117188 388 c 0
 294.870117188 418 376.870117188 375 423.870117188 311 c 0
 469.870117188 249 504.870117188 153 468.870117188 77 c 0
 428.870117188 -9 325.870117188 -10 248.870117188 11 c 0
 171.870117188 32 98.8701171875 79 56.8701171875 152 c 0
 15.8701171875 224 12.8701171875 310 49.8701171875 385 c 0
 86.8701171875 460 157.870117188 510 235.870117188 527 c 0
 322.870117188 546 409.870117188 525 487.870117188 483 c 0
 507.870117188 472 489.870117188 441 469.870117188 452 c 1
291.870117188 272 m 0
 299.870117188 310 251.870117188 324 224.870117188 317 c 0
 199.870117188 310 181.870117188 291 172.870117188 267 c 0
 178.870117188 255 191.870117188 250 203.870117188 247 c 0
 229.870117188 241 283.870117188 234 291.870117188 272 c 0
EndSplineSet
Validated: 33
EndChar

StartChar: g
Encoding: 103 103 3
Width: 640
Flags: HW
LayerCount: 2
Fore
SplineSet
478.276367188 684 m 1
 612.276367188 604 654.276367188 400 618.276367188 256 c 0
 584.276367188 120 467.276367188 5 325.276367188 1 c 0
 175.276367188 -3 43.2763671875 115 36.2763671875 268 c 0
 29.2763671875 416 161.276367188 555 310.276367188 503 c 0
 331.276367188 496 322.276367188 461 300.276367188 469 c 0
 225.276367188 495 145.276367188 462 103.276367188 394 c 0
 66.2763671875 333 62.2763671875 258 88.2763671875 192 c 0
 139.276367188 62 294.276367188 2 419.276367188 59 c 0
 533.276367188 111 595.276367188 234 595.276367188 358 c 0
 595.276367188 427 578.276367188 498 546.276367188 559 c 0
 513.276367188 622 460.276367188 663 392.276367188 681 c 0
 276.276367188 713 140.276367188 694 53.2763671875 604 c 0
 37.2763671875 588 13.2763671875 614 29.2763671875 630 c 0
 140.276367188 745 342.276367188 764 478.276367188 684 c 1
EndSplineSet
EndChar

StartChar: h
Encoding: 104 104 4
Width: 700
Flags: HW
LayerCount: 2
Fore
SplineSet
620.290039062 393.893554688 m 1
 619.997070312 393.6015625 l 2
 690.799804688 316.655273438 683.778320312 153.107421875 622.630859375 73.5283203125 c 0
 577.8671875 15.5986328125 501.798828125 -15.7060546875 430.99609375 12.087890625 c 0
 402.03125 23.498046875 381.551757812 41.9306640625 368.09375 64.166015625 c 1
 346.150390625 39.0048828125 315.430664062 19.6953125 282.662109375 10.625 c 0
 192.842773438 -14.5361328125 86.0546875 0.677734375 43.046875 91.9599609375 c 0
 4.4267578125 174.46484375 21.103515625 298.515625 75.521484375 371.365234375 c 0
 128.184570312 442.16796875 228.537109375 459.13671875 302.557617188 411.155273438 c 0
 321.8671875 398.8671875 304.020507812 368.147460938 284.709960938 380.727539062 c 0
 222.100585938 421.395507812 139.594726562 405.303710938 98.634765625 342.401367188 c 0
 61.478515625 285.349609375 47.7275390625 196.115234375 66.7451171875 130.872070312 c 0
 91.0283203125 48.3671875 167.096679688 27.0087890625 245.798828125 39.0048828125 c 0
 284.709960938 44.8564453125 331.814453125 67.96875 354.049804688 101.907226562 c 0
 346.735351562 131.165039062 347.028320312 163.0546875 354.342773438 194.360351562 c 0
 357.853515625 208.98828125 379.50390625 211.622070312 386.817382812 198.456054688 c 0
 405.834960938 163.932617188 404.665039062 129.409179688 391.206054688 99.2744140625 c 0
 399.69140625 76.4541015625 416.075195312 57.1435546875 443.284179688 45.7333984375 c 0
 491.850585938 25.5458984375 544.221679688 42.515625 580.208007812 78.208984375 c 0
 644.866210938 142.282226562 656.568359375 270.720703125 610.049804688 348.252929688 c 0
 597.176757812 369.610351562 578.745117188 387.165039062 555.338867188 395.94140625 c 0
 529.885742188 405.303710938 504.431640625 398.8671875 478.392578125 395.94140625 c 0
 445.040039062 392.138671875 406.712890625 395.356445312 385.940429688 425.19921875 c 0
 334.447265625 499.219726562 456.450195312 534.03515625 508.235351562 531.40234375 c 0
 577.57421875 527.891601562 642.817382812 469.376953125 621.752929688 396.52734375 c 0
 621.459960938 395.649414062 620.290039062 393.893554688 620.290039062 393.893554688 c 1
498.873046875 434.268554688 m 0
 535.444335938 439.2421875 565.579101562 432.512695312 589.862304688 418.469726562 c 1
 596.006835938 474.643554688 529.0078125 501.267578125 479.85546875 494.831054688 c 0
 460.545898438 492.197265625 405.834960938 483.127929688 410.80859375 453.286132812 c 0
 416.66015625 418.469726562 476.344726562 431.342773438 498.873046875 434.268554688 c 0
EndSplineSet
EndChar

StartChar: i
Encoding: 105 105 5
Width: 666
Flags: HW
LayerCount: 2
Fore
SplineSet
603.094726562 361.41796875 m 1
 643.176757812 301.1484375 653.416992188 211.329101562 639.081054688 142.575195312 c 0
 624.745117188 72.650390625 572.66796875 8.5771484375 498.646484375 1.84765625 c 0
 450.373046875 -2.541015625 408.827148438 21.1572265625 385.71484375 58.8994140625 c 1
 366.697265625 28.4716796875 334.221679688 6.8212890625 297.357421875 2.140625 c 0
 233.577148438 -5.7587890625 173.307617188 33.73828125 141.416992188 87.5712890625 c 0
 97.2392578125 162.469726562 89.9248046875 297.637695312 151.364257812 364.928710938 c 1
 113.330078125 362.295898438 75.5888671875 359.370117188 37.5546875 356.737304688 c 0
 14.1484375 354.981445312 14.1484375 391.845703125 37.5546875 393.6015625 c 0
 85.5361328125 397.112304688 133.517578125 400.623046875 181.5 404.133789062 c 1
 163.65234375 421.102539062 158.971679688 449.189453125 166.286132812 472.595703125 c 0
 188.813476562 543.397460938 291.506835938 542.8125 341.829101562 506.826171875 c 0
 355.872070312 496.87890625 368.16015625 483.127929688 376.64453125 467.622070312 c 1
 393.614257812 510.629882812 450.080078125 534.620117188 494.84375 528.4765625 c 0
 568.864257812 518.236328125 620.356445312 450.067382812 612.45703125 375.75390625 c 0
 611.579101562 368.732421875 607.776367188 364.34375 603.094726562 361.41796875 c 1
437.791992188 482.54296875 m 1
 438.084960938 482.54296875 l 1
 421.993164062 473.180664062 403.268554688 452.993164062 409.120117188 432.220703125 c 0
 416.434570312 406.766601562 449.787109375 420.517578125 467.926757812 423.443359375 c 0
 483.725585938 426.076171875 499.817382812 425.784179688 515.616210938 422.858398438 c 0
 538.729492188 418.469726562 559.208984375 407.64453125 576.470703125 392.430664062 c 1
 575.0078125 438.072265625 547.213867188 478.739257812 500.6953125 490.149414062 c 0
 479.629882812 495.416015625 456.809570312 493.368164062 437.791992188 482.54296875 c 1
314.327148438 480.787109375 m 2
 313.7421875 480.787109375 l 2
 295.309570312 491.3203125 272.196289062 496.000976562 250.545898438 493.368164062 c 1
 276 475.813476562 285.069335938 438.364257812 266.345703125 412.618164062 c 0
 265.759765625 411.740234375 264.8828125 410.86328125 264.004882812 409.985351562 c 1
 276.584960938 410.86328125 289.166015625 411.740234375 301.74609375 412.618164062 c 0
 308.475585938 413.203125 314.912109375 413.49609375 321.641601562 414.081054688 c 0
 328.078125 414.666015625 340.951171875 412.911132812 346.802734375 416.12890625 c 0
 354.116210938 419.932617188 352.654296875 424.321289062 350.8984375 432.512695312 c 0
 349.435546875 439.2421875 346.802734375 445.678710938 343.583984375 451.530273438 c 0
 336.854492188 463.818359375 326.322265625 473.765625 314.327148438 480.787109375 c 2
200.516601562 450.067382812 m 0
 200.516601562 449.482421875 199.931640625 448.897460938 199.638671875 448.311523438 c 0
 199.931640625 445.38671875 200.516601562 442.752929688 201.39453125 439.827148438 c 0
 208.123046875 419.932617188 240.598632812 422.2734375 240.598632812 444.508789062 c 0
 240.598632812 469.376953125 207.538085938 473.180664062 200.516601562 450.067382812 c 0
596.658203125 125.60546875 m 2
 596.658203125 125.8984375 l 2
 613.041992188 171.247070312 610.409179688 221.861328125 600.75390625 268.380859375 c 0
 592.854492188 305.830078125 579.104492188 345.619140625 547.798828125 369.610351562 c 0
 530.830078125 382.776367188 509.471679688 389.797851562 487.822265625 389.212890625 c 0
 470.560546875 388.626953125 453.883789062 382.483398438 436.622070312 381.313476562 c 0
 415.263671875 379.557617188 395.954101562 387.165039062 383.958984375 402.377929688 c 1
 371.377929688 378.387695312 335.977539062 378.97265625 308.768554688 376.924804688 c 0
 290.043945312 375.461914062 271.611328125 374.291015625 252.88671875 372.828125 c 0
 249.9609375 370.48828125 246.743164062 368.732421875 242.354492188 368.732421875 c 0
 125.618164062 364.928710938 128.836914062 196.408203125 165.700195312 120.631835938 c 0
 187.05859375 76.74609375 228.603515625 39.58984375 279.21875 38.4189453125 c 0
 323.689453125 37.2490234375 366.112304688 70.89453125 367.575195312 116.828125 c 0
 368.453125 140.819335938 402.68359375 140.234375 404.146484375 116.828125 c 0
 407.364257812 66.2138671875 452.127929688 31.6904296875 501.572265625 39.296875 c 0
 547.213867188 46.3193359375 581.444335938 83.1826171875 596.658203125 125.60546875 c 2
EndSplineSet
EndChar

StartChar: j
Encoding: 106 106 6
Width: 666
Flags: HW
LayerCount: 2
Fore
SplineSet
556.6953125 661.303710938 m 1
 556.98828125 661.596679688 l 1
 683.670898438 554.807617188 712.635742188 363.173828125 644.173828125 216.302734375 c 0
 577.174804688 72.0654296875 412.458007812 -15.12109375 255.931640625 4.1884765625 c 0
 176.059570312 13.84375 92.091796875 53.3408203125 63.7119140625 134.3828125 c 0
 37.673828125 208.696289062 77.755859375 288.275390625 140.366210938 329.8203125 c 0
 163.771484375 345.327148438 190.395507812 355.56640625 217.604492188 362.00390625 c 1
 203.268554688 366.977539062 190.395507812 376.924804688 181.911132812 391.260742188 c 0
 159.96875 428.416992188 177.23046875 474.935546875 209.413085938 499.8046875 c 0
 267.634765625 544.568359375 376.178710938 534.03515625 404.850585938 458.844726562 c 0
 416.260742188 428.709960938 412.75 390.67578125 389.9296875 366.099609375 c 0
 359.209960938 333.0390625 311.227539062 338.890625 270.560546875 335.96484375 c 0
 215.556640625 331.868164062 159.090820312 312.266601562 123.104492188 268.672851562 c 0
 83.607421875 220.69140625 78.6337890625 155.155273438 119.008789062 106.00390625 c 0
 185.71484375 24.6689453125 317.079101562 24.3759765625 408.946289062 54.5107421875 c 0
 609.943359375 120.631835938 706.4921875 359.370117188 604.676757812 546.908203125 c 0
 487.94140625 762.241210938 200.342773438 721.28125 49.6689453125 567.095703125 c 0
 33.8701171875 551.004882812 9.2939453125 575.581054688 25.0927734375 591.671875 c 0
 157.04296875 726.254882812 399.876953125 793.545898438 556.6953125 661.303710938 c 1
376.471679688 425.784179688 m 1
 376.763671875 425.491210938 l 1
 375.008789062 485.760742188 300.40234375 501.267578125 254.176757812 484.297851562 c 0
 250.958007812 483.127929688 247.740234375 481.665039062 244.521484375 479.91015625 c 1
 256.224609375 479.032226562 267.926757812 474.935546875 278.166992188 465.573242188 c 0
 306.546875 440.412109375 306.546875 395.356445312 276.704101562 371.365234375 c 0
 276.119140625 371.073242188 275.241210938 370.780273438 274.65625 370.1953125 c 1
 317.6640625 371.951171875 378.2265625 368.732421875 376.471679688 425.784179688 c 1
206.194335938 427.247070312 m 1
 206.487304688 426.954101562 l 2
 206.487304688 420.810546875 207.950195312 414.666015625 211.75390625 408.229492188 c 0
 224.626953125 386.872070312 263.831054688 385.409179688 265.001953125 417.884765625 c 0
 265.87890625 446.849609375 229.892578125 453.286132812 214.6796875 433.098632812 c 0
 212.338867188 430.172851562 209.413085938 428.416992188 206.194335938 427.247070312 c 1
EndSplineSet
EndChar

StartChar: k
Encoding: 107 107 7
Width: 670
Flags: HW
LayerCount: 2
Fore
SplineSet
623.766601562 383 m 2
 624.766601562 384 l 2
 664.766601562 310 689.766601562 210 666.766601562 127 c 0
 648.766601562 60 593.766601562 5 523.766601562 -1 c 0
 501.766601562 -3 501.766601562 33 523.766601562 35 c 0
 644.766601562 46 650.766601562 197 625.766601562 287 c 0
 598.766601562 383 531.766601562 484 420.766601562 472 c 0
 397.766601562 469 375.766601562 463 355.766601562 453 c 1
 368.766601562 438 380.766601562 421 391.766601562 404 c 0
 423.766601562 354 453.766601562 296 465.766601562 237 c 0
 487.766601562 126 420.766601562 21 308.766601562 4 c 0
 196.766601562 -13 96.7666015625 63 51.7666015625 163 c 0
 44.7666015625 178 59.7666015625 198 75.7666015625 187 c 0
 128.766601562 151 157.766601562 248 171.766601562 281 c 0
 190.766601562 326 213.766601562 369 244.766601562 407 c 0
 260.766601562 426 278.766601562 443 298.766601562 458 c 1
 292.766601562 463 286.766601562 468 279.766601562 472 c 0
 243.766601562 493 193.766601562 505 155.766601562 483 c 1
 159.766601562 483 163.766601562 482 167.766601562 481 c 0
 189.766601562 474 203.766601562 453 203.766601562 430 c 0
 202.766601562 377 136.766601562 361 104.766601562 398 c 0
 95.7666015625 409 90.7666015625 420 89.7666015625 432 c 0
 83.7666015625 440 82.7666015625 452 92.7666015625 460 c 0
 98.7666015625 479 111.766601562 497 128.766601562 508 c 0
 169.766601562 537 225.766601562 534 270.766601562 516 c 0
 292.766601562 507 310.766601562 493 328.766601562 478 c 0
 363.766601562 498 403.766601562 509 443.766601562 508 c 0
 522.766601562 505 586.766601562 451 623.766601562 383 c 2
154.766601562 413 m 0
 183.766601562 424 160.766601562 450 141.766601562 447 c 0
 135.766601562 446 129.766601562 444 123.766601562 440 c 0
 124.766601562 424 135.766601562 406 154.766601562 413 c 0
368.766601562 374 m 2
 355.766601562 396 340.766601562 416 323.766601562 434 c 0
 273.766601562 398 236.766601562 341 210.766601562 285 c 0
 192.766601562 246 181.766601562 198 149.766601562 168 c 0
 135.766601562 155 117.766601562 146 99.7666015625 145 c 1
 141.766601562 78 210.766601562 30 292.766601562 38 c 0
 392.766601562 47 451.766601562 141 428.766601562 238 c 0
 416.766601562 286 393.766601562 332 368.766601562 374 c 2
EndSplineSet
EndChar

StartChar: l
Encoding: 108 108 8
Width: 777
Flags: HW
LayerCount: 2
Fore
SplineSet
686.580078125 447 m 2
 777.580078125 317 822.580078125 87 646.580078125 1 c 0
 626.580078125 -9 609.580078125 20 629.580078125 30 c 0
 726.580078125 78 749.580078125 192 723.580078125 288 c 0
 697.580078125 385 635.580078125 506 517.580078125 494 c 0
 467.580078125 489 424.580078125 465 386.580078125 434 c 1
 404.580078125 415 420.580078125 396 435.580078125 378 c 0
 502.580078125 296 575.580078125 169 495.580078125 71 c 0
 465.580078125 34 414.580078125 12 367.580078125 26 c 0
 342.580078125 33 321.580078125 50 308.580078125 71 c 1
 289.580078125 33 259.580078125 2 208.580078125 8 c 0
 151.580078125 14 120.580078125 59 106.580078125 109 c 1
 54.580078125 46 l 2
 42.580078125 31 15.580078125 50 26.580078125 66 c 0
 99.580078125 166 176.580078125 262 259.580078125 354 c 0
 284.580078125 381 308.580078125 410 336.580078125 436 c 1
 298.580078125 471 254.580078125 499 203.580078125 491 c 0
 165.580078125 485 128.580078125 461 110.580078125 426 c 0
 106.580078125 418 103.580078125 409 102.580078125 399 c 1
 122.580078125 427 166.580078125 434 188.580078125 401 c 0
 215.580078125 362 182.580078125 313 137.580078125 314 c 0
 90.580078125 315 63.580078125 362 68.580078125 404 c 0
 74.580078125 453 114.580078125 494 158.580078125 513 c 0
 237.580078125 547 306.580078125 510 362.580078125 458 c 0
 394.580078125 485 429.580078125 508 470.580078125 520 c 0
 555.580078125 545 636.580078125 519 686.580078125 447 c 2
128.580078125 373 m 0
 126.580078125 364 118.580078125 361 111.580078125 361 c 1
 114.580078125 357 118.580078125 354 122.580078125 352 c 0
 135.580078125 345 151.580078125 346 157.580078125 360 c 0
 165.580078125 368 164.580078125 374 152.580078125 379 c 0
 143.580078125 393 136.580078125 391 128.580078125 373 c 0
396.580078125 372 m 2
 385.580078125 385 373.580078125 398 360.580078125 412 c 1
 327.580078125 381 298.580078125 347 270.580078125 316 c 0
 222.580078125 262 176.580078125 206 132.580078125 150 c 0
 132.580078125 149 133.580078125 149 133.580078125 148 c 0
 137.580078125 101 161.580078125 44 217.580078125 42 c 0
 266.580078125 41 281.580078125 92 292.580078125 130 c 0
 297.580078125 149 327.580078125 145 327.580078125 126 c 0
 327.580078125 80 372.580078125 48 416.580078125 59 c 0
 461.580078125 70 489.580078125 113 494.580078125 157 c 0
 503.580078125 239 447.580078125 313 396.580078125 372 c 2
EndSplineSet
EndChar

StartChar: m
Encoding: 109 109 9
Width: 560
Flags: HW
LayerCount: 2
Fore
SplineSet
497.731445312 344.44921875 m 2
 497.439453125 344.15625 l 1
 599.25390625 263.69921875 577.603515625 104.248046875 462.038085938 44.8564453125 c 0
 396.794921875 11.2099609375 311.94921875 -5.7587890625 238.513671875 -0.4921875 c 0
 166.248046875 4.7734375 100.126953125 38.7119140625 57.7041015625 97.8115234375 c 0
 18.7919921875 152.522460938 6.50390625 228.590820312 37.5166015625 289.73828125 c 0
 58.58203125 331.283203125 93.9833984375 356.737304688 135.235351562 369.025390625 c 1
 132.310546875 369.317382812 129.676757812 369.903320312 126.750976562 370.780273438 c 0
 89.009765625 383.653320312 72.91796875 426.076171875 83.4501953125 462.35546875 c 0
 96.03125 505.071289062 138.161132812 531.109375 181.754882812 529.646484375 c 0
 225.640625 528.18359375 280.3515625 490.149414062 299.661132812 444.80078125 c 1
 304.341796875 458.259765625 310.193359375 470.83984375 316.044921875 481.080078125 c 0
 335.354492188 515.018554688 371.048828125 534.328125 410.252929688 530.232421875 c 0
 498.317382812 521.162109375 525.526367188 422.565429688 500.950195312 350.0078125 c 0
 500.072265625 347.666992188 498.90234375 345.912109375 497.731445312 344.44921875 c 2
339.158203125 443.045898438 m 0
 334.184570312 429.587890625 320.725585938 398.282226562 331.258789062 385.994140625 c 0
 341.206054688 374.291015625 371.048828125 384.239257812 385.091796875 384.239257812 c 0
 413.178710938 384.53125 441.557617188 377.216796875 467.01171875 364.34375 c 1
 479.884765625 405.303710938 477.251953125 454.163085938 439.509765625 481.665039062 c 0
 422.833007812 493.66015625 401.475585938 498.048828125 381.581054688 491.905273438 c 0
 358.467773438 484.590820312 346.764648438 464.696289062 339.158203125 443.045898438 c 0
127.62890625 466.159179688 m 0
 113 444.508789062 109.197265625 415.543945312 139.33203125 405.596679688 c 0
 159.811523438 398.8671875 168.588867188 422.2734375 162.4453125 438.364257812 c 0
 156.885742188 452.993164062 141.96484375 461.185546875 127.62890625 466.159179688 c 0
159.51953125 491.02734375 m 2
 159.2265625 491.3203125 l 1
 184.680664062 476.69140625 203.405273438 452.700195312 200.186523438 420.810546875 c 0
 198.431640625 402.0859375 188.483398438 386.287109375 174.440429688 377.216796875 c 1
 184.387695312 378.094726562 194.334960938 378.387695312 204.282226562 378.094726562 c 0
 222.129882812 377.509765625 246.120117188 374.876953125 260.1640625 388.334960938 c 0
 275.377929688 402.670898438 268.063476562 426.369140625 259.579101562 442.16796875 c 0
 240.854492188 476.3984375 199.30859375 502.145507812 159.51953125 491.02734375 c 2
454.431640625 82.3046875 m 1
 454.138671875 81.7197265625 l 1
 529.915039062 125.8984375 555.368164062 232.686523438 493.342773438 299.685546875 c 0
 464.963867188 330.11328125 424.00390625 348.544921875 381.873046875 347.375 c 0
 350.275390625 346.790039062 309.901367188 336.256835938 295.272460938 373.706054688 c 1
 294.39453125 372.828125 294.102539062 371.658203125 293.224609375 370.48828125 c 0
 268.35546875 335.96484375 223.884765625 341.81640625 186.728515625 341.81640625 c 0
 141.379882812 342.108398438 98.0791015625 319.581054688 74.380859375 280.668945312 c 0
 22.888671875 195.823242188 86.3759765625 90.2041015625 168.00390625 53.3408203125 c 0
 215.400390625 31.982421875 269.818359375 32.275390625 320.140625 40.4677734375 c 0
 365.782226562 47.78125 414.348632812 58.8994140625 454.431640625 82.3046875 c 1
EndSplineSet
EndChar

StartChar: n
Encoding: 110 110 10
Width: 755
Flags: HW
LayerCount: 2
Fore
SplineSet
564.5 631 m 2
 565.5 631 l 2
 707.5 512 764.5 295 675.5 124 c 0
 630.5 37 551.5 -3 457.5 -1 c 0
 396.5 0 278.5 6 273.5 92 c 0
 267.5 194 447.5 243 399.5 351 c 0
 374.5 407 299.5 401 251.5 389 c 0
 203.5 377 157.5 353 122.5 316 c 0
 100.5 292 84.5 264 76.5 233 c 1
 111.5 245 150.5 246 185.5 229 c 0
 224.5 210 255.5 170 259.5 124 c 0
 263.5 78 236.5 31 194.5 14 c 0
 150.5 -4 104.5 17 74.5 52 c 0
 43.5 88 30.5 134 30.5 181 c 0
 22.5 189 20.5 204 32.5 212 c 0
 36.5 245 47.5 277 64.5 305 c 0
 113.5 384 203.5 430 292.5 437 c 0
 382.5 444 470.5 380 436.5 278 c 0
 419.5 227 379.5 194 344.5 157 c 0
 321.5 133 293.5 91 330.5 64 c 0
 347.5 52 369.5 49 389.5 46 c 0
 445.5 38 508.5 33 560.5 59 c 0
 611.5 85 644.5 140 661.5 195 c 0
 695.5 302 676.5 423 615.5 516 c 0
 500.5 692 192.5 790 78.5 560 c 0
 67.5 537 34.5 557 45.5 580 c 0
 149.5 789 410.5 761 564.5 631 c 2
203.5 164 m 1
 169.5 209 114.5 208 69.5 187 c 0
 69.5 184 68.5 181 68.5 178 c 0
 69.5 129 93.5 62 145.5 49 c 0
 210.5 32 237.5 119 203.5 164 c 1
EndSplineSet
EndChar

StartChar: o
Encoding: 111 111 11
Width: 425
Flags: HW
LayerCount: 2
Fore
SplineSet
602.21484375 -16 m 2
 601.21484375 -17 l 2
 611.21484375 -134 504.21484375 -231 392.21484375 -199 c 0
 342.21484375 -184 294.21484375 -145 279.21484375 -92 c 0
 270.21484375 -59 279.21484375 -35 296.21484375 -16 c 1
 254.21484375 -16 211.21484375 -13 169.21484375 -6 c 0
 122.21484375 2 68.21484375 13 39.21484375 55 c 0
 -20.78515625 142 65.21484375 250 135.21484375 297 c 0
 176.21484375 325 222.21484375 341 271.21484375 346 c 0
 284.21484375 348 298.21484375 346 310.21484375 348 c 0
 332.21484375 352 339.21484375 366 338.21484375 388 c 0
 337.21484375 418 321.21484375 448 299.21484375 468 c 0
 250.21484375 512 160.21484375 505 123.21484375 447 c 0
 116.21484375 436 112.21484375 424 111.21484375 411 c 1
 128.21484375 447 174.21484375 464 206.21484375 429 c 0
 240.21484375 392 215.21484375 331 170.21484375 321 c 0
 124.21484375 311 83.21484375 347 77.21484375 392 c 0
 69.21484375 448 107.21484375 496 154.21484375 518 c 0
 252.21484375 563 386.21484375 490 372.21484375 370 c 0
 370.21484375 350 362.21484375 331 344.21484375 320 c 0
 323.21484375 307 294.21484375 314 271.21484375 311 c 0
 205.21484375 303 142.21484375 269 98.21484375 218 c 0
 75.21484375 191 53.21484375 155 54.21484375 118 c 0
 55.21484375 71 92.21484375 50 132.21484375 39 c 0
 206.21484375 20 283.21484375 17 359.21484375 24 c 0
 380.21484375 26 381.21484375 -4 364.21484375 -11 c 0
 344.21484375 -19 317.21484375 -30 311.21484375 -55 c 0
 305.21484375 -78 320.21484375 -105 334.21484375 -122 c 0
 358.21484375 -150 395.21484375 -167 431.21484375 -169 c 0
 513.21484375 -173 573.21484375 -96 567.21484375 -16 c 0
 565.21484375 7 600.21484375 7 602.21484375 -16 c 2
140.21484375 382 m 2
 140.21484375 373 134.21484375 368 127.21484375 366 c 1
 131.21484375 362 137.21484375 358 144.21484375 356 c 0
 164.21484375 350 187.21484375 362 187.21484375 386 c 0
 187.21484375 421 140.21484375 416 140.21484375 382 c 2
EndSplineSet
EndChar

StartChar: p
Encoding: 112 112 12
Width: 759
Flags: HW
LayerCount: 2
Fore
SplineSet
569.130859375 676 m 1
 568.130859375 676 l 1
 670.130859375 603 733.130859375 479 735.130859375 353 c 0
 737.130859375 232 680.130859375 85 570.130859375 24 c 0
 509.130859375 -10 441.130859375 0 375.130859375 9 c 0
 316.130859375 17 255.130859375 29 209.130859375 70 c 0
 168.130859375 106 143.130859375 162 160.130859375 216 c 0
 169.130859375 243 185.130859375 264 205.130859375 282 c 1
 152.130859375 271 101.130859375 256 52.130859375 230 c 0
 31.130859375 219 12.130859375 251 33.130859375 262 c 0
 96.130859375 295 164.130859375 312 233.130859375 325 c 0
 247.130859375 328 260.130859375 330 274.130859375 333 c 1
 260.130859375 337 247.130859375 342 236.130859375 351 c 0
 203.130859375 381 219.130859375 428 243.130859375 458 c 0
 296.130859375 525 398.130859375 528 454.130859375 463 c 0
 478.130859375 435 498.130859375 387 470.130859375 355 c 0
 455.130859375 338 431.130859375 332 411.130859375 326 c 0
 388.130859375 319 365.130859375 313 342.130859375 308 c 0
 329.130859375 305 316.130859375 303 303.130859375 300 c 0
 253.130859375 273 185.130859375 236 193.130859375 169 c 0
 200.130859375 105 264.130859375 70 320.130859375 56 c 0
 371.130859375 43 428.130859375 35 480.130859375 37 c 0
 541.130859375 40 587.130859375 73 623.130859375 121 c 0
 687.130859375 206 713.130859375 320 690.130859375 425 c 0
 667.130859375 527 601.130859375 623 507.130859375 670 c 0
 452.130859375 698 395.130859375 701 336.130859375 688 c 0
 286.130859375 677 224.130859375 665 186.130859375 629 c 0
 168.130859375 613 141.130859375 639 159.130859375 655 c 0
 210.130859375 702 294.130859375 722 361.130859375 731 c 0
 436.130859375 742 508.130859375 720 569.130859375 676 c 1
318.130859375 363 m 2
 318.130859375 364 l 1
 333.130859375 364 356.130859375 375 340.130859375 393 c 0
 320.130859375 416 285.130859375 395 278.130859375 371 c 0
 291.130859375 366 305.130859375 363 318.130859375 363 c 2
259.130859375 412 m 2
 259.130859375 411 l 1
 279.130859375 435 312.130859375 446 343.130859375 434 c 0
 376.130859375 421 391.130859375 382 375.130859375 354 c 1
 390.130859375 358 404.130859375 362 419.130859375 367 c 0
 435.130859375 373 448.130859375 379 446.130859375 398 c 0
 445.130859375 412 437.130859375 425 428.130859375 436 c 0
 410.130859375 457 384.130859375 471 357.130859375 473 c 0
 328.130859375 475 300.130859375 463 280.130859375 443 c 0
 272.130859375 435 264.130859375 424 259.130859375 412 c 2
EndSplineSet
Validated: 33
EndChar

StartChar: q
Encoding: 113 113 13
Width: 10
Flags: HW
LayerCount: 2
Fore
SplineSet
-35.935546875 -177.498046875 m 1
 -36.2275390625 -177.498046875 l 1
 -28.328125 -200.904296875 -61.974609375 -216.703125 -71.0439453125 -194.467773438 c 0
 -111.7109375 -95.2861328125 -243.661132812 -77.146484375 -327.3359375 -72.7578125 c 0
 -432.369140625 -67.4912109375 -536.817382812 -92.65234375 -631.025390625 -146.193359375 c 0
 -652.96875 -158.7734375 -672.278320312 -121.032226562 -650.334960938 -108.451171875 c 0
 -544.424804688 -47.888671875 -425.640625 -20.0947265625 -307.44140625 -30.3349609375 c 0
 -241.905273438 -36.1865234375 -157.059570312 -50.5224609375 -97.0830078125 -96.4560546875 c 1
 -110.541015625 -30.3349609375 -116.392578125 37.833984375 -113.173828125 106.295898438 c 0
 -111.7109375 134.3828125 -73.384765625 134.3828125 -74.84765625 106.295898438 c 0
 -79.236328125 8.8701171875 -66.3623046875 -86.2158203125 -35.935546875 -177.498046875 c 1
EndSplineSet
EndChar

StartChar: r
Encoding: 114 114 14
Width: 565
Flags: HW
LayerCount: 2
Fore
SplineSet
534.321289062 307 m 1
 550.321289062 250 536.321289062 188 508.321289062 137 c 0
 448.321289062 28 320.321289062 -24 204.321289062 13 c 0
 86.3212890625 51 -0.6787109375 176 30.3212890625 304 c 0
 48.3212890625 379 96.3212890625 450 135.321289062 516 c 0
 177.321289062 588 223.321289062 658 271.321289062 726 c 0
 285.321289062 745 316.321289062 727 302.321289062 707 c 0
 232.321289062 608 166.321289062 504 110.321289062 396 c 1
 132.321289062 408 158.321289062 417 183.321289062 422 c 0
 259.321289062 438 346.321289062 442 421.321289062 417 c 0
 474.321289062 399 518.321289062 363 534.321289062 307 c 1
461.321289062 131 m 2
 491.321289062 173 510.321289062 227 502.321289062 279 c 0
 494.321289062 337 450.321289062 371 397.321289062 385 c 0
 339.321289062 401 276.321289062 400 217.321289062 390 c 0
 164.321289062 382 85.3212890625 365 79.3212890625 298 c 0
 78.3212890625 288 71.3212890625 283 64.3212890625 281 c 0
 58.3212890625 246 61.3212890625 211 76.3212890625 175 c 0
 98.3212890625 122 139.321289062 81 190.321289062 58 c 0
 286.321289062 14 398.321289062 45 461.321289062 131 c 2
EndSplineSet
Validated: 33
EndChar

StartChar: s
Encoding: 115 115 15
Width: 10
Flags: HW
LayerCount: 2
Fore
SplineSet
-203.111328125 722.451171875 m 2
 -202.818359375 722.451171875 l 2
 -107.732421875 689.098632812 -54.4853515625 589.916992188 -74.96484375 491.3203125 c 0
 -79.9384765625 467.9140625 -115.046875 477.861328125 -110.366210938 500.974609375 c 0
 -89.30078125 602.204101562 -168.294921875 699.045898438 -271.573242188 696.705078125 c 0
 -323.065429688 695.53515625 -377.483398438 668.033203125 -414.34765625 632.631835938 c 0
 -447.116210938 601.034179688 -470.521484375 545.73828125 -436.583007812 505.948242188 c 0
 -421.369140625 488.1015625 -447.116210938 462.0625 -462.329101562 479.91015625 c 0
 -498.0234375 521.747070312 -496.267578125 582.017578125 -466.717773438 626.780273438 c 0
 -413.469726562 707.823242188 -295.563476562 754.926757812 -203.111328125 722.451171875 c 2
EndSplineSet
EndChar

StartChar: t
Encoding: 116 116 16
Width: 823
Flags: HW
LayerCount: 2
Fore
SplineSet
673.608398438 651 m 1
 791.608398438 539 830.608398438 359 773.608398438 207 c 0
 747.608398438 137 700.608398438 75 632.608398438 40 c 0
 560.608398438 3 476.608398438 -4 396.608398438 1 c 0
 324.608398438 5 256.608398438 31 222.608398438 98 c 0
 198.608398438 145 199.608398438 197 219.608398438 242 c 1
 162.608398438 223 105.608398438 205 46.6083984375 189 c 0
 23.6083984375 183 14.6083984375 218 36.6083984375 224 c 0
 104.608398438 242 172.608398438 263 238.608398438 286 c 0
 242.608398438 287 246.608398438 289 250.608398438 290 c 0
 250.608398438 291 l 2
 251.608398438 292 251.608398438 291 252.608398438 292 c 1
 232.608398438 292 213.608398438 302 201.608398438 317 c 0
 177.608398438 347 181.608398438 390 201.608398438 421 c 0
 241.608398438 484 343.608398438 518 396.608398438 450 c 0
 408.608398438 434 414.608398438 415 420.608398438 396 c 0
 425.608398438 379 431.608398438 361 426.608398438 343 c 0
 421.608398438 324 406.608398438 313 389.608398438 305 c 0
 368.608398438 296 346.608398438 287 325.608398438 279 c 0
 307.608398438 272 290.608398438 266 272.608398438 260 c 0
 224.608398438 200 232.608398438 109 298.608398438 64 c 0
 355.608398438 25 448.608398438 32 514.608398438 41 c 0
 558.608398438 47 600.608398438 62 637.608398438 85 c 1
 562.608398438 116 510.608398438 199 477.608398438 269 c 0
 439.608398438 349 419.608398438 436 420.608398438 525 c 0
 421.608398438 588 422.608398438 688 485.608398438 723 c 0
 547.608398438 758 630.608398438 692 673.608398438 651 c 1
232.608398438 403 m 1
 233.608398438 403 l 1
 232.608398438 401 230.608398438 399 229.608398438 397 c 1
 245.608398438 406 266.608398438 407 283.608398438 397 c 0
 315.608398438 379 320.608398438 331 293.608398438 306 c 0
 292.608398438 305 291.608398438 305 290.608398438 304 c 1
 301.608398438 308 312.608398438 312 323.608398438 316 c 0
 338.608398438 322 353.608398438 328 368.608398438 334 c 0
 380.608398438 339 391.608398438 343 392.608398438 358 c 0
 393.608398438 380 380.608398438 416 366.608398438 432 c 0
 349.608398438 451 322.608398438 456 298.608398438 450 c 0
 272.608398438 444 247.608398438 426 232.608398438 403 c 1
236.608398438 333 m 0
 254.608398438 321 281.608398438 332 273.608398438 355 c 0
 266.608398438 376 238.608398438 369 233.608398438 351 c 0
 232.608398438 347 230.608398438 343 227.608398438 341 c 0
 229.608398438 338 232.608398438 336 236.608398438 333 c 0
761.608398438 306 m 2
 776.608398438 434 727.608398438 565 625.608398438 646 c 0
 601.608398438 665 572.608398438 685 542.608398438 694 c 0
 492.608398438 709 473.608398438 659 465.608398438 620 c 0
 452.608398438 556 453.608398438 489 464.608398438 425 c 0
 475.608398438 364 496.608398438 306 526.608398438 252 c 0
 556.608398438 198 598.608398438 133 660.608398438 113 c 0
 664.608398438 112 666.608398438 110 668.608398438 108 c 1
 672.608398438 112 677.608398438 116 681.608398438 120 c 0
 728.608398438 170 753.608398438 238 761.608398438 306 c 2
EndSplineSet
Validated: 33
EndChar

StartChar: u
Encoding: 117 117 17
Width: 680
Flags: HW
LayerCount: 2
Fore
SplineSet
648.68359375 474 m 1
 660.68359375 366 660.68359375 244 608.68359375 145 c 0
 563.68359375 60 483.68359375 4 384.68359375 1 c 0
 284.68359375 -2 172.68359375 11 107.68359375 93 c 0
 44.68359375 173 5.68359375 297 32.68359375 396 c 0
 55.68359375 481 135.68359375 554 231.68359375 537 c 0
 264.68359375 531 300.68359375 511 313.68359375 479 c 1
 319.68359375 483 325.68359375 487 331.68359375 490 c 0
 350.68359375 511 382.68359375 522 412.68359375 517 c 0
 515.68359375 501 534.68359375 370 484.68359375 298 c 0
 433.68359375 223 319.68359375 210 249.68359375 269 c 0
 215.68359375 298 195.68359375 345 222.68359375 385 c 0
 235.68359375 404 257.68359375 416 272.68359375 434 c 0
 303.68359375 471 252.68359375 501 217.68359375 504 c 0
 146.68359375 511 90.68359375 458 70.68359375 397 c 0
 48.68359375 332 64.68359375 262 89.68359375 200 c 0
 114.68359375 138 150.68359375 79 217.68359375 55 c 0
 275.68359375 34 351.68359375 29 412.68359375 37 c 0
 552.68359375 55 610.68359375 199 617.68359375 319 c 0
 625.68359375 445 620.68359375 593 492.68359375 661 c 0
 365.68359375 729 216.68359375 692 84.68359375 658 c 0
 62.68359375 652 52.68359375 685 74.68359375 691 c 0
 201.68359375 723 340.68359375 757 468.68359375 709 c 0
 577.68359375 668 635.68359375 585 648.68359375 474 c 1
355.68359375 463 m 0
 347.68359375 452 344.68359375 439 352.68359375 426 c 0
 362.68359375 409 392.68359375 403 401.68359375 425 c 0
 408.68359375 442 391.68359375 459 376.68359375 463 c 0
 368.68359375 465 362.68359375 465 355.68359375 463 c 0
312.68359375 433 m 1
 313.68359375 433 l 1
 302.68359375 410 279.68359375 396 261.68359375 377 c 0
 205.68359375 319 302.68359375 266 354.68359375 266 c 0
 411.68359375 266 459.68359375 304 472.68359375 358 c 0
 482.68359375 400 460.68359375 475 412.68359375 484 c 1
 416.68359375 481 419.68359375 479 422.68359375 475 c 0
 449.68359375 442 440.68359375 389 395.68359375 378 c 0
 355.68359375 367 317.68359375 396 312.68359375 433 c 1
EndSplineSet
EndChar

StartChar: v
Encoding: 118 118 18
Width: 780
Flags: HW
LayerCount: 2
Fore
SplineSet
712.94921875 425 m 1
 713.94921875 426 l 1
 725.94921875 361 735.94921875 292 729.94921875 226 c 0
 720.94921875 127 663.94921875 18 556.94921875 2 c 0
 490.94921875 -8 435.94921875 28 413.94921875 80 c 1
 361.94921875 8 261.94921875 -25 174.94921875 26 c 0
 116.94921875 60 89.94921875 123 102.94921875 189 c 0
 110.94921875 232 135.94921875 268 165.94921875 297 c 1
 126.94921875 285 87.94921875 271 49.94921875 255 c 0
 29.94921875 246 12.94921875 276 32.94921875 285 c 0
 94.94921875 312 158.94921875 332 224.94921875 348 c 0
 257.94921875 356 291.94921875 362 325.94921875 367 c 0
 339.94921875 369 359.94921875 367 371.94921875 374 c 0
 384.94921875 381 378.94921875 397 372.94921875 408 c 0
 359.94921875 433 336.94921875 457 309.94921875 465 c 0
 296.94921875 469 280.94921875 469 266.94921875 464 c 1
 282.94921875 466 299.94921875 461 310.94921875 448 c 0
 333.94921875 421 320.94921875 378 288.94921875 365 c 0
 259.94921875 353 224.94921875 366 210.94921875 394 c 0
 197.94921875 420 202.94921875 453 221.94921875 475 c 0
 242.94921875 500 278.94921875 507 309.94921875 501 c 0
 344.94921875 494 372.94921875 469 392.94921875 441 c 0
 409.94921875 417 425.94921875 381 402.94921875 355 c 0
 389.94921875 341 373.94921875 338 355.94921875 336 c 0
 335.94921875 334 316.94921875 332 296.94921875 328 c 0
 281.94921875 325 266.94921875 322 251.94921875 319 c 0
 250.94921875 318 250.94921875 318 249.94921875 317 c 0
 203.94921875 289 159.94921875 253 141.94921875 201 c 0
 122.94921875 145 140.94921875 87 192.94921875 56 c 0
 274.94921875 8 369.94921875 52 402.94921875 131 c 0
 402.94921875 151 406.94921875 172 416.94921875 193 c 0
 424.94921875 209 450.94921875 201 449.94921875 184 c 0
 448.94921875 162 443.94921875 142 436.94921875 123 c 0
 440.94921875 72 484.94921875 31 541.94921875 35 c 0
 600.94921875 39 647.94921875 84 671.94921875 135 c 0
 699.94921875 195 698.94921875 265 692.94921875 329 c 0
 686.94921875 390 675.94921875 452 655.94921875 510 c 0
 636.94921875 565 604.94921875 617 556.94921875 652 c 0
 506.94921875 688 443.94921875 698 382.94921875 698 c 0
 259.94921875 699 132.94921875 662 57.94921875 559 c 0
 44.94921875 541 14.94921875 558 27.94921875 576 c 0
 107.94921875 686 238.94921875 731 370.94921875 733 c 0
 487.94921875 734 591.94921875 697 654.94921875 594 c 0
 685.94921875 543 701.94921875 484 712.94921875 425 c 1
274.94921875 396 m 1
 273.94921875 396 l 1
 303.94921875 408 273.94921875 447 259.94921875 423 c 0
 254.94921875 415 246.94921875 414 239.94921875 416 c 1
 243.94921875 401 256.94921875 389 274.94921875 396 c 1
EndSplineSet
EndChar

StartChar: w
Encoding: 119 119 19
Width: 498
Flags: HW
LayerCount: 2
Fore
SplineSet
432.100585938 126 m 2
 432.100585938 127 l 2
 445.100585938 138 467.100585938 128 462.100585938 110 c 0
 435.100585938 10 407.100585938 -91 380.100585938 -191 c 0
 375.100585938 -211 346.100585938 -207 346.100585938 -187 c 0
 345.100585938 -116 343.100585938 -45 342.100585938 26 c 1
 289.100585938 3 233.100585938 -5 174.100585938 9 c 0
 87.1005859375 30 14.1005859375 113 25.1005859375 209 c 0
 34.1005859375 295 104.100585938 351 180.100585938 374 c 1
 157.100585938 377 136.100585938 394 128.100585938 419 c 0
 123.100585938 435 124.100585938 451 129.100585938 467 c 0
 129.100585938 468 129.100585938 470 129.100585938 471 c 0
 129.100585938 473 130.100585938 476 131.100585938 478 c 0
 132.100585938 480 133.100585938 482 135.100585938 483 c 0
 136.100585938 483 l 2
 144.100585938 498 156.100585938 511 170.100585938 519 c 0
 209.100585938 542 259.100585938 532 294.100585938 505 c 0
 310.100585938 492 329.100585938 473 341.100585938 451 c 1
 354.100585938 503 421.100585938 558 463.100585938 499 c 0
 505.100585938 439 418.100585938 350 376.100585938 319 c 0
 375.100585938 318 373.100585938 319 372.100585938 318 c 0
 372.100585938 291 374.100585938 265 374.100585938 238 c 0
 375.100585938 187 375.100585938 136 376.100585938 85 c 1
 396.100585938 98 415.100585938 111 432.100585938 126 c 2
382.100585938 450 m 1
 373.100585938 423 376.100585938 391 377.100585938 362 c 1
 398.100585938 380 416.100585938 400 429.100585938 425 c 0
 438.100585938 443 454.100585938 486 420.100585938 487 c 0
 400.100585938 487 388.100585938 467 382.100585938 450 c 1
168.100585938 453 m 0
 164.100585938 440 165.100585938 425 175.100585938 416 c 0
 199.100585938 401 206.100585938 410 197.100585938 444 c 0
 193.100585938 448 188.100585938 452 183.100585938 456 c 0
 182.100585938 456 182.100585938 455 181.100585938 455 c 0
 176.100585938 454 173.100585938 454 168.100585938 453 c 0
198.100585938 489 m 2
 198.100585938 490 l 1
 228.100585938 466 265.100585938 419 224.100585938 385 c 0
 222.100585938 383 219.100585938 382 217.100585938 381 c 1
 220.100585938 381 223.100585938 382 225.100585938 382 c 0
 249.100585938 386 288.100585938 378 309.100585938 389 c 0
 351.100585938 411 287.100585938 472 270.100585938 482 c 0
 249.100585938 495 221.100585938 499 198.100585938 489 c 2
102.100585938 95 m 0
 168.100585938 19 265.100585938 27 348.100585938 66 c 0
 348.100585938 91 346.100585938 117 346.100585938 142 c 0
 345.100585938 195 345.100585938 247 344.100585938 300 c 0
 344.100585938 321 342.100585938 344 341.100585938 366 c 1
 318.100585938 347 281.100585938 351 253.100585938 349 c 0
 189.100585938 345 122.100585938 319 86.1005859375 261 c 0
 53.1005859375 207 62.1005859375 142 102.100585938 95 c 0
420.100585938 66 m 1
 408.100585938 58 396.100585938 50 383.100585938 43 c 0
 384.100585938 8 384.100585938 -28 385.100585938 -63 c 1
 397.100585938 -20 408.100585938 23 420.100585938 66 c 1
EndSplineSet
Validated: 37
EndChar

StartChar: x
Encoding: 120 120 20
Width: 400
Flags: HW
LayerCount: 2
Fore
SplineSet
359.794921875 246 m 0
 390.794921875 174 372.794921875 86 309.794921875 37 c 0
 249.794921875 -9 164.794921875 -9 103.794921875 35 c 0
 40.794921875 80 6.794921875 162 32.794921875 237 c 0
 53.794921875 299 110.794921875 343 174.794921875 349 c 0
 247.794921875 381 330.794921875 314 359.794921875 246 c 0
299.794921875 77 m 2
 300.794921875 76 l 2
 343.794921875 120 348.794921875 189 320.794921875 243 c 0
 302.794921875 278 264.794921875 313 225.794921875 319 c 0
 222.794921875 315 218.794921875 311 211.794921875 312 c 0
 202.794921875 313 193.794921875 314 185.794921875 313 c 0
 179.794921875 311 174.794921875 308 169.794921875 304 c 0
 161.794921875 298 153.794921875 299 148.794921875 305 c 0
 106.794921875 291 72.794921875 256 62.794921875 208 c 0
 49.794921875 147 85.794921875 86 137.794921875 56 c 0
 188.794921875 27 257.794921875 34 299.794921875 77 c 2
EndSplineSet
Validated: 33
EndChar

StartChar: y
Encoding: 121 121 21
Width: 770
Flags: HW
LayerCount: 2
Fore
SplineSet
710.606445312 405 m 2
 755.606445312 308 788.606445312 202 727.606445312 104 c 0
 672.606445312 16 565.606445312 -21 467.606445312 7 c 0
 443.606445312 14 453.606445312 53 478.606445312 46 c 0
 565.606445312 21 658.606445312 56 701.606445312 138 c 0
 746.606445312 223 711.606445312 315 672.606445312 395 c 0
 652.606445312 435 619.606445312 480 570.606445312 481 c 0
 520.606445312 482 483.606445312 440 456.606445312 402 c 0
 420.606445312 351 386.606445312 298 353.606445312 245 c 1
 418.606445312 247 490.606445312 206 473.606445312 140 c 0
 459.606445312 87 403.606445312 48 356.606445312 27 c 0
 304.606445312 4 246.606445312 -2 190.606445312 9 c 0
 136.606445312 20 75.6064453125 50 43.6064453125 97 c 0
 14.6064453125 139 19.6064453125 197 46.6064453125 239 c 0
 76.6064453125 287 128.606445312 314 180.606445312 330 c 0
 213.606445312 340 250.606445312 343 283.606445312 355 c 0
 304.606445312 363 329.606445312 378 331.606445312 404 c 0
 332.606445312 428 312.606445312 449 294.606445312 461 c 0
 278.606445312 472 260.606445312 481 241.606445312 486 c 1
 272.606445312 442 258.606445312 377 205.606445312 360 c 0
 157.606445312 345 110.606445312 376 106.606445312 427 c 0
 105.606445312 437 107.606445312 445 109.606445312 453 c 0
 97.6064453125 457 88.6064453125 474 99.6064453125 487 c 0
 117.606445312 507 144.606445312 519 170.606445312 520 c 0
 178.606445312 523 186.606445312 527 195.606445312 528 c 0
 251.606445312 536 322.606445312 505 353.606445312 457 c 0
 388.606445312 404 362.606445312 345 307.606445312 322 c 0
 238.606445312 292 157.606445312 298 99.6064453125 242 c 0
 69.6064453125 213 51.6064453125 167 71.6064453125 127 c 0
 88.6064453125 94 129.606445312 71 162.606445312 58 c 0
 232.606445312 32 310.606445312 41 373.606445312 82 c 0
 405.606445312 103 469.606445312 161 410.606445312 191 c 0
 390.606445312 201 351.606445312 211 325.606445312 202 c 0
 315.606445312 187 306.606445312 171 296.606445312 156 c 0
 286.606445312 140 259.606445312 146 260.606445312 166 c 0
 261.606445312 197 276.606445312 218 298.606445312 231 c 0
 326.606445312 273 352.606445312 316 380.606445312 358 c 0
 410.606445312 404 438.606445312 456 482.606445312 489 c 0
 575.606445312 558 667.606445312 498 710.606445312 405 c 2
161.606445312 401 m 0
 199.606445312 378 231.606445312 428 211.606445312 461 c 0
 203.606445312 475 190.606445312 480 177.606445312 481 c 0
 150.606445312 465 126.606445312 422 161.606445312 401 c 0
EndSplineSet
EndChar

StartChar: z
Encoding: 122 122 22
Width: 178
Flags: HW
LayerCount: 2
Fore
SplineSet
144.875976562 715 m 1
 143.875976562 715 l 1
 151.875976562 705 155.875976562 691 152.875976562 677 c 0
 146.875976562 650 116.875976562 631 89.8759765625 632 c 0
 79.8759765625 632 69.8759765625 636 62.8759765625 643 c 1
 52.8759765625 604 74.8759765625 559 115.875976562 546 c 0
 137.875976562 539 128.875976562 504 105.875976562 511 c 0
 46.8759765625 530 11.8759765625 592 27.8759765625 653 c 0
 34.8759765625 678 49.8759765625 705 73.8759765625 718 c 0
 76.8759765625 720 80.8759765625 721 83.8759765625 722 c 0
 85.8759765625 723 87.8759765625 724 89.8759765625 725 c 0
 93.8759765625 727 98.8759765625 729 103.875976562 730 c 0
 111.875976562 732 118.875976562 733 126.875976562 733 c 0
 137.875976562 732 144.875976562 724 144.875976562 715 c 1
EndSplineSet
Validated: 33
EndChar

StartChar: braceleft
Encoding: 123 123 23
Width: 950
Flags: HW
LayerCount: 2
Fore
SplineSet
988.249023438 6 m 2
 993.249023438 30 1028.24902344 19 1023.24902344 -4 c 0
 999.249023438 -117 876.249023438 -239 755.249023438 -195 c 0
 699.249023438 -175 680.249023438 -114 698.249023438 -59 c 0
 708.249023438 -30 726.249023438 -7 748.249023438 11 c 1
 731.249023438 12 714.249023438 16 698.249023438 24 c 0
 656.249023438 46 638.249023438 92 641.249023438 139 c 0
 647.249023438 222 708.249023438 296 783.249023438 324 c 0
 805.249023438 332 829.249023438 331 850.249023438 341 c 0
 891.249023438 360 846.249023438 403 826.249023438 421 c 0
 803.249023438 442 767.249023438 460 733.249023438 463 c 1
 743.249023438 452 752.249023438 441 758.249023438 428 c 0
 781.249023438 382 768.249023438 322 715.249023438 308 c 0
 664.249023438 294 618.249023438 334 614.249023438 386 c 0
 611.249023438 421 627.249023438 452 652.249023438 473 c 1
 627.249023438 482 599.249023438 484 574.249023438 479 c 0
 454.249023438 455 444.249023438 326 453.249023438 219 c 1
 475.249023438 252 506.249023438 276 548.249023438 259 c 0
 599.249023438 238 604.249023438 169 586.249023438 124 c 0
 536.249023438 -2 372.249023438 -10 272.249023438 54 c 0
 180.249023438 113 137.249023438 242 213.249023438 334 c 0
 232.249023438 357 256.249023438 371 284.249023438 380 c 0
 318.249023438 391 389.249023438 403 361.249023438 457 c 0
 325.249023438 528 185.249023438 486 136.249023438 452 c 0
 -3.7509765625 354 74.2490234375 156 143.249023438 41 c 0
 155.249023438 20 123.249023438 2 111.249023438 22 c 0
 43.2490234375 135 -13.7509765625 274 49.2490234375 403 c 0
 73.2490234375 453 114.249023438 489 165.249023438 508 c 0
 216.249023438 527 284.249023438 542 337.249023438 523 c 0
 376.249023438 509 409.249023438 470 403.249023438 426 c 0
 395.249023438 366 332.249023438 358 287.249023438 342 c 0
 224.249023438 320 197.249023438 245 215.249023438 182 c 0
 233.249023438 118 293.249023438 75 354.249023438 59 c 0
 425.249023438 41 514.249023438 59 549.249023438 132 c 0
 561.249023438 158 567.249023438 204 538.249023438 222 c 0
 495.249023438 248 468.249023438 177 459.249023438 148 c 0
 454.249023438 132 427.249023438 128 424.249023438 148 c 0
 411.249023438 235 398.249023438 327 437.249023438 410 c 0
 469.249023438 477 536.249023438 523 610.249023438 519 c 0
 638.249023438 518 667.249023438 510 692.249023438 495 c 0
 698.249023438 497 704.249023438 498 710.249023438 499 c 0
 777.249023438 509 839.249023438 467 880.249023438 417 c 0
 918.249023438 371 910.249023438 319 851.249023438 302 c 0
 815.249023438 292 782.249023438 287 751.249023438 264 c 0
 721.249023438 242 697.249023438 210 685.249023438 175 c 0
 670.249023438 131 673.249023438 74 722.249023438 54 c 0
 761.249023438 38 804.249023438 53 842.249023438 64 c 0
 862.249023438 70 875.249023438 39 856.249023438 30 c 0
 814.249023438 10 764.249023438 -11 740.249023438 -54 c 0
 710.249023438 -107 737.249023438 -164 798.249023438 -166 c 0
 892.249023438 -170 970.249023438 -82 988.249023438 6 c 2
689.249023438 343 m 1
 731.249023438 340 739.249023438 382 723.249023438 413 c 0
 715.249023438 430 702.249023438 443 687.249023438 454 c 0
 676.249023438 448 665.249023438 438 657.249023438 424 c 0
 641.249023438 395 650.249023438 346 689.249023438 343 c 1
EndSplineSet
EndChar

StartChar: bar
Encoding: 124 124 24
Width: 484
Flags: HW
LayerCount: 2
Fore
SplineSet
592.62890625 -23 m 1
 591.62890625 -23 l 1
 590.62890625 2 627.62890625 1 628.62890625 -23 c 0
 634.62890625 -155 502.62890625 -234 388.62890625 -195 c 0
 338.62890625 -178 278.62890625 -138 275.62890625 -78 c 0
 273.62890625 -49 285.62890625 -29 302.62890625 -15 c 1
 215.62890625 4 139.62890625 59 111.62890625 153 c 0
 84.62890625 244 127.62890625 352 216.62890625 384 c 1
 186.62890625 400 168.62890625 436 180.62890625 473 c 1
 143.62890625 451 112.62890625 407 94.62890625 374 c 0
 31.62890625 258 50.62890625 115 137.62890625 18 c 0
 153.62890625 0 127.62890625 -26 111.62890625 -8 c 0
 -6.37109375 124 -9.37109375 330 111.62890625 461 c 0
 143.62890625 496 191.62890625 529 238.62890625 526 c 0
 273.62890625 537 316.62890625 531 346.62890625 518 c 0
 395.62890625 497 469.62890625 426 425.62890625 367 c 0
 405.62890625 341 372.62890625 340 343.62890625 346 c 0
 299.62890625 354 255.62890625 364 213.62890625 342 c 0
 135.62890625 301 122.62890625 197 163.62890625 124 c 0
 210.62890625 40 304.62890625 11 393.62890625 17 c 0
 417.62890625 18 416.62890625 -18 393.62890625 -21 c 0
 368.62890625 -24 338.62890625 -28 321.62890625 -49 c 0
 302.62890625 -73 318.62890625 -101 336.62890625 -120 c 0
 363.62890625 -149 407.62890625 -166 445.62890625 -168 c 0
 525.62890625 -172 596.62890625 -108 592.62890625 -23 c 1
400.62890625 398 m 1
 412.62890625 434 360.62890625 471 335.62890625 482 c 0
 324.62890625 487 312.62890625 490 301.62890625 492 c 1
 322.62890625 462 319.62890625 417 291.62890625 393 c 1
 296.62890625 393 302.62890625 393 307.62890625 392 c 0
 330.62890625 389 388.62890625 363 400.62890625 398 c 1
241.62890625 486 m 0
 223.62890625 478 209.62890625 461 215.62890625 438 c 0
 221.62890625 419 239.62890625 412 256.62890625 417 c 0
 276.62890625 423 285.62890625 447 274.62890625 465 c 0
 267.62890625 478 254.62890625 484 241.62890625 486 c 0
EndSplineSet
EndChar

StartChar: braceright
Encoding: 125 125 25
Width: 462
Flags: HW
LayerCount: 2
Fore
SplineSet
416.626953125 339 m 0
 440.626953125 339 439.626953125 303 416.626953125 303 c 0
 292.626953125 304 167.626953125 305 43.626953125 306 c 0
 19.626953125 306 20.626953125 343 43.626953125 343 c 0
 167.626953125 342 292.626953125 340 416.626953125 339 c 0
417.626953125 230 m 0
 440.626953125 231 440.626953125 195 417.626953125 194 c 0
 293.626953125 186 168.626953125 185 43.626953125 191 c 0
 20.626953125 192 20.626953125 229 43.626953125 228 c 0
 167.626953125 222 293.626953125 222 417.626953125 230 c 0
EndSplineSet
Validated: 33
EndChar

StartChar: asciitilde
Encoding: 126 126 26
Width: 852
Flags: HW
LayerCount: 2
Fore
SplineSet
532.39453125 724 m 1
 532.39453125 725 l 1
 756.39453125 675 863.39453125 443 818.39453125 232 c 0
 796.39453125 131 728.39453125 31 620.39453125 9 c 0
 579.39453125 1 532.39453125 6 499.39453125 33 c 0
 488.39453125 42 481.39453125 53 475.39453125 64 c 1
 460.39453125 42 440.39453125 24 413.39453125 14 c 0
 359.39453125 -6 306.39453125 16 280.39453125 66 c 0
 238.39453125 146 235.39453125 261 295.39453125 328 c 1
 275.39453125 325 254.39453125 322 233.39453125 318 c 0
 228.39453125 297 224.39453125 275 222.39453125 253 c 0
 215.39453125 175 226.39453125 97 254.39453125 23 c 0
 262.39453125 1 227.39453125 -9 219.39453125 13 c 0
 183.39453125 108 175.39453125 213 195.39453125 312 c 1
 145.39453125 304 94.39453125 295 44.39453125 287 c 0
 21.39453125 283 12.39453125 318 35.39453125 322 c 0
 91.39453125 331 147.39453125 341 203.39453125 350 c 0
 219.39453125 411 262.39453125 535 336.39453125 528 c 0
 338.39453125 529 340.39453125 528 342.39453125 529 c 0
 434.39453125 549 517.39453125 470 506.39453125 379 c 0
 505.39453125 371 501.39453125 362 493.39453125 361 c 0
 456.39453125 355 420.39453125 349 383.39453125 343 c 0
 381.39453125 341 379.39453125 340 376.39453125 339 c 0
 278.39453125 309 274.39453125 190 302.39453125 109 c 0
 318.39453125 62 356.39453125 25 408.39453125 51 c 0
 439.39453125 67 456.39453125 96 465.39453125 128 c 0
 466.39453125 139 468.39453125 150 472.39453125 161 c 0
 480.39453125 184 511.39453125 174 507.39453125 151 c 0
 506.39453125 142 503.39453125 133 501.39453125 124 c 0
 498.39453125 97 506.39453125 70 533.39453125 54 c 0
 556.39453125 41 585.39453125 39 611.39453125 44 c 0
 665.39453125 54 710.39453125 91 740.39453125 135 c 0
 805.39453125 231 807.39453125 372 768.39453125 478 c 0
 731.39453125 579 642.39453125 658 537.39453125 686 c 0
 427.39453125 716 307.39453125 685 222.39453125 610 c 0
 204.39453125 594 179.39453125 619 197.39453125 635 c 0
 288.39453125 715 413.39453125 751 532.39453125 724 c 1
392.39453125 493 m 1
 417.39453125 453 403.39453125 393 360.39453125 375 c 1
 397.39453125 381 434.39453125 388 471.39453125 394 c 0
 471.39453125 431 454.39453125 465 420.39453125 483 c 0
 412.39453125 488 402.39453125 491 392.39453125 493 c 1
311.39453125 470 m 0
 284.39453125 438 316.39453125 383 355.39453125 415 c 0
 384.39453125 439 365.39453125 484 336.39453125 489 c 0
 326.39453125 485 318.39453125 478 311.39453125 470 c 0
248.39453125 369 m 2
 247.39453125 365 245.39453125 359 244.39453125 355 c 1
 273.39453125 360 302.39453125 365 331.39453125 370 c 1
 327.39453125 370 322.39453125 370 318.39453125 371 c 0
 292.39453125 376 274.39453125 396 267.39453125 419 c 1
 259.39453125 402 253.39453125 384 248.39453125 369 c 2
EndSplineSet
Validated: 33
EndChar

StartChar: exclamdown
Encoding: 161 161 27
Width: 160
Flags: HW
LayerCount: 2
Fore
SplineSet
134 40 m 1
 134 39 l 2
 134 38 l 0
 132 29 126 20 120 14 c 0
 104 -2 81 -4 62 5 c 0
 59 6 57 7 54 8 c 0
 50 10 47 13 44 16 c 0
 37 22 32 30 29 38 c 0
 28 40 28 43 27 45 c 0
 24 52 24 59 24 66 c 0
 25 82 31 95 43 104 c 0
 44 105 46 105 47 106 c 0
 48 107 49 107 50 108 c 0
 52 109 54 109 56 110 c 0
 57 111 58 111 59 111 c 0
 60 111 60 111 60 111 c 0
 66 112 73 112 79 111 c 0
 83 110 86 109 89 107 c 0
 97 105 105 102 112 96 c 0
 119 92 125 86 129 79 c 0
 135 69 136 56 134 44 c 0
 134 43 134 40 134 40 c 1
EndSplineSet
Validated: 33
EndChar

StartChar: cent
Encoding: 162 162 28
Width: 500
Flags: HW
LayerCount: 2
Fore
SplineSet
606.416015625 -23 m 2
 606.416015625 -22 l 2
 605.416015625 2 641.416015625 2 642.416015625 -22 c 0
 644.416015625 -93 601.416015625 -156 537.416015625 -185 c 0
 471.416015625 -215 396.416015625 -208 329.416015625 -183 c 0
 280.416015625 -165 197.416015625 -128 222.416015625 -61 c 0
 230.416015625 -40 247.416015625 -24 269.416015625 -11 c 1
 208.416015625 -1 154.416015625 30 124.416015625 90 c 0
 82.416015625 175 124.416015625 265 207.416015625 302 c 0
 229.416015625 312 252.416015625 318 276.416015625 321 c 0
 299.416015625 324 341.416015625 322 351.416015625 349 c 0
 360.416015625 373 338.416015625 422 327.416015625 444 c 0
 312.416015625 473 284.416015625 503 248.416015625 493 c 0
 230.416015625 488 214.416015625 474 202.416015625 458 c 1
 231.416015625 455 257.416015625 440 268.416015625 408 c 0
 284.416015625 357 236.416015625 304 184.416015625 325 c 0
 146.416015625 341 135.416015625 373 140.416015625 408 c 1
 120.416015625 396 103.416015625 378 90.416015625 358 c 0
 24.416015625 254 70.416015625 120 94.416015625 10 c 0
 99.416015625 -13 63.416015625 -23 58.416015625 0 c 0
 28.416015625 138 -31.583984375 358 127.416015625 443 c 1
 83.416015625 473 54.416015625 522 56.416015625 577 c 0
 59.416015625 636 95.416015625 690 149.416015625 714 c 0
 179.416015625 727 212.416015625 732 245.416015625 733 c 0
 276.416015625 734 308.416015625 731 336.416015625 717 c 0
 392.416015625 690 420.416015625 620 434.416015625 564 c 0
 447.416015625 510 431.416015625 444 373.416015625 429 c 1
 382.416015625 405 391.416015625 380 390.416015625 355 c 0
 386.416015625 284 306.416015625 292 257.416015625 280 c 0
 170.416015625 260 108.416015625 173 166.416015625 90 c 0
 211.416015625 25 294.416015625 14 367.416015625 25 c 0
 380.416015625 28 392.416015625 30 403.416015625 32 c 0
 426.416015625 36 436.416015625 3 413.416015625 -3 c 0
 400.416015625 -6 387.416015625 -9 374.416015625 -11 c 0
 336.416015625 -20 295.416015625 -33 270.416015625 -58 c 0
 217.416015625 -112 338.416015625 -150 373.416015625 -159 c 0
 472.416015625 -185 610.416015625 -148 606.416015625 -23 c 2
236.416015625 386 m 0
 238.416015625 417 210.416015625 425 183.416015625 422 c 0
 177.416015625 406 175.416015625 387 185.416015625 373 c 0
 200.416015625 351 234.416015625 355 236.416015625 386 c 0
302.416015625 523 m 1
 328.416015625 510 346.416015625 487 359.416015625 462 c 0
 360.416015625 462 361.416015625 463 362.416015625 463 c 0
 388.416015625 466 402.416015625 497 403.416015625 520 c 0
 404.416015625 548 393.416015625 576 383.416015625 602 c 0
 365.416015625 647 339.416015625 686 288.416015625 694 c 0
 243.416015625 701 185.416015625 697 146.416015625 671 c 0
 110.416015625 647 89.416015625 602 94.416015625 559 c 0
 98.416015625 518 126.416015625 481 163.416015625 464 c 0
 194.416015625 513 250.416015625 549 302.416015625 523 c 1
EndSplineSet
EndChar

StartChar: sterling
Encoding: 163 163 29
Width: 600
Flags: HW
LayerCount: 2
Fore
SplineSet
687.72265625 4 m 1
 697.72265625 -129 571.72265625 -235 441.72265625 -196 c 0
 387.72265625 -180 323.72265625 -130 336.72265625 -66 c 0
 339.72265625 -52 345.72265625 -40 353.72265625 -30 c 1
 266.72265625 -26 177.72265625 1 135.72265625 74 c 0
 81.72265625 167 153.72265625 274 240.72265625 312 c 0
 267.72265625 324 294.72265625 331 323.72265625 336 c 0
 348.72265625 340 374.72265625 339 399.72265625 343 c 0
 467.72265625 355 409.72265625 415 384.72265625 440 c 0
 361.72265625 463 334.72265625 484 301.72265625 492 c 0
 279.72265625 498 254.72265625 497 234.72265625 487 c 1
 257.72265625 474 275.72265625 454 285.72265625 429 c 0
 308.72265625 373 250.72265625 327 199.72265625 358 c 0
 161.72265625 381 153.72265625 426 167.72265625 463 c 1
 140.72265625 455 122.72265625 428 108.72265625 405 c 0
 44.72265625 296 41.72265625 157 97.72265625 44 c 0
 107.72265625 23 76.72265625 5 66.72265625 26 c 0
 27.72265625 104 13.72265625 190 26.72265625 276 c 0
 36.72265625 348 66.72265625 442 130.72265625 485 c 0
 141.72265625 492 153.72265625 497 165.72265625 499 c 1
 149.72265625 522 142.72265625 551 146.72265625 580 c 0
 152.72265625 624 180.72265625 662 214.72265625 688 c 0
 273.72265625 734 356.72265625 746 424.72265625 714 c 0
 489.72265625 683 536.72265625 609 531.72265625 536 c 0
 528.72265625 497 509.72265625 460 472.72265625 443 c 0
 461.72265625 438 449.72265625 436 437.72265625 436 c 1
 465.72265625 402 483.72265625 361 453.72265625 327 c 0
 430.72265625 301 391.72265625 307 360.72265625 304 c 0
 316.72265625 300 272.72265625 291 233.72265625 269 c 0
 158.72265625 226 120.72265625 122 195.72265625 59 c 0
 252.72265625 11 335.72265625 -1 411.72265625 6 c 0
 434.72265625 13 459.72265625 17 482.72265625 18 c 0
 502.72265625 19 506.72265625 -12 487.72265625 -17 c 0
 468.72265625 -22 446.72265625 -26 424.72265625 -28 c 0
 386.72265625 -40 353.72265625 -63 378.72265625 -109 c 0
 400.72265625 -149 453.72265625 -169 497.72265625 -169 c 0
 591.72265625 -169 659.72265625 -88 652.72265625 4 c 0
 650.72265625 27 685.72265625 27 687.72265625 4 c 1
488.72265625 509 m 1
 488.72265625 508 l 1
 499.72265625 534 495.72265625 566 486.72265625 592 c 0
 484.72265625 599 481.72265625 605 477.72265625 612 c 1
 476.72265625 611 475.72265625 610 473.72265625 609 c 0
 443.72265625 595 409.72265625 577 395.72265625 545 c 0
 383.72265625 517 390.72265625 484 421.72265625 474 c 0
 449.72265625 465 477.72265625 483 488.72265625 509 c 1
243.72265625 385 m 1
 274.72265625 400 239.72265625 438 226.72265625 448 c 0
 219.72265625 454 212.72265625 458 204.72265625 461 c 1
 190.72265625 437 202.72265625 366 243.72265625 385 c 1
202.72265625 509 m 0
 248.72265625 542 306.72265625 534 353.72265625 508 c 1
 351.72265625 527 355.72265625 546 363.72265625 564 c 0
 381.72265625 602 418.72265625 624 455.72265625 641 c 0
 456.72265625 642 456.72265625 642 457.72265625 642 c 1
 435.72265625 667 406.72265625 686 373.72265625 693 c 0
 320.72265625 704 262.72265625 686 223.72265625 649 c 0
 187.72265625 615 160.72265625 547 202.72265625 509 c 0
EndSplineSet
EndChar

StartChar: currency
Encoding: 164 164 30
Width: 598
Flags: HW
LayerCount: 2
Fore
SplineSet
554.25 40 m 0
 578.25 41 577.25 5 554.25 4 c 0
 383.25 -2 213.25 0 42.25 9 c 0
 19.25 10 19.25 46 42.25 45 c 0
 213.25 36 383.25 34 554.25 40 c 0
EndSplineSet
Validated: 33
EndChar

StartChar: yen
Encoding: 165 165 31
Width: 651
Flags: HW
LayerCount: 2
Fore
SplineSet
582.881835938 -83 m 2
 609.881835938 -99 631.881835938 -129 627.881835938 -162 c 0
 624.881835938 -185 606.881835938 -207 581.881835938 -205 c 0
 544.881835938 -202 539.881835938 -163 540.881835938 -134 c 0
 540.881835938 -125 541.881835938 -115 541.881835938 -106 c 0
 539.881835938 -105 538.881835938 -104 536.881835938 -104 c 0
 489.881835938 -97 445.881835938 -123 404.881835938 -141 c 0
 373.881835938 -155 341.881835938 -167 307.881835938 -174 c 0
 241.881835938 -188 163.881835938 -193 98.8818359375 -172 c 0
 49.8818359375 -156 10.8818359375 -112 24.8818359375 -58 c 0
 30.8818359375 -36 64.8818359375 -45 58.8818359375 -67 c 0
 41.8818359375 -131 130.881835938 -146 174.881835938 -149 c 0
 225.881835938 -153 278.881835938 -146 327.881835938 -132 c 0
 393.881835938 -113 470.881835938 -56 543.881835938 -69 c 1
 544.881835938 -49 546.881835938 -28 547.881835938 -7 c 1
 454.881835938 -53 335.881835938 -33 238.881835938 -10 c 0
 151.881835938 10 85.8818359375 74 80.8818359375 166 c 0
 75.8818359375 255 133.881835938 333 213.881835938 368 c 0
 229.881835938 375 245.881835938 380 261.881835938 384 c 1
 248.881835938 389 237.881835938 396 229.881835938 404 c 0
 194.881835938 444 223.881835938 494 264.881835938 515 c 0
 309.881835938 538 365.881835938 535 409.881835938 512 c 0
 449.881835938 492 495.881835938 444 484.881835938 395 c 0
 470.881835938 336 402.881835938 355 359.881835938 357 c 0
 293.881835938 361 220.881835938 345 170.881835938 299 c 0
 115.881835938 248 97.8818359375 164 136.881835938 98 c 0
 176.881835938 29 257.881835938 20 329.881835938 9 c 0
 407.881835938 -3 489.881835938 -7 557.881835938 40 c 0
 568.881835938 48 585.881835938 38 584.881835938 25 c 0
 582.881835938 -10 580.881835938 -46 578.881835938 -81 c 0
 579.881835938 -82 582.881835938 -83 582.881835938 -83 c 2
295.881835938 490 m 1
 284.881835938 486 268.881835938 478 259.881835938 468 c 1
 279.881835938 476 299.881835938 479 319.881835938 471 c 0
 340.881835938 462 357.881835938 440 354.881835938 417 c 0
 353.881835938 407 349.881835938 399 344.881835938 393 c 1
 367.881835938 393 391.881835938 388 414.881835938 387 c 0
 466.881835938 385 448.881835938 435 425.881835938 458 c 0
 393.881835938 491 339.881835938 505 295.881835938 490 c 1
313.881835938 433 m 2
 308.881835938 434 304.881835938 436 299.881835938 437 c 0
 282.881835938 441 270.881835938 436 257.881835938 429 c 1
 263.881835938 421 273.881835938 416 283.881835938 413 c 0
 287.881835938 412 297.881835938 409 301.881835938 411 c 0
 305.881835938 418 309.881835938 426 313.881835938 433 c 2
583.881835938 -150 m 0
 592.881835938 -158 595.881835938 -157 590.881835938 -147 c 0
 590.881835938 -137 583.881835938 -128 575.881835938 -121 c 1
 575.881835938 -125 574.881835938 -130 575.881835938 -134 c 0
 571.881835938 -143 574.881835938 -148 583.881835938 -150 c 0
EndSplineSet
Validated: 33
EndChar

StartChar: brokenbar
Encoding: 166 166 32
Width: 161
Flags: HW
LayerCount: 2
Fore
SplineSet
125.256835938 290 m 1
 133.256835938 276 135.256835938 260 131.256835938 245 c 0
 127.256835938 230 117.256835938 214 103.256835938 207 c 0
 93.2568359375 202 83.2568359375 202 73.2568359375 205 c 0
 60.2568359375 206 48.2568359375 210 39.2568359375 219 c 0
 21.2568359375 237 16.2568359375 269 34.2568359375 288 c 0
 34.2568359375 294 36.2568359375 298 39.2568359375 303 c 0
 50.2568359375 320 71.2568359375 324 89.2568359375 318 c 0
 104.256835938 313 117.256835938 303 125.256835938 290 c 1
115.256835938 86 m 1
 145.256835938 60 140.256835938 14 124.256835938 -18 c 0
 109.256835938 -47 81.2568359375 -69 49.2568359375 -76 c 0
 39.2568359375 -78 30.2568359375 -73 27.2568359375 -63 c 0
 25.2568359375 -54 30.2568359375 -43 40.2568359375 -41 c 0
 50.2568359375 -39 56.2568359375 -36 65.2568359375 -30 c 0
 71.2568359375 -26 80.2568359375 -18 84.2568359375 -13 c 0
 88.2568359375 -8 91.2568359375 -2 94.2568359375 4 c 1
 91.2568359375 2 87.2568359375 0 83.2568359375 -1 c 0
 61.2568359375 -5 39.2568359375 7 31.2568359375 28 c 0
 27.2568359375 38 27.2568359375 47 30.2568359375 57 c 1
 30.2568359375 77 45.2568359375 93 63.2568359375 99 c 0
 65.2568359375 100 67.2568359375 100 69.2568359375 100 c 0
 82.2568359375 107 97.2568359375 106 108.256835938 94 c 0
 109.256835938 93 110.256835938 91 111.256835938 89 c 0
 112.256835938 88 115.256835938 86 115.256835938 86 c 1
EndSplineSet
Validated: 33
EndChar

StartChar: section
Encoding: 167 167 33
Width: 500
Flags: HW
LayerCount: 2
Fore
SplineSet
600.55859375 -9 m 2
 605.55859375 14 639.55859375 5 634.55859375 -18 c 0
 606.55859375 -148 478.55859375 -237 352.55859375 -192 c 0
 302.55859375 -174 241.55859375 -130 237.55859375 -69 c 0
 235.55859375 -37 248.55859375 -13 268.55859375 5 c 1
 225.55859375 12 184.55859375 35 151.55859375 69 c 0
 98.55859375 124 45.55859375 218 84.55859375 295 c 0
 128.55859375 381 227.55859375 376 305.55859375 398 c 0
 388.55859375 421 276.55859375 494 238.55859375 496 c 0
 223.55859375 497 206.55859375 494 191.55859375 487 c 1
 211.55859375 464 227.55859375 432 205.55859375 404 c 0
 184.55859375 376 142.55859375 387 128.55859375 417 c 0
 126.55859375 421 125.55859375 426 124.55859375 430 c 0
 84.55859375 449 47.55859375 477 30.55859375 519 c 0
 13.55859375 561 22.55859375 603 51.55859375 637 c 0
 100.55859375 695 184.55859375 737 261.55859375 727 c 0
 341.55859375 717 408.55859375 654 421.55859375 574 c 0
 427.55859375 540 422.55859375 501 390.55859375 481 c 0
 378.55859375 474 364.55859375 471 350.55859375 471 c 1
 378.55859375 439 390.55859375 400 345.55859375 373 c 0
 305.55859375 350 251.55859375 353 207.55859375 341 c 0
 151.55859375 326 96.55859375 287 107.55859375 219 c 0
 123.55859375 118 229.55859375 15 330.55859375 40 c 0
 339.55859375 44 349.55859375 47 358.55859375 50 c 0
 377.55859375 56 390.55859375 25 372.55859375 17 c 0
 371.55859375 16 368.55859375 16 367.55859375 15 c 0
 319.55859375 0 244.55859375 -32 283.55859375 -98 c 0
 307.55859375 -139 357.55859375 -162 401.55859375 -167 c 0
 498.55859375 -178 580.55859375 -105 600.55859375 -9 c 2
349.55859375 507 m 0
 416.55859375 504 379.55859375 604 358.55859375 632 c 0
 357.55859375 633 356.55859375 634 355.55859375 635 c 1
 355.55859375 635 355.55859375 634 354.55859375 634 c 0
 329.55859375 618 307.55859375 593 306.55859375 561 c 0
 305.55859375 535 321.55859375 508 349.55859375 507 c 0
162.55859375 428 m 2
 163.55859375 428 l 2
 179.55859375 428 184.55859375 433 178.55859375 443 c 0
 177.55859375 450 172.55859375 457 166.55859375 463 c 1
 158.55859375 454 156.55859375 442 162.55859375 428 c 2
157.55859375 505 m 2
 188.55859375 530 231.55859375 537 269.55859375 526 c 0
 272.55859375 525 274.55859375 524 277.55859375 523 c 1
 270.55859375 541 268.55859375 562 272.55859375 581 c 0
 279.55859375 614 301.55859375 642 329.55859375 661 c 1
 293.55859375 688 246.55859375 699 202.55859375 688 c 0
 173.55859375 681 147.55859375 668 123.55859375 651 c 0
 101.55859375 636 77.55859375 617 65.55859375 592 c 0
 40.55859375 538 85.55859375 493 129.55859375 468 c 1
 135.55859375 482 145.55859375 496 157.55859375 505 c 2
EndSplineSet
EndChar

StartChar: dieresis
Encoding: 168 168 34
Width: 673
Flags: HW
LayerCount: 2
Fore
SplineSet
421.90625 166 m 1
 422.90625 166 l 1
 364.90625 179 293.90625 224 317.90625 295 c 0
 321.90625 305 325.90625 313 330.90625 321 c 1
 304.90625 320 278.90625 318 252.90625 317 c 0
 229.90625 316 229.90625 352 252.90625 353 c 0
 297.90625 355 341.90625 357 386.90625 359 c 0
 421.90625 370 462.90625 368 496.90625 364 c 0
 518.90625 361 519.90625 329 496.90625 328 c 0
 461.90625 327 425.90625 325 390.90625 324 c 0
 386.90625 322 382.90625 319 378.90625 317 c 0
 341.90625 293 338.90625 249 375.90625 224 c 0
 432.90625 184 521.90625 187 573.90625 234 c 0
 621.90625 277 626.90625 346 594.90625 401 c 0
 561.90625 458 495.90625 487 433.90625 493 c 0
 318.90625 504 180.90625 464 106.90625 370 c 0
 68.90625 322 49.90625 258 62.90625 197 c 0
 76.90625 134 124.90625 91 182.90625 70 c 0
 298.90625 27 443.90625 42 561.90625 68 c 0
 573.90625 71 582.90625 62 583.90625 50 c 0
 591.90625 -30 601.90625 -108 609.90625 -188 c 0
 611.90625 -207 585.90625 -210 576.90625 -197 c 0
 521.90625 -117 421.90625 -104 333.90625 -111 c 0
 243.90625 -118 154.90625 -141 70.90625 -176 c 0
 49.90625 -184 40.90625 -149 61.90625 -141 c 0
 204.90625 -82 437.90625 -21 568.90625 -137 c 1
 562.90625 -81 556.90625 -26 550.90625 29 c 1
 456.90625 10 360.90625 5 265.90625 16 c 0
 183.90625 26 96.90625 54 51.90625 129 c 0
 -31.09375 267 71.90625 425 198.90625 485 c 0
 328.90625 546 539.90625 565 624.90625 419 c 0
 659.90625 359 658.90625 282 614.90625 227 c 0
 567.90625 169 491.90625 150 421.90625 166 c 1
EndSplineSet
Validated: 33
EndChar

StartChar: copyright
Encoding: 169 169 35
Width: 673
Flags: HW
LayerCount: 2
Fore
SplineSet
610.1953125 349.129882812 m 1
 609.317382812 349.715820312 l 1
 660.224609375 283.594726562 669.001953125 189.09375 629.504882812 115.365234375 c 0
 592.34765625 46.3193359375 514.81640625 -1.3701171875 435.822265625 0.677734375 c 0
 384.915039062 2.140625 333.71484375 30.2275390625 313.8203125 73.8203125 c 1
 282.514648438 31.982421875 232.77734375 4.4814453125 178.65234375 7.4072265625 c 0
 97.3173828125 12.087890625 34.1220703125 74.11328125 22.7119140625 153.692382812 c 0
 11.30078125 232.686523438 36.169921875 324.846679688 92.34375 383.068359375 c 0
 147.346679688 440.120117188 240.969726562 458.844726562 307.67578125 410.86328125 c 0
 325.815429688 397.697265625 308.260742188 367.5625 290.122070312 380.727539062 c 0
 233.948242188 421.102539062 159.049804688 403.840820312 113.994140625 354.981445312 c 0
 71.2783203125 308.755859375 52.2607421875 239.416015625 55.1865234375 177.390625 c 0
 58.4052734375 107.758789062 105.801757812 46.3193359375 178.65234375 41.9306640625 c 0
 241.262695312 38.126953125 295.387695312 84.060546875 310.016601562 143.16015625 c 0
 316.453125 164.517578125 348.928710938 155.448242188 343.662109375 133.797851562 c 0
 324.060546875 68.26171875 394.27734375 32.275390625 449.573242188 35.201171875 c 0
 503.114257812 38.126953125 554.899414062 67.96875 586.204101562 110.977539062 c 0
 644.42578125 190.849609375 623.653320312 309.92578125 541.733398438 365.514648438 c 0
 502.821289062 391.845703125 455.424804688 402.377929688 408.90625 395.649414062 c 0
 374.674804688 390.67578125 342.4921875 394.771484375 332.544921875 433.390625 c 0
 312.649414062 511.799804688 422.364257812 544.568359375 483.803710938 538.131835938 c 1
 483.51171875 600.44921875 445.184570312 657.500976562 387.547851562 682.076171875 c 0
 334.592773438 704.897460938 270.2265625 700.80078125 221.3671875 669.788085938 c 0
 210.541992188 663.059570312 200.887695312 653.989257812 192.403320312 643.75 c 1
 225.463867188 648.430664062 259.109375 645.797851562 287.78125 627.073242188 c 0
 321.134765625 605.422851562 341.614257812 567.095703125 330.7890625 527.598632812 c 0
 322.01171875 494.831054688 293.6328125 466.451171875 260.279296875 458.844726562 c 0
 225.755859375 450.9453125 190.0625 463.525390625 164.31640625 487.223632812 c 0
 104.045898438 543.10546875 125.111328125 639.946289062 183.625976562 687.927734375 c 0
 245.358398438 738.25 335.177734375 746.442382812 406.857421875 714.259765625 c 0
 477.075195312 682.954101562 524.178710938 610.396484375 521.837890625 533.450195312 c 0
 521.837890625 531.40234375 521.252929688 529.939453125 520.66796875 528.4765625 c 0
 577.426757812 503.315429688 611.072265625 437.487304688 582.693359375 377.802734375 c 0
 592.640625 369.025390625 602.002929688 359.663085938 610.1953125 349.129882812 c 1
256.768554688 601.912109375 m 2
 256.4765625 601.912109375 l 2
 228.681640625 613.615234375 197.668945312 608.93359375 169.58203125 601.034179688 c 0
 161.682617188 574.703125 163.438476562 546.323242188 182.455078125 522.625 c 0
 198.546875 502.73046875 225.463867188 488.979492188 251.209960938 494.538085938 c 0
 274.030273438 499.51171875 294.217773438 520.577148438 297.143554688 543.982421875 c 0
 300.361328125 570.314453125 279.588867188 592.256835938 256.768554688 601.912109375 c 2
554.313476562 398.575195312 m 1
 554.313476562 398.8671875 l 2
 575.671875 452.408203125 523.88671875 501.852539062 471.515625 504.778320312 c 0
 443.13671875 506.241210938 411.5390625 498.634765625 388.1328125 481.958007812 c 0
 376.72265625 473.765625 365.897460938 462.35546875 366.775390625 447.141601562 c 0
 368.23828125 425.491210938 388.42578125 427.5390625 404.809570312 429.879882812 c 0
 456.887695312 436.901367188 510.135742188 425.491210938 554.313476562 398.575195312 c 1
EndSplineSet
EndChar

StartChar: ordfeminine
Encoding: 170 170 36
Width: 593
Flags: HW
LayerCount: 2
Fore
SplineSet
560.041015625 11 m 1
 563.041015625 -55 566.041015625 -119 569.041015625 -185 c 0
 570.041015625 -199 552.041015625 -210 541.041015625 -202 c 0
 476.041015625 -153 377.041015625 -151 300.041015625 -151 c 0
 214.041015625 -151 129.041015625 -166 47.041015625 -193 c 0
 24.041015625 -200 14.041015625 -162 37.041015625 -155 c 0
 126.041015625 -126 219.041015625 -112 312.041015625 -113 c 0
 381.041015625 -114 465.041015625 -117 531.041015625 -151 c 1
 529.041015625 -106 527.041015625 -60 525.041015625 -15 c 1
 463.041015625 -34 398.041015625 -38 334.041015625 -26 c 0
 272.041015625 -15 200.041015625 13 157.041015625 64 c 0
 85.041015625 151 144.041015625 263 227.041015625 310 c 1
 207.041015625 309 186.041015625 317 170.041015625 339 c 0
 140.041015625 380 152.041015625 428 180.041015625 465 c 1
 166.041015625 455 154.041015625 440 146.041015625 429 c 0
 54.041015625 304 102.041015625 135 141.041015625 -1 c 0
 148.041015625 -25 112.041015625 -35 105.041015625 -11 c 0
 75.041015625 91 45.041015625 196 60.041015625 303 c 0
 70.041015625 378 109.041015625 484 184.041015625 512 c 0
 201.041015625 519 217.041015625 517 230.041015625 510 c 0
 232.041015625 511 l 0
 294.041015625 544 369.041015625 536 422.041015625 487 c 0
 459.041015625 453 515.041015625 348 455.041015625 309 c 0
 425.041015625 289 377.041015625 303 344.041015625 301 c 0
 296.041015625 299 247.041015625 287 209.041015625 254 c 0
 175.041015625 224 153.041015625 175 165.041015625 128 c 0
 178.041015625 77 228.041015625 50 271.041015625 33 c 0
 357.041015625 -2 450.041015625 -2 537.041015625 30 c 0
 549.041015625 34 559.041015625 23 560.041015625 11 c 1
209.041015625 444 m 1
 190.041015625 419 174.041015625 345 226.041015625 349 c 0
 273.041015625 353 245.041015625 432 232.041015625 457 c 0
 231.041015625 459 229.041015625 461 228.041015625 463 c 0
 221.041015625 457 215.041015625 451 209.041015625 444 c 1
260.041015625 482 m 1
 280.041015625 452 291.041015625 409 289.041015625 378 c 0
 288.041015625 356 277.041015625 339 264.041015625 327 c 1
 292.041015625 336 321.041015625 339 350.041015625 340 c 0
 378.041015625 341 449.041015625 323 441.041015625 375 c 0
 430.041015625 447 365.041015625 500 297.041015625 492 c 0
 284.041015625 491 272.041015625 487 260.041015625 482 c 1
EndSplineSet
Validated: 33
EndChar

StartChar: guillemotleft
Encoding: 171 171 37
Width: 302
Flags: HW
LayerCount: 2
Fore
SplineSet
275.142578125 176 m 1
 275.142578125 177 l 1
 281.142578125 169 276.142578125 157 268.142578125 152 c 0
 259.142578125 146 249.142578125 150 243.142578125 158 c 0
 215.142578125 195 184.142578125 231 150.142578125 262 c 0
 118.142578125 227 85.142578125 193 53.142578125 158 c 0
 37.142578125 141 12.142578125 167 28.142578125 184 c 0
 60.142578125 218 90.142578125 251 122.142578125 285 c 1
 94.142578125 308 66.142578125 330 36.142578125 348 c 0
 16.142578125 360 34.142578125 391 54.142578125 379 c 0
 87.142578125 359 118.142578125 337 147.142578125 312 c 0
 172.142578125 339 198.142578125 366 223.142578125 393 c 0
 239.142578125 410 265.142578125 384 249.142578125 367 c 0
 224.142578125 341 200.142578125 314 175.142578125 288 c 1
 212.142578125 254 245.142578125 216 275.142578125 176 c 1
EndSplineSet
Validated: 33
EndChar

StartChar: logicalnot
Encoding: 172 172 38
Width: 298
Flags: HW
LayerCount: 2
Fore
SplineSet
256.626953125 316 m 1
 256.626953125 315 l 1
 280.626953125 315 279.626953125 279 256.626953125 279 c 2
 159.626953125 280 l 2
 158.626953125 247 157.626953125 214 153.626953125 181 c 0
 152.626953125 171 145.626953125 163 134.626953125 163 c 0
 125.626953125 163 115.626953125 171 116.626953125 181 c 0
 120.626953125 214 122.626953125 247 123.626953125 280 c 1
 95.626953125 280 68.626953125 281 40.626953125 281 c 0
 16.626953125 281 17.626953125 318 40.626953125 318 c 0
 68.626953125 318 95.626953125 317 123.626953125 317 c 1
 122.626953125 350 121.626953125 384 117.626953125 417 c 0
 116.626953125 427 126.626953125 435 135.626953125 435 c 0
 146.626953125 435 152.626953125 427 153.626953125 417 c 0
 157.626953125 384 159.626953125 350 160.626953125 317 c 0
 192.626953125 317 224.626953125 316 256.626953125 316 c 1
EndSplineSet
Validated: 33
EndChar

StartChar: uni00AD
Encoding: 173 173 39
Width: 325
Flags: HW
LayerCount: 2
Fore
SplineSet
284.25 282 m 0
 307.25 282 307.25 246 284.25 246 c 0
 203.25 246 121.25 247 40.25 247 c 0
 17.25 247 17.25 283 40.25 283 c 0
 121.25 283 203.25 282 284.25 282 c 0
211.25 410 m 1
 224.25 393 224.25 366 211.25 348 c 0
 204.25 339 196.25 333 186.25 329 c 0
 177.25 325 167.25 326 158.25 327 c 0
 140.25 330 125.25 344 120.25 362 c 0
 117.25 371 117.25 382 120.25 390 c 0
 124.25 400 129.25 408 138.25 414 c 0
 152.25 424 172.25 425 188.25 417 c 0
 192.25 418 196.25 419 200.25 418 c 0
 205.25 417 208.25 414 211.25 410 c 1
169.25 362 m 1
 170.25 362 l 2
 172.25 363 173.25 362 175.25 363 c 0
 176.25 364 177.25 364 178.25 365 c 0
 179.25 366 179.25 367 180.25 368 c 0
 181.25 369 181.25 370 182.25 371 c 0
 182.25 372 183.25 373 183.25 375 c 0
 183.25 377 183.25 379 183.25 381 c 0
 183.25 382 183.25 382 183.25 383 c 1
 179.25 383 176.25 383 173.25 384 c 0
 171.25 385 170.25 385 168.25 385 c 0
 167.25 385 166.25 385 165.25 385 c 0
 164.25 385 161.25 385 160.25 384 c 0
 159.25 384 159.25 384 158.25 383 c 0
 157.25 382 157.25 382 156.25 381 c 0
 156.25 380 155.25 380 155.25 379 c 0
 155.25 378 154.25 378 154.25 377 c 0
 154.25 376 154.25 375 154.25 374 c 0
 154.25 373 156.25 371 156.25 370 c 0
 157.25 369 157.25 367 158.25 366 c 0
 159.25 365 159.25 365 160.25 364 c 0
 161.25 363 161.25 363 162.25 363 c 0
 163.25 363 164.25 362 165.25 362 c 0
 166.25 362 169.25 362 169.25 362 c 1
198.25 196 m 1
 197.25 196 l 1
 210.25 186 218.25 171 218.25 154 c 0
 218.25 135 207.25 113 189.25 105 c 0
 170.25 96 146.25 98 132.25 114 c 0
 117.25 131 115.25 157 128.25 176 c 0
 134.25 185 142.25 191 151.25 196 c 0
 159.25 200 167.25 203 175.25 204 c 0
 176.25 204 l 0
 178.25 204 180.25 205 182.25 205 c 0
 189.25 206 195.25 202 198.25 196 c 1
180.25 146 m 1
 180.25 147 l 2
 180.25 148 181.25 148 181.25 149 c 0
 181.25 150 181.25 150 181.25 151 c 0
 181.25 153 181.25 155 181.25 157 c 0
 181.25 159 181.25 160 180.25 162 c 0
 180.25 163 l 2
 179.25 164 179.25 164 178.25 165 c 0
 177.25 166 l 2
 177.25 167 l 0
 175.25 167 173.25 167 172.25 166 c 1
 171.25 165 170.25 165 169.25 164 c 0
 168.25 163 167.25 163 166.25 162 c 0
 165.25 162 l 2
 164.25 161 162.25 159 161.25 158 c 1
 160.25 157 160.25 156 159.25 155 c 0
 159.25 154 158.25 154 158.25 153 c 0
 158.25 152 157.25 150 157.25 149 c 0
 157.25 148 157.25 145 157.25 144 c 0
 157.25 143 158.25 143 158.25 142 c 2
 158.25 141 158.25 140 159.25 139 c 0
 160.25 138 l 0
 160.25 138 162.25 138 163.25 137 c 0
 164.25 137 l 2
 166.25 137 167.25 137 169.25 137 c 0
 170.25 137 170.25 138 171.25 138 c 0
 172.25 138 l 0
 173.25 139 174.25 138 175.25 139 c 0
 176.25 140 176.25 141 177.25 142 c 1
 178.25 142 l 0
 179.25 143 180.25 146 180.25 146 c 1
EndSplineSet
Validated: 33
EndChar

StartChar: registered
Encoding: 174 174 40
Width: 935
Flags: HW
LayerCount: 2
Fore
SplineSet
724.072265625 712 m 1
 943.072265625 619 928.072265625 333 888.072265625 141 c 0
 872.072265625 63 804.072265625 -34 712.072265625 9 c 0
 680.072265625 24 660.072265625 47 648.072265625 73 c 1
 640.072265625 54 629.072265625 37 613.072265625 24 c 0
 550.072265625 -26 481.072265625 34 458.072265625 93 c 0
 429.072265625 164 409.072265625 268 442.072265625 341 c 0
 474.072265625 411 548.072265625 410 614.072265625 395 c 1
 617.072265625 463 540.072265625 498 478.072265625 495 c 0
 426.072265625 493 374.072265625 474 332.072265625 444 c 0
 342.072265625 430 351.072265625 416 358.072265625 402 c 0
 387.072265625 348 406.072265625 290 415.072265625 230 c 0
 423.072265625 178 428.072265625 117 408.072265625 67 c 0
 393.072265625 28 356.072265625 -5 311.072265625 0 c 0
 279.072265625 4 256.072265625 21 238.072265625 44 c 1
 228.072265625 24 209.072265625 9 181.072265625 8 c 0
 120.072265625 5 89.072265625 56 71.072265625 106 c 1
 65.072265625 100 60.072265625 96 54.072265625 90 c 0
 39.072265625 76 13.072265625 94 25.072265625 112 c 0
 81.072265625 192 137.072265625 272 195.072265625 350 c 0
 222.072265625 386 250.072265625 421 283.072265625 451 c 0
 265.072265625 471 245.072265625 487 221.072265625 496 c 0
 192.072265625 507 153.072265625 505 131.072265625 482 c 1
 156.072265625 492 186.072265625 486 201.072265625 457 c 0
 220.072265625 419 191.072265625 379 151.072265625 376 c 0
 114.072265625 373 87.072265625 400 81.072265625 435 c 0
 75.072265625 477 101.072265625 515 140.072265625 531 c 0
 208.072265625 558 267.072265625 522 310.072265625 473 c 0
 325.072265625 484 342.072265625 494 360.072265625 502 c 0
 423.072265625 531 501.072265625 546 567.072265625 517 c 0
 626.072265625 491 663.072265625 430 648.072265625 367 c 0
 646.072265625 357 634.072265625 352 625.072265625 355 c 0
 568.072265625 371 493.072265625 383 471.072265625 311 c 0
 455.072265625 257 467.072265625 191 482.072265625 138 c 0
 490.072265625 108 502.072265625 74 529.072265625 55 c 0
 564.072265625 30 594.072265625 48 611.072265625 81 c 0
 621.072265625 100 629.072265625 121 635.072265625 142 c 0
 634.072265625 185 644.072265625 231 655.072265625 269 c 0
 661.072265625 289 693.072265625 285 692.072265625 264 c 0
 690.072265625 220 683.072265625 176 671.072265625 134 c 0
 672.072265625 116 676.072265625 99 686.072265625 82 c 0
 716.072265625 32 775.072265625 23 815.072265625 67 c 0
 854.072265625 110 858.072265625 178 865.072265625 232 c 0
 872.072265625 288 877.072265625 343 874.072265625 399 c 0
 868.072265625 500 830.072265625 610 737.072265625 664 c 0
 641.072265625 720 522.072265625 701 445.072265625 623 c 0
 428.072265625 606 401.072265625 632 418.072265625 649 c 0
 498.072265625 729 618.072265625 757 724.072265625 712 c 1
152.072265625 413 m 2
 176.072265625 420 170.072265625 429 133.072265625 440 c 0
 129.072265625 435 125.072265625 433 120.072265625 432 c 1
 121.072265625 430 121.072265625 428 122.072265625 427 c 0
 129.072265625 416 139.072265625 411 152.072265625 413 c 2
347.072265625 340 m 0
 336.072265625 366 323.072265625 395 305.072265625 422 c 1
 305.072265625 422 304.072265625 421 303.072265625 420 c 0
 255.072265625 376 219.072265625 320 181.072265625 268 c 0
 152.072265625 229 125.072265625 189 97.072265625 149 c 0
 98.072265625 148 99.072265625 146 99.072265625 145 c 0
 107.072265625 114 116.072265625 76 145.072265625 56 c 0
 180.072265625 32 228.072265625 57 205.072265625 101 c 0
 195.072265625 122 226.072265625 140 237.072265625 119 c 0
 252.072265625 87 271.072265625 44 311.072265625 37 c 0
 368.072265625 27 381.072265625 98 383.072265625 137 c 0
 387.072265625 206 373.072265625 276 347.072265625 340 c 0
EndSplineSet
Validated: 33
EndChar

StartChar: macron
Encoding: 175 175 41
Width: 935
Flags: HW
LayerCount: 2
Fore
SplineSet
908.384765625 330 m 2
 908.384765625 329 l 2
 915.384765625 263 913.384765625 197 899.384765625 132 c 0
 889.384765625 84 869.384765625 33 822.384765625 11 c 0
 762.384765625 -17 702.384765625 12 675.384765625 61 c 1
 665.384765625 43 651.384765625 27 631.384765625 16 c 0
 592.384765625 -5 547.384765625 6 517.384765625 38 c 0
 486.384765625 71 479.384765625 118 473.384765625 161 c 0
 467.384765625 205 465.384765625 254 493.384765625 292 c 0
 515.384765625 322 549.384765625 340 586.384765625 333 c 0
 604.384765625 330 626.384765625 322 626.384765625 347 c 0
 626.384765625 359 614.384765625 373 606.384765625 381 c 0
 589.384765625 398 568.384765625 411 545.384765625 418 c 0
 486.384765625 437 428.384765625 423 375.384765625 396 c 1
 393.384765625 376 407.384765625 354 418.384765625 332 c 0
 443.384765625 281 455.384765625 225 459.384765625 169 c 0
 463.384765625 121 458.384765625 68 422.384765625 32 c 0
 393.384765625 3 349.384765625 -9 312.384765625 13 c 0
 294.384765625 24 281.384765625 39 271.384765625 57 c 1
 255.384765625 24 221.384765625 0 180.384765625 4 c 0
 124.384765625 10 84.384765625 58 72.384765625 110 c 1
 64.384765625 100 57.384765625 90 49.384765625 80 c 0
 38.384765625 66 14.384765625 85 24.384765625 100 c 0
 86.384765625 194 161.384765625 277 248.384765625 348 c 0
 271.384765625 367 296.384765625 385 322.384765625 402 c 1
 297.384765625 422 267.384765625 436 235.384765625 441 c 0
 224.384765625 443 209.384765625 443 196.384765625 441 c 1
 208.384765625 436 219.384765625 427 226.384765625 413 c 0
 245.384765625 374 220.384765625 329 176.384765625 325 c 0
 136.384765625 322 107.384765625 361 111.384765625 399 c 0
 115.384765625 441 154.384765625 468 193.384765625 474 c 0
 251.384765625 483 307.384765625 459 351.384765625 420 c 0
 393.384765625 443 437.384765625 457 485.384765625 458 c 0
 551.384765625 459 645.384765625 424 658.384765625 351 c 0
 664.384765625 319 643.384765625 293 610.384765625 295 c 0
 582.384765625 297 562.384765625 309 536.384765625 291 c 0
 510.384765625 273 501.384765625 241 500.384765625 211 c 0
 499.384765625 163 507.384765625 92 543.384765625 57 c 0
 570.384765625 31 608.384765625 31 634.384765625 59 c 0
 649.384765625 75 656.384765625 96 660.384765625 117 c 0
 660.384765625 126 661.384765625 135 663.384765625 144 c 0
 667.384765625 162 695.384765625 158 694.384765625 140 c 0
 694.384765625 132 693.384765625 123 692.384765625 115 c 0
 692.384765625 40 793.384765625 0 841.384765625 70 c 0
 863.384765625 103 870.384765625 147 875.384765625 185 c 0
 880.384765625 225 881.384765625 266 878.384765625 306 c 0
 874.384765625 354 867.384765625 422 835.384765625 465 c 0
 835.384765625 466 834.384765625 465 834.384765625 466 c 0
 827.384765625 475 818.384765625 485 808.384765625 491 c 0
 752.384765625 526 681.384765625 507 620.384765625 504 c 0
 569.384765625 502 511.384765625 508 477.384765625 550 c 0
 445.384765625 591 465.384765625 635 501.384765625 665 c 0
 586.384765625 735 710.384765625 758 809.384765625 702 c 0
 884.384765625 659 957.384765625 537 870.384765625 471 c 0
 895.384765625 429 903.384765625 377 908.384765625 330 c 2
851.384765625 496 m 0
 923.384765625 548 842.384765625 646 788.384765625 676 c 0
 723.384765625 711 645.384765625 708 579.384765625 677 c 0
 552.384765625 664 517.384765625 646 500.384765625 620 c 0
 474.384765625 580 519.384765625 548 554.384765625 540 c 0
 613.384765625 526 674.384765625 545 734.384765625 542 c 0
 777.384765625 540 821.384765625 528 851.384765625 496 c 0
201.384765625 384 m 1
 200.384765625 384 l 1
 203.384765625 417 164.384765625 422 145.384765625 404 c 0
 145.384765625 403 144.384765625 403 144.384765625 403 c 0
 143.384765625 399 142.384765625 395 142.384765625 391 c 0
 143.384765625 355 197.384765625 345 201.384765625 384 c 1
390.384765625 316 m 1
 391.384765625 316 l 1
 380.384765625 339 365.384765625 361 347.384765625 380 c 0
 317.384765625 362 287.384765625 340 262.384765625 319 c 0
 202.384765625 269 148.384765625 213 100.384765625 152 c 1
 97.384765625 108 117.384765625 63 159.384765625 43 c 0
 207.384765625 20 259.384765625 60 246.384765625 112 c 0
 241.384765625 132 270.384765625 139 277.384765625 120 c 0
 287.384765625 92 301.384765625 57 328.384765625 41 c 0
 369.384765625 17 410.384765625 55 422.384765625 93 c 0
 443.384765625 161 420.384765625 254 390.384765625 316 c 1
EndSplineSet
Validated: 33
EndChar

StartChar: degree
Encoding: 176 176 42
Width: 898
Flags: HW
LayerCount: 2
Fore
SplineSet
867.326171875 324 m 2
 866.326171875 323 l 2
 881.326171875 224 887.326171875 83 792.326171875 17 c 0
 754.326171875 -9 703.326171875 -6 675.326171875 32 c 0
 666.326171875 44 660.326171875 59 654.326171875 74 c 1
 644.326171875 48 626.326171875 27 595.326171875 16 c 0
 533.326171875 -6 470.326171875 41 449.326171875 97 c 0
 423.326171875 165 436.326171875 269 477.326171875 329 c 0
 504.326171875 369 556.326171875 390 600.326171875 374 c 1
 594.326171875 429 548.326171875 476 489.326171875 477 c 0
 444.326171875 478 405.326171875 458 371.326171875 431 c 0
 394.326171875 393 408.326171875 350 414.326171875 308 c 0
 423.326171875 249 428.326171875 184 422.326171875 124 c 0
 418.326171875 83 402.326171875 40 365.326171875 17 c 0
 313.326171875 -16 256.326171875 2 226.326171875 42 c 1
 213.326171875 22 192.326171875 6 166.326171875 2 c 0
 120.326171875 -6 79.326171875 24 63.326171875 64 c 1
 59.326171875 60 56.326171875 57 52.326171875 53 c 0
 35.326171875 36 12.326171875 60 26.326171875 78 c 0
 88.326171875 155 151.326171875 232 214.326171875 309 c 0
 249.326171875 352 282.326171875 398 323.326171875 437 c 0
 317.326171875 444 310.326171875 452 302.326171875 459 c 0
 280.326171875 479 250.326171875 495 219.326171875 495 c 1
 237.326171875 486 250.326171875 469 248.326171875 444 c 0
 245.326171875 403 199.326171875 381 163.326171875 400 c 0
 133.326171875 416 124.326171875 450 135.326171875 479 c 0
 133.326171875 488 136.326171875 498 147.326171875 501 c 0
 148.326171875 501 148.326171875 501 149.326171875 501 c 0
 175.326171875 531 219.326171875 536 257.326171875 525 c 0
 296.326171875 514 326.326171875 490 350.326171875 461 c 0
 359.326171875 468 369.326171875 475 379.326171875 481 c 0
 437.326171875 516 514.326171875 528 572.326171875 487 c 0
 621.326171875 453 643.326171875 396 635.326171875 338 c 0
 633.326171875 324 613.326171875 322 604.326171875 330 c 0
 557.326171875 375 503.326171875 315 489.326171875 271 c 0
 475.326171875 227 468.326171875 174 478.326171875 129 c 0
 487.326171875 84 535.326171875 26 588.326171875 51 c 0
 640.326171875 75 630.326171875 147 624.326171875 192 c 0
 621.326171875 214 653.326171875 224 659.326171875 201 c 0
 670.326171875 159 679.326171875 116 694.326171875 76 c 0
 721.326171875 4 786.326171875 48 811.326171875 95 c 0
 856.326171875 178 839.326171875 277 823.326171875 365 c 0
 810.326171875 438 793.326171875 519 719.326171875 556 c 0
 682.326171875 574 641.326171875 577 602.326171875 566 c 0
 572.326171875 558 543.326171875 544 511.326171875 547 c 0
 460.326171875 552 432.326171875 603 447.326171875 650 c 0
 466.326171875 710 536.326171875 730 593.326171875 732 c 0
 661.326171875 735 749.326171875 733 812.326171875 705 c 0
 856.326171875 685 889.326171875 639 867.326171875 592 c 0
 853.326171875 561 824.326171875 545 793.326171875 544 c 1
 843.326171875 486 855.326171875 400 867.326171875 324 c 2
838.326171875 624 m 0
 838.326171875 647 817.326171875 663 798.326171875 672 c 0
 780.326171875 680 760.326171875 685 739.326171875 688 c 1
 739.326171875 685 739.326171875 682 738.326171875 678 c 0
 720.326171875 636 743.326171875 566 802.326171875 580 c 0
 821.326171875 585 838.326171875 604 838.326171875 624 c 0
569.326171875 594 m 1
 569.326171875 593 l 1
 614.326171875 608 658.326171875 613 703.326171875 600 c 1
 691.326171875 628 692.326171875 661 704.326171875 691 c 1
 696.326171875 692 689.326171875 692 681.326171875 693 c 0
 643.326171875 696 602.326171875 699 564.326171875 693 c 0
 526.326171875 687 476.326171875 666 480.326171875 620 c 0
 484.326171875 571 536.326171875 583 569.326171875 594 c 1
174.326171875 436 m 2
 204.326171875 427 215.326171875 433 209.326171875 456 c 0
 197.326171875 467 184.326171875 472 171.326171875 470 c 0
 163.326171875 460 161.326171875 448 174.326171875 436 c 2
378.326171875 306 m 0
 372.326171875 341 362.326171875 376 344.326171875 407 c 1
 336.326171875 399 329.326171875 392 322.326171875 384 c 0
 242.326171875 294 167.326171875 198 92.326171875 103 c 0
 92.326171875 102 92.326171875 102 92.326171875 101 c 0
 92.326171875 65 126.326171875 28 165.326171875 39 c 0
 188.326171875 45 202.326171875 65 206.326171875 87 c 0
 203.326171875 99 203.326171875 113 205.326171875 126 c 0
 208.326171875 145 235.326171875 142 240.326171875 126 c 0
 244.326171875 112 245.326171875 98 243.326171875 84 c 0
 252.326171875 56 279.326171875 35 312.326171875 37 c 0
 349.326171875 39 371.326171875 67 381.326171875 99 c 0
 391.326171875 131 387.326171875 165 386.326171875 198 c 0
 385.326171875 234 384.326171875 271 378.326171875 306 c 0
EndSplineSet
Validated: 33
EndChar

StartChar: plusminus
Encoding: 177 177 43
Width: 871
Flags: HW
LayerCount: 2
Fore
SplineSet
615.493164062 8 m 1
 614.493164062 8 l 1
 632.493164062 8 637.493164062 -13 628.493164062 -23 c 0
 614.493164062 -139 509.493164062 -224 391.493164062 -203 c 0
 346.493164062 -195 267.493164062 -163 280.493164062 -104 c 0
 286.493164062 -79 305.493164062 -56 329.493164062 -38 c 1
 258.493164062 -41 188.493164062 -28 122.493164062 2 c 0
 87.4931640625 18 49.4931640625 39 31.4931640625 74 c 0
 13.4931640625 109 23.4931640625 150 41.4931640625 183 c 0
 78.4931640625 253 146.493164062 306 221.493164062 331 c 0
 266.493164062 346 323.493164062 341 362.493164062 370 c 0
 419.493164062 412 364.493164062 476 314.493164062 489 c 0
 270.493164062 501 212.493164062 494 173.493164062 469 c 0
 169.493164062 466 165.493164062 464 161.493164062 460 c 1
 188.493164062 465 218.493164062 454 227.493164062 422 c 0
 241.493164062 374 192.493164062 331 146.493164062 351 c 0
 100.493164062 371 93.4931640625 426 118.493164062 465 c 0
 148.493164062 512 213.493164062 529 265.493164062 531 c 0
 316.493164062 533 372.493164062 516 403.493164062 473 c 0
 434.493164062 430 429.493164062 373 385.493164062 341 c 0
 335.493164062 304 266.493164062 312 210.493164062 288 c 0
 152.493164062 263 98.4931640625 216 70.4931640625 159 c 0
 47.4931640625 112 63.4931640625 76 106.493164062 51 c 0
 137.493164062 33 171.493164062 20 206.493164062 11 c 0
 277.493164062 -7 350.493164062 -6 421.493164062 12 c 0
 444.493164062 18 452.493164062 -15 431.493164062 -23 c 0
 403.493164062 -34 292.493164062 -87 324.493164062 -133 c 0
 345.493164062 -163 406.493164062 -171 439.493164062 -169 c 0
 521.493164062 -164 585.493164062 -97 592.493164062 -16 c 0
 592.493164062 -11 595.493164062 -7 598.493164062 -4 c 0
 600.493164062 3 606.493164062 8 615.493164062 8 c 1
191.493164062 412 m 0
 184.493164062 430 159.493164062 427 150.493164062 414 c 0
 148.493164062 411 145.493164062 409 142.493164062 408 c 0
 145.493164062 397 151.493164062 386 163.493164062 383 c 0
 179.493164062 379 197.493164062 395 191.493164062 412 c 0
824.493164062 48 m 0
 847.493164062 52 857.493164062 17 834.493164062 13 c 0
 708.493164062 -12 495.493164062 15 487.493164062 181 c 0
 483.493164062 258 530.493164062 327 578.493164062 383 c 0
 609.493164062 419 644.493164062 449 682.493164062 477 c 1
 504.493164062 449 l 2
 494.493164062 448 484.493164062 450 481.493164062 461 c 0
 479.493164062 470 484.493164062 483 494.493164062 484 c 0
 580.493164062 498 666.493164062 512 752.493164062 526 c 0
 755.493164062 526 757.493164062 526 759.493164062 526 c 0
 778.493164062 532 793.493164062 504 774.493164062 493 c 0
 717.493164062 462 664.493164062 423 620.493164062 375 c 0
 577.493164062 329 531.493164062 271 524.493164062 206 c 0
 507.493164062 51 714.493164062 26 824.493164062 48 c 0
EndSplineSet
Validated: 37
EndChar

StartChar: acute
Encoding: 180 180 44
Width: 666
Flags: HW
LayerCount: 2
Fore
SplineSet
635.823242188 481 m 1
 635.823242188 482 l 1
 621.823242188 465 597.823242188 490 611.823242188 507 c 0
 652.823242188 556 609.823242188 617 570.823242188 649 c 0
 533.823242188 679 488.823242188 698 441.823242188 700 c 0
 391.823242188 702 347.823242188 687 310.823242188 660 c 1
 342.823242188 657 373.823242188 653 404.823242188 645 c 0
 472.823242188 627 535.823242188 591 573.823242188 528 c 0
 651.823242188 399 648.823242188 202 553.823242188 83 c 0
 512.823242188 31 449.823242188 -11 381.823242188 4 c 0
 352.823242188 10 327.823242188 29 312.823242188 53 c 1
 275.823242188 7 201.823242188 -6 144.823242188 22 c 0
 65.8232421875 61 14.8232421875 156 22.8232421875 245 c 0
 29.8232421875 327 90.8232421875 398 171.823242188 408 c 0
 197.823242188 412 238.823242188 409 254.823242188 382 c 1
 265.823242188 399 282.823242188 413 302.823242188 417 c 0
 349.823242188 427 396.823242188 393 410.823242188 348 c 0
 445.823242188 237 300.823242188 170 227.823242188 248 c 0
 211.823242188 265 201.823242188 288 202.823242188 312 c 0
 203.823242188 323 206.823242188 332 212.823242188 341 c 0
 220.823242188 355 234.823242188 367 208.823242188 373 c 0
 141.823242188 389 74.8232421875 329 59.8232421875 266 c 0
 42.8232421875 193 76.8232421875 111 134.823242188 68 c 0
 185.823242188 29 274.823242188 33 297.823242188 94 c 0
 295.823242188 109 297.823242188 124 303.823242188 140 c 0
 310.823242188 158 334.823242188 155 336.823242188 135 c 0
 337.823242188 119 336.823242188 105 332.823242188 92 c 0
 337.823242188 65 360.823242188 43 390.823242188 37 c 0
 434.823242188 28 477.823242188 52 508.823242188 83 c 0
 564.823242188 138 590.823242188 219 592.823242188 297 c 0
 594.823242188 368 580.823242188 448 543.823242188 509 c 0
 505.823242188 572 439.823242188 604 370.823242188 617 c 0
 338.823242188 623 305.823242188 626 273.823242188 628 c 0
 256.823242188 610 241.823242188 589 228.823242188 566 c 0
 203.823242188 520 139.823242188 468 98.8232421875 529 c 0
 64.8232421875 579 102.823242188 637 151.823242188 655 c 0
 185.823242188 668 222.823242188 666 258.823242188 664 c 0
 327.823242188 729 426.823242188 751 516.823242188 718 c 0
 601.823242188 686 714.823242188 575 635.823242188 481 c 1
284.823242188 350 m 0
 283.823242188 349 281.823242188 348 280.823242188 347 c 1
 283.823242188 344 288.823242188 341 294.823242188 337 c 0
 308.823242188 321 316.823242188 323 318.823242188 343 c 2
 308.823242188 351 l 2
 299.823242188 358 293.823242188 360 284.823242188 350 c 0
246.823242188 329 m 1
 231.823242188 304 239.823242188 278 264.823242188 260 c 0
 313.823242188 226 394.823242188 261 380.823242188 329 c 0
 375.823242188 353 355.823242188 376 331.823242188 382 c 1
 344.823242188 373 354.823242188 356 351.823242188 335 c 0
 344.823242188 286 284.823242188 271 255.823242188 311 c 0
 251.823242188 317 248.823242188 323 246.823242188 329 c 1
181.823242188 555 m 2
 200.823242188 577 211.823242188 607 228.823242188 630 c 1
 200.823242188 631 171.823242188 630 147.823242188 615 c 0
 128.823242188 603 113.823242188 580 121.823242188 557 c 0
 131.823242188 526 165.823242188 536 181.823242188 555 c 2
EndSplineSet
EndChar

StartChar: mu
Encoding: 181 181 45
Width: 943
Flags: HW
LayerCount: 2
Fore
SplineSet
524.373046875 -35 m 2
 523.373046875 -34 l 2
 530.373046875 -12 564.373046875 -22 557.373046875 -44 c 0
 523.373046875 -152 400.373046875 -240 290.373046875 -190 c 0
 239.373046875 -167 203.373046875 -109 220.373046875 -52 c 0
 225.373046875 -34 234.373046875 -19 246.373046875 -7 c 1
 181.373046875 -7 118.373046875 7 69.373046875 56 c 0
 8.373046875 116 8.373046875 207 57.373046875 274 c 0
 82.373046875 309 118.373046875 332 157.373046875 347 c 0
 204.373046875 365 250.373046875 362 299.373046875 365 c 0
 350.373046875 368 329.373046875 417 311.373046875 442 c 0
 295.373046875 465 272.373046875 484 246.373046875 492 c 0
 230.373046875 497 209.373046875 496 192.373046875 489 c 1
 216.373046875 487 236.373046875 474 242.373046875 444 c 0
 250.373046875 400 204.373046875 367 166.373046875 384 c 0
 143.373046875 394 130.373046875 417 128.373046875 440 c 0
 116.373046875 445 109.373046875 465 124.373046875 473 c 0
 127.373046875 474 130.373046875 476 133.373046875 477 c 0
 135.373046875 481 137.373046875 485 139.373046875 489 c 0
 163.373046875 528 215.373046875 538 256.373046875 526 c 0
 298.373046875 513 334.373046875 479 354.373046875 439 c 0
 371.373046875 403 376.373046875 354 334.373046875 335 c 0
 310.373046875 324 282.373046875 329 257.373046875 328 c 0
 230.373046875 327 203.373046875 323 177.373046875 315 c 0
 119.373046875 296 67.373046875 250 57.373046875 186 c 0
 47.373046875 120 94.373046875 67 150.373046875 44 c 0
 207.373046875 21 270.373046875 26 330.373046875 33 c 0
 337.373046875 34 345.373046875 34 352.373046875 35 c 0
 375.373046875 36 374.373046875 2 352.373046875 -1 c 0
 305.373046875 -4 247.373046875 -29 251.373046875 -87 c 0
 255.373046875 -139 308.373046875 -167 353.373046875 -167 c 0
 431.373046875 -168 500.373046875 -110 524.373046875 -35 c 2
199.373046875 418 m 0
 204.373046875 449 193.373046875 461 168.373046875 453 c 0
 166.373046875 452 165.373046875 452 163.373046875 451 c 0
 163.373046875 434 176.373046875 402 199.373046875 418 c 0
876.373046875 383 m 1
 912.373046875 351 923.373046875 299 919.373046875 252 c 0
 913.373046875 193 892.373046875 126 855.373046875 79 c 0
 816.373046875 30 757.373046875 13 696.373046875 29 c 0
 652.373046875 41 611.373046875 70 567.373046875 86 c 0
 553.373046875 70 539.373046875 55 523.373046875 42 c 0
 499.373046875 22 464.373046875 -9 430.373046875 2 c 0
 400.373046875 12 395.373046875 47 406.373046875 72 c 0
 432.373046875 131 495.373046875 138 552.373046875 126 c 0
 582.373046875 164 607.373046875 206 630.373046875 248 c 0
 661.373046875 304 700.373046875 383 679.373046875 449 c 0
 650.373046875 538 545.373046875 415 522.373046875 379 c 0
 509.373046875 359 477.373046875 378 490.373046875 398 c 0
 525.373046875 454 626.373046875 569 695.373046875 494 c 0
 701.373046875 488 705.373046875 481 709.373046875 474 c 1
 743.373046875 528 817.373046875 552 871.373046875 509 c 0
 913.373046875 476 912.373046875 415 876.373046875 383 c 1
731.373046875 433 m 1
 727.373046875 421 727.373046875 403 745.373046875 402 c 0
 753.373046875 401 763.373046875 407 771.373046875 409 c 0
 795.373046875 415 819.373046875 413 842.373046875 404 c 0
 868.373046875 417 875.373046875 452 855.373046875 475 c 0
 832.373046875 501 791.373046875 500 764.373046875 480 c 0
 748.373046875 469 736.373046875 451 731.373046875 433 c 1
523.373046875 92 m 1
 524.373046875 93 525.373046875 94 526.373046875 95 c 1
 518.373046875 96 509.373046875 96 500.373046875 95 c 0
 484.373046875 93 468.373046875 88 456.373046875 77 c 0
 448.373046875 70 422.373046875 39 450.373046875 38 c 0
 461.373046875 38 480.373046875 54 488.373046875 60 c 0
 501.373046875 70 512.373046875 81 523.373046875 92 c 1
846.373046875 133 m 1
 846.373046875 132 l 1
 876.373046875 193 915.373046875 321 840.373046875 365 c 0
 832.373046875 364 826.373046875 367 822.373046875 372 c 0
 787.373046875 383 750.373046875 353 717.373046875 372 c 1
 709.373046875 324 689.373046875 279 666.373046875 237 c 0
 643.373046875 196 620.373046875 153 591.373046875 115 c 1
 596.373046875 113 601.373046875 111 605.373046875 109 c 0
 647.373046875 90 689.373046875 62 737.373046875 59 c 0
 788.373046875 56 824.373046875 90 846.373046875 133 c 1
EndSplineSet
Validated: 33
EndChar

StartChar: threequarters
Encoding: 190 190 46
Width: 457
Flags: HW
LayerCount: 2
Fore
SplineSet
404.05859375 339.475585938 m 1
 404.350585938 340.060546875 l 1
 448.821289062 243.51171875 459.646484375 114.1953125 366.609375 41.6376953125 c 0
 280.885742188 -25.068359375 155.958007812 -7.2216796875 83.9853515625 70.6025390625 c 0
 -1.4453125 163.0546875 7.0390625 294.126953125 62.3349609375 399.16015625 c 0
 67.015625 408.229492188 72.5751953125 416.713867188 77.8408203125 425.19921875 c 0
 77.255859375 426.954101562 76.9638671875 429.001953125 76.9638671875 431.635742188 c 0
 79.5966796875 477.861328125 80.7666015625 524.087890625 80.181640625 570.314453125 c 0
 79.888671875 587.576171875 79.3037109375 605.129882812 78.71875 622.684570312 c 0
 61.45703125 628.828125 44.7802734375 636.727539062 32.78515625 651.356445312 c 0
 19.619140625 667.448242188 15.81640625 688.805664062 25.1787109375 707.823242188 c 0
 33.6630859375 725.376953125 52.6796875 737.080078125 72.8671875 732.106445312 c 0
 95.98046875 726.254882812 108.268554688 704.897460938 111.779296875 683.247070312 c 0
 113.53515625 672.12890625 114.412109375 660.426757812 114.998046875 649.015625 c 0
 147.765625 638.190429688 182.874023438 616.833007812 179.071289062 577.920898438 c 0
 177.022460938 555.100585938 140.451171875 554.807617188 142.499023438 577.920898438 c 0
 144.254882812 595.475585938 131.088867188 604.544921875 116.16796875 610.689453125 c 1
 116.16796875 608.055664062 116.16796875 605.715820312 116.16796875 603.375 c 0
 117.337890625 562.122070312 116.752929688 520.870117188 115.290039062 479.6171875 c 1
 135.185546875 505.36328125 156.25 530.232421875 177.608398438 554.515625 c 0
 226.759765625 610.981445312 276.497070312 667.155273438 325.94140625 723.622070312 c 0
 341.155273438 741.17578125 366.901367188 715.72265625 351.6875 698.16796875 c 0
 303.4140625 643.165039062 255.139648438 588.454101562 207.157226562 533.450195312 c 0
 181.99609375 504.778320312 157.127929688 475.521484375 134.599609375 444.508789062 c 1
 184.336914062 462.6484375 236.415039062 474.350585938 288.200195312 457.088867188 c 0
 343.203125 438.657226562 380.65234375 389.797851562 404.05859375 339.475585938 c 1
58.82421875 676.225585938 m 1
 58.53125 676.225585938 l 1
 62.919921875 669.203125 69.94140625 664.522460938 77.8408203125 661.01171875 c 1
 77.548828125 673.884765625 76.0859375 686.7578125 68.771484375 693.779296875 c 0
 57.6533203125 704.311523438 54.435546875 683.5390625 58.82421875 676.225585938 c 1
355.784179688 79.671875 m 2
 356.076171875 79.671875 l 2
 403.180664062 125.020507812 408.739257812 192.604492188 395.573242188 252.874023438 c 0
 383.87109375 306.415039062 359.294921875 365.806640625 315.116210938 401.500976562 c 0
 252.213867188 452.408203125 172.341796875 422.2734375 106.805664062 394.478515625 c 0
 105.049804688 393.893554688 103.294921875 393.6015625 101.83203125 393.6015625 c 0
 99.19921875 389.212890625 96.2734375 384.82421875 93.9326171875 380.435546875 c 0
 32.78515625 264.577148438 42.4404296875 95.470703125 186.384765625 45.1484375 c 0
 244.606445312 24.9609375 311.020507812 36.6640625 355.784179688 79.671875 c 2
EndSplineSet
EndChar

StartChar: questiondown
Encoding: 191 191 47
Width: 724
Flags: HW
LayerCount: 2
Fore
SplineSet
697.631835938 411 m 2
 704.631835938 351 702.631835938 291 682.631835938 234 c 0
 647.631835938 133 567.631835938 53 465.631835938 18 c 0
 372.631835938 -14 253.631835938 -8 181.631835938 66 c 0
 120.631835938 129 98.6318359375 232 142.631835938 310 c 0
 158.631835938 339 183.631835938 360 213.631835938 370 c 1
 204.631835938 368 195.631835938 368 185.631835938 370 c 0
 143.631835938 380 126.631835938 425 139.631835938 463 c 1
 116.631835938 449 100.631835938 427 89.6318359375 403 c 0
 35.6318359375 290 49.6318359375 154 113.631835938 49 c 0
 125.631835938 30 95.6318359375 12 83.6318359375 31 c 0
 16.6318359375 142 1.6318359375 282 51.6318359375 403 c 0
 72.6318359375 454 110.631835938 505 169.631835938 511 c 0
 172.631835938 511 175.631835938 511 178.631835938 511 c 0
 240.631835938 549 346.631835938 522 376.631835938 456 c 0
 391.631835938 422 385.631835938 377 354.631835938 354 c 0
 303.631835938 316 235.631835938 366 188.631835938 313 c 0
 147.631835938 267 147.631835938 196 172.631835938 142 c 0
 198.631835938 86 248.631835938 50 309.631835938 39 c 0
 426.631835938 18 545.631835938 76 611.631835938 171 c 0
 520.631835938 238 453.631835938 330 416.631835938 436 c 0
 398.631835938 489 387.631835938 546 386.631835938 602 c 0
 385.631835938 646 384.631835938 704 431.631835938 726 c 0
 475.631835938 746 522.631835938 720 560.631835938 697 c 0
 607.631835938 669 642.631835938 637 661.631835938 585 c 0
 681.631835938 530 690.631835938 469 697.631835938 411 c 2
169.631835938 435 m 0
 171.631835938 410 198.631835938 397 217.631835938 413 c 0
 238.631835938 431 222.631835938 461 202.631835938 471 c 0
 198.631835938 473 193.631835938 474 189.631835938 475 c 0
 177.631835938 465 168.631835938 451 169.631835938 435 c 0
262.631835938 432 m 2
 261.631835938 405 242.631835938 381 218.631835938 372 c 1
 229.631835938 375 240.631835938 377 252.631835938 377 c 0
 284.631835938 377 332.631835938 362 347.631835938 401 c 0
 359.631835938 433 334.631835938 463 307.631835938 477 c 0
 286.631835938 488 259.631835938 495 233.631835938 492 c 1
 251.631835938 478 263.631835938 457 262.631835938 432 c 2
637.631835938 216 m 2
 638.631835938 216 l 2
 670.631835938 285 671.631835938 359 659.631835938 433 c 0
 649.631835938 494 642.631835938 573 601.631835938 622 c 0
 571.631835938 657 445.631835938 747 425.631835938 664 c 0
 411.631835938 608 423.631835938 536 438.631835938 481 c 0
 468.631835938 369 537.631835938 270 630.631835938 201 c 1
 633.631835938 206 635.631835938 211 637.631835938 216 c 2
EndSplineSet
Validated: 33
EndChar

StartChar: Agrave
Encoding: 192 192 48
Width: 640
Flags: HW
LayerCount: 2
Fore
SplineSet
474.830078125 541 m 1
 474.830078125 542 l 1
 563.830078125 495 605.830078125 394 609.830078125 297 c 0
 611.830078125 240 602.830078125 181 584.830078125 126 c 0
 570.830078125 81 545.830078125 35 501.830078125 13 c 0
 461.830078125 -7 413.830078125 -3 381.830078125 30 c 0
 365.830078125 47 356.830078125 68 350.830078125 90 c 1
 328.830078125 46 295.830078125 10 241.830078125 6 c 0
 167.830078125 1 98.830078125 65 61.830078125 123 c 0
 22.830078125 185 10.830078125 265 40.830078125 333 c 0
 70.830078125 401 140.830078125 448 215.830078125 443 c 0
 238.830078125 442 238.830078125 406 215.830078125 407 c 0
 153.830078125 411 97.830078125 374 73.830078125 317 c 0
 50.830078125 262 58.830078125 199 88.830078125 148 c 0
 116.830078125 100 173.830078125 42 233.830078125 42 c 0
 303.830078125 42 327.830078125 122 343.830078125 176 c 0
 349.830078125 196 379.830078125 192 379.830078125 171 c 0
 379.830078125 128 378.830078125 69 420.830078125 44 c 0
 462.830078125 19 509.830078125 55 530.830078125 90 c 0
 550.830078125 123 558.830078125 163 565.830078125 201 c 0
 567.830078125 211 569.830078125 221 570.830078125 231 c 1
 454.830078125 223 338.830078125 295 308.830078125 410 c 0
 300.830078125 442 301.830078125 478 315.830078125 507 c 1
 275.830078125 506 235.830078125 521 210.830078125 554 c 0
 183.830078125 590 180.830078125 642 208.830078125 678 c 0
 240.830078125 719 303.830078125 731 352.830078125 733 c 0
 459.830078125 737 559.830078125 678 608.830078125 584 c 0
 619.830078125 563 587.830078125 544 576.830078125 565 c 0
 526.830078125 660 418.830078125 715 312.830078125 692 c 0
 264.830078125 682 210.830078125 654 229.830078125 596 c 0
 245.830078125 547 302.830078125 535 347.830078125 548 c 0
 349.830078125 549 352.830078125 548 354.830078125 548 c 0
 391.830078125 569 437.830078125 561 474.830078125 541 c 1
371.830078125 361 m 1
 371.830078125 362 l 1
 416.830078125 295 493.830078125 261 573.830078125 268 c 0
 574.830078125 292 573.830078125 316 569.830078125 339 c 0
 556.830078125 409 518.830078125 479 452.830078125 512 c 0
 411.830078125 533 359.830078125 529 343.830078125 480 c 0
 330.830078125 440 349.830078125 394 371.830078125 361 c 1
EndSplineSet
EndChar

StartChar: Aacute
Encoding: 193 193 49
Width: 622
Flags: HW
LayerCount: 2
Fore
SplineSet
598.0859375 258 m 1
 600.0859375 168 577.0859375 55 480.0859375 20 c 0
 429.0859375 2 369.0859375 21 340.0859375 60 c 1
 312.0859375 21 261.0859375 -2 209.0859375 1 c 0
 128.0859375 6 61.0859375 63 36.0859375 137 c 0
 11.0859375 210 25.0859375 296 76.0859375 355 c 0
 128.0859375 414 217.0859375 433 287.0859375 394 c 0
 307.0859375 383 289.0859375 353 269.0859375 364 c 0
 213.0859375 396 143.0859375 378 102.0859375 331 c 0
 63.0859375 286 50.0859375 220 65.0859375 163 c 0
 81.0859375 102 129.0859375 50 193.0859375 38 c 0
 248.0859375 27 308.0859375 55 324.0859375 106 c 0
 323.0859375 118 324.0859375 130 328.0859375 143 c 0
 334.0859375 162 362.0859375 158 363.0859375 138 c 0
 364.0859375 126 362.0859375 116 360.0859375 105 c 0
 365.0859375 72 397.0859375 47 434.0859375 47 c 0
 481.0859375 47 518.0859375 81 538.0859375 121 c 0
 549.0859375 144 556.0859375 168 560.0859375 194 c 1
 507.0859375 195 464.0859375 226 429.0859375 264 c 0
 392.0859375 304 354.0859375 352 344.0859375 406 c 0
 340.0859375 430 341.0859375 455 349.0859375 477 c 1
 300.0859375 467 249.0859375 460 202.0859375 478 c 0
 159.0859375 495 128.0859375 529 124.0859375 575 c 0
 117.0859375 671 213.0859375 723 297.0859375 731 c 0
 378.0859375 739 492.0859375 730 528.0859375 645 c 0
 543.0859375 608 537.0859375 565 505.0859375 539 c 0
 502.0859375 536 499.0859375 534 495.0859375 532 c 1
 536.0859375 506 555.0859375 458 570.0859375 415 c 0
 587.0859375 365 597.0859375 311 598.0859375 258 c 1
500.0859375 614 m 1
 496.0859375 642 476.0859375 664 452.0859375 677 c 1
 451.0859375 672 448.0859375 668 441.0859375 667 c 0
 410.0859375 662 384.0859375 634 388.0859375 602 c 0
 392.0859375 573 423.0859375 550 452.0859375 553 c 0
 483.0859375 556 505.0859375 584 500.0859375 614 c 1
171.0859375 543 m 1
 171.0859375 544 l 1
 212.0859375 484 300.0859375 502 359.0859375 515 c 0
 363.0859375 516 367.0859375 515 370.0859375 514 c 0
 374.0859375 518 378.0859375 522 382.0859375 526 c 0
 386.0859375 529 390.0859375 531 394.0859375 534 c 1
 364.0859375 554 347.0859375 590 354.0859375 626 c 0
 360.0859375 655 379.0859375 680 405.0859375 693 c 1
 388.0859375 696 372.0859375 696 355.0859375 697 c 0
 318.0859375 698 279.0859375 697 244.0859375 685 c 0
 189.0859375 666 132.0859375 602 171.0859375 543 c 1
448.0859375 296 m 2
 449.0859375 296 l 2
 479.0859375 261 516.0859375 230 564.0859375 229 c 0
 566.0859375 288 554.0859375 350 537.0859375 401 c 0
 524.0859375 442 504.0859375 499 456.0859375 511 c 0
 397.0859375 525 370.0859375 456 379.0859375 411 c 0
 388.0859375 367 419.0859375 329 448.0859375 296 c 2
EndSplineSet
Validated: 33
EndChar

StartChar: Acircumflex
Encoding: 194 194 50
Width: 579
Flags: HW
LayerCount: 2
Fore
SplineSet
549.19921875 670 m 2
 499.19921875 624 448.19921875 578 398.19921875 532 c 0
 391.19921875 526 383.19921875 518 375.19921875 511 c 1
 387.19921875 511 400.19921875 510 411.19921875 506 c 0
 477.19921875 485 503.19921875 413 478.19921875 358 c 0
 504.19921875 338 525.19921875 311 536.19921875 281 c 0
 592.19921875 126 436.19921875 0 290.19921875 2 c 0
 156.19921875 4 -30.80078125 102 39.19921875 260 c 0
 69.19921875 327 132.19921875 358 201.19921875 371 c 0
 232.19921875 377 264.19921875 391 247.19921875 428 c 0
 238.19921875 448 216.19921875 462 194.19921875 466 c 1
 211.19921875 454 221.19921875 436 218.19921875 411 c 0
 213.19921875 371 165.19921875 352 131.19921875 373 c 0
 99.19921875 393 95.19921875 433 112.19921875 463 c 0
 111.19921875 471 114.19921875 478 124.19921875 480 c 0
 125.19921875 480 126.19921875 480 127.19921875 480 c 1
 166.19921875 513 225.19921875 502 260.19921875 468 c 0
 265.19921875 463 269.19921875 457 273.19921875 451 c 1
 278.19921875 459 284.19921875 467 290.19921875 474 c 0
 291.19921875 475 292.19921875 475 293.19921875 476 c 1
 290.19921875 476 287.19921875 476 285.19921875 477 c 0
 243.19921875 484 226.19921875 525 234.19921875 563 c 0
 243.19921875 609 278.19921875 652 315.19921875 680 c 0
 350.19921875 707 394.19921875 727 438.19921875 731 c 0
 470.19921875 734 510.19921875 720 516.19921875 686 c 1
 519.19921875 689 522.19921875 691 525.19921875 694 c 0
 542.19921875 708 565.19921875 685 549.19921875 670 c 2
138.19921875 416 m 2
 146.19921875 395 183.19921875 388 184.19921875 420 c 0
 185.19921875 442 163.19921875 449 144.19921875 449 c 0
 137.19921875 440 133.19921875 429 138.19921875 416 c 2
465.19921875 696 m 0
 445.19921875 705 408.19921875 693 386.19921875 683 c 0
 387.19921875 682 386.19921875 680 386.19921875 678 c 0
 383.19921875 647 417.19921875 646 437.19921875 648 c 0
 451.19921875 649 514.19921875 673 465.19921875 696 c 0
268.19921875 532 m 1
 268.19921875 533 l 1
 277.19921875 505 306.19921875 506 327.19921875 517 c 0
 336.19921875 521 344.19921875 528 352.19921875 535 c 0
 361.19921875 544 371.19921875 554 380.19921875 563 c 0
 397.19921875 580 415.19921875 596 433.19921875 613 c 1
 395.19921875 612 358.19921875 629 353.19921875 665 c 1
 322.19921875 645 295.19921875 618 278.19921875 585 c 0
 270.19921875 570 262.19921875 549 268.19921875 532 c 1
511.19921875 205 m 1
 512.19921875 204 l 1
 517.19921875 252 497.19921875 300 460.19921875 329 c 0
 454.19921875 323 447.19921875 316 439.19921875 311 c 0
 402.19921875 288 355.19921875 292 321.19921875 317 c 0
 303.19921875 330 292.19921875 347 286.19921875 366 c 0
 284.19921875 367 283.19921875 369 281.19921875 370 c 0
 279.19921875 371 278.19921875 373 277.19921875 374 c 1
 275.19921875 371 272.19921875 368 270.19921875 365 c 0
 239.19921875 329 178.19921875 338 138.19921875 317 c 0
 79.19921875 286 42.19921875 217 67.19921875 152 c 0
 89.19921875 96 151.19921875 65 206.19921875 49 c 0
 328.19921875 14 497.19921875 59 511.19921875 205 c 1
333.19921875 353 m 1
 345.19921875 338 362.19921875 329 387.19921875 330 c 0
 405.19921875 331 419.19921875 337 430.19921875 347 c 1
 428.19921875 348 426.19921875 349 424.19921875 350 c 0
 396.19921875 361 363.19921875 353 333.19921875 353 c 1
434.19921875 453 m 2
 409.19921875 480 370.19921875 484 339.19921875 469 c 0
 334.19921875 461 329.19921875 453 325.19921875 445 c 0
 317.19921875 428 315.19921875 409 317.19921875 392 c 0
 323.19921875 389 331.19921875 387 340.19921875 388 c 0
 358.19921875 389 374.19921875 393 392.19921875 392 c 0
 412.19921875 391 431.19921875 384 449.19921875 376 c 1
 458.19921875 401 454.19921875 432 434.19921875 453 c 2
EndSplineSet
Validated: 33
EndChar

StartChar: Atilde
Encoding: 195 195 51
Width: 750
Flags: HW
LayerCount: 2
Fore
SplineSet
723.287109375 35 m 1
 730.287109375 24 723.287109375 14 713.287109375 11 c 0
 711.287109375 5 706.287109375 1 698.287109375 2 c 0
 480.287109375 16 261.287109375 16 43.287109375 0 c 0
 35.287109375 0 30.287109375 3 28.287109375 8 c 0
 23.287109375 13 22.287109375 20 27.287109375 28 c 0
 140.287109375 193 252.287109375 357 365.287109375 522 c 0
 376.287109375 539 402.287109375 525 397.287109375 508 c 0
 506.287109375 350 614.287109375 193 723.287109375 35 c 1
EndSplineSet
Validated: 33
EndChar

StartChar: Adieresis
Encoding: 196 196 52
Width: 631
Flags: HW
LayerCount: 2
Fore
SplineSet
563.736328125 490 m 2
 563.736328125 489 l 2
 603.736328125 426 612.736328125 354 603.736328125 282 c 0
 595.736328125 212 575.736328125 137 529.736328125 80 c 0
 490.736328125 31 426.736328125 -5 359.736328125 3 c 0
 319.736328125 8 282.736328125 32 271.736328125 65 c 1
 260.736328125 54 250.736328125 44 240.736328125 34 c 0
 192.736328125 -14 141.736328125 -58 86.736328125 -99 c 0
 69.736328125 -112 45.736328125 -89 62.736328125 -76 c 0
 107.736328125 -43 149.736328125 -6 190.736328125 32 c 1
 184.736328125 31 179.736328125 30 173.736328125 30 c 0
 142.736328125 29 109.736328125 34 84.736328125 52 c 0
 61.736328125 69 48.736328125 95 39.736328125 120 c 0
 1.736328125 229 60.736328125 365 190.736328125 382 c 0
 246.736328125 389 305.736328125 370 341.736328125 327 c 0
 375.736328125 286 384.736328125 230 361.736328125 182 c 0
 347.736328125 153 327.736328125 126 304.736328125 100 c 0
 291.736328125 53 347.736328125 32 388.736328125 36 c 0
 425.736328125 39 459.736328125 57 485.736328125 82 c 0
 535.736328125 129 555.736328125 198 566.736328125 263 c 0
 587.736328125 388 545.736328125 502 430.736328125 572 c 0
 379.736328125 603 311.736328125 626 245.736328125 629 c 0
 208.736328125 582 179.736328125 525 117.736328125 504 c 0
 69.736328125 488 0.736328125 516 31.736328125 572 c 0
 62.736328125 628 144.736328125 654 205.736328125 660 c 0
 213.736328125 661 221.736328125 661 229.736328125 661 c 0
 252.736328125 688 278.736328125 709 314.736328125 721 c 0
 410.736328125 752 511.736328125 696 534.736328125 604 c 0
 539.736328125 584 506.736328125 576 501.736328125 596 c 0
 477.736328125 691 355.736328125 732 276.736328125 664 c 0
 275.736328125 663 273.736328125 660 272.736328125 659 c 1
 388.736328125 648 504.736328125 583 563.736328125 490 c 2
153.736328125 566 m 2
 172.736328125 585 187.736328125 607 203.736328125 629 c 1
 154.736328125 624 108.736328125 606 73.736328125 571 c 0
 61.736328125 564 59.736328125 556 68.736328125 545 c 0
 67.736328125 532 73.736328125 527 85.736328125 531 c 0
 96.736328125 529 107.736328125 534 116.736328125 538 c 0
 130.736328125 545 142.736328125 555 153.736328125 566 c 2
231.736328125 351 m 2
 161.736328125 359 105.736328125 318 78.736328125 264 c 1
 113.736328125 281 157.736328125 282 194.736328125 265 c 0
 239.736328125 245 284.736328125 194 293.736328125 143 c 1
 296.736328125 146 299.736328125 149 302.736328125 152 c 0
 331.736328125 188 350.736328125 229 333.736328125 274 c 0
 317.736328125 316 278.736328125 346 231.736328125 351 c 2
261.736328125 113 m 2
 270.736328125 156 224.736328125 212 187.736328125 232 c 0
 143.736328125 256 84.736328125 249 62.736328125 202 c 0
 61.736328125 201 61.736328125 201 61.736328125 200 c 0
 61.736328125 193 61.736328125 188 61.736328125 181 c 0
 64.736328125 134 82.736328125 75 138.736328125 65 c 0
 168.736328125 60 213.736328125 63 240.736328125 83 c 0
 245.736328125 88 250.736328125 93 255.736328125 98 c 0
 258.736328125 102 260.736328125 107 261.736328125 113 c 2
EndSplineSet
Validated: 33
EndChar

StartChar: Aring
Encoding: 197 197 53
Width: 666
Flags: HW
LayerCount: 2
Fore
SplineSet
635.537109375 322 m 2
 636.537109375 322 l 2
 658.537109375 211 613.537109375 94 512.537109375 37 c 0
 439.537109375 -5 320.537109375 -16 256.537109375 47 c 0
 191.537109375 -3 119.537109375 -46 48.537109375 -82 c 0
 29.537109375 -91 13.537109375 -62 32.537109375 -53 c 0
 86.537109375 -26 137.537109375 4 186.537109375 38 c 1
 173.537109375 34 159.537109375 34 145.537109375 35 c 0
 85.537109375 42 47.537109375 95 36.537109375 151 c 0
 25.537109375 211 41.537109375 272 83.537109375 317 c 0
 125.537109375 363 185.537109375 382 246.537109375 380 c 0
 304.537109375 378 376.537109375 370 411.537109375 318 c 0
 447.537109375 264 415.537109375 198 376.537109375 155 c 0
 347.537109375 124 316.537109375 95 282.537109375 68 c 1
 331.537109375 23 419.537109375 29 476.537109375 55 c 0
 545.537109375 87 595.537109375 153 606.537109375 228 c 0
 617.537109375 302 591.537109375 384 551.537109375 445 c 0
 508.537109375 510 440.537109375 531 365.537109375 530 c 0
 297.537109375 529 43.537109375 472 79.537109375 617 c 0
 111.537109375 745 292.537109375 739 392.537109375 726 c 0
 449.537109375 719 507.537109375 700 545.537109375 654 c 0
 580.537109375 612 587.537109375 554 559.537109375 507 c 0
 558.537109375 506 557.537109375 505 556.537109375 504 c 0
 556.537109375 502 555.537109375 500 554.537109375 498 c 2
 552.537109375 495 l 2
 551.537109375 494 l 1
 595.537109375 449 622.537109375 388 635.537109375 322 c 2
203.537109375 552 m 0
 275.537109375 552 346.537109375 569 418.537109375 560 c 0
 460.537109375 555 496.537109375 539 526.537109375 516 c 1
 526.537109375 517 526.537109375 517 526.537109375 517 c 0
 527.537109375 518 527.537109375 519 528.537109375 520 c 0
 529.537109375 521 530.537109375 521 530.537109375 521 c 0
 530.537109375 522 530.537109375 523 531.537109375 524 c 0
 581.537109375 610 484.537109375 677 410.537109375 691 c 0
 336.537109375 705 236.537109375 712 168.537109375 675 c 0
 139.537109375 659 91.537109375 615 113.537109375 577 c 0
 129.537109375 549 176.537109375 552 203.537109375 552 c 0
240.537109375 128 m 1
 256.537109375 172 240.537109375 222 205.537109375 253 c 0
 170.537109375 285 108.537109375 296 82.537109375 248 c 0
 80.537109375 244 77.537109375 241 74.537109375 240 c 0
 70.537109375 228 66.537109375 215 65.537109375 202 c 0
 61.537109375 156 77.537109375 98 121.537109375 76 c 0
 168.537109375 52 223.537109375 81 240.537109375 128 c 1
260.537109375 95 m 1
 261.537109375 96 l 1
 278.537109375 110 295.537109375 123 311.537109375 138 c 0
 347.537109375 171 394.537109375 211 393.537109375 265 c 0
 392.537109375 324 328.537109375 340 280.537109375 345 c 0
 230.537109375 350 179.537109375 349 136.537109375 321 c 0
 132.537109375 318 129.537109375 315 125.537109375 312 c 1
 156.537109375 316 190.537109375 307 216.537109375 287 c 0
 266.537109375 249 293.537109375 181 272.537109375 120 c 0
 269.537109375 111 265.537109375 103 260.537109375 95 c 1
EndSplineSet
Validated: 33
EndChar

StartChar: AE
Encoding: 198 198 54
Width: 677
Flags: HW
LayerCount: 2
Fore
SplineSet
651.267578125 -135 m 2
 651.267578125 -136 l 2
 657.267578125 -162 641.267578125 -191 614.267578125 -196 c 0
 583.267578125 -202 563.267578125 -175 559.267578125 -147 c 0
 558.267578125 -137 557.267578125 -126 557.267578125 -116 c 1
 550.267578125 -116 542.267578125 -117 535.267578125 -118 c 0
 464.267578125 -124 400.267578125 -157 334.267578125 -181 c 0
 233.267578125 -217 100.267578125 -228 36.267578125 -122 c 0
 24.267578125 -102 55.267578125 -83 67.267578125 -103 c 0
 122.267578125 -194 240.267578125 -175 324.267578125 -145 c 0
 399.267578125 -118 477.267578125 -77 559.267578125 -80 c 0
 561.267578125 -61 564.267578125 -42 566.267578125 -24 c 1
 404.267578125 -77 171.267578125 -69 67.267578125 82 c 0
 -26.732421875 217 43.267578125 398 173.267578125 477 c 0
 246.267578125 522 335.267578125 536 419.267578125 528 c 0
 492.267578125 521 565.267578125 499 608.267578125 433 c 0
 648.267578125 371 650.267578125 292 619.267578125 226 c 0
 588.267578125 160 520.267578125 97 444.267578125 100 c 0
 383.267578125 102 323.267578125 160 342.267578125 225 c 0
 346.267578125 237 350.267578125 247 356.267578125 256 c 1
 203.267578125 253 l 2
 179.267578125 252 180.267578125 289 203.267578125 290 c 0
 274.267578125 292 344.267578125 294 414.267578125 295 c 0
 449.267578125 305 489.267578125 302 523.267578125 296 c 0
 544.267578125 292 538.267578125 260 518.267578125 260 c 0
 485.267578125 259 451.267578125 259 418.267578125 258 c 0
 409.267578125 254 400.267578125 249 392.267578125 241 c 0
 360.267578125 209 378.267578125 163 415.267578125 145 c 0
 485.267578125 111 561.267578125 188 587.267578125 246 c 0
 612.267578125 302 610.267578125 369 574.267578125 420 c 0
 535.267578125 475 464.267578125 489 401.267578125 493 c 0
 278.267578125 501 147.267578125 452 87.267578125 336 c 0
 25.267578125 216 76.267578125 79 194.267578125 23 c 0
 310.267578125 -33 465.267578125 -23 582.267578125 22 c 0
 593.267578125 26 606.267578125 15 605.267578125 4 c 0
 603.267578125 -25 600.267578125 -54 598.267578125 -84 c 0
 623.267578125 -91 645.267578125 -107 651.267578125 -135 c 2
EndSplineSet
Validated: 33
EndChar

StartChar: Ccedilla
Encoding: 199 199 55
Width: 624
Flags: HW
LayerCount: 2
Fore
SplineSet
589.35546875 388 m 0
 613.35546875 274 603.35546875 121 504.35546875 41 c 0
 433.35546875 -16 320.35546875 -14 269.35546875 57 c 1
 218.35546875 -9 155.35546875 -67 86.35546875 -115 c 0
 67.35546875 -128 50.35546875 -98 68.35546875 -85 c 0
 112.35546875 -54 154.35546875 -17 191.35546875 22 c 1
 181.35546875 19 171.35546875 16 161.35546875 15 c 0
 108.35546875 11 56.35546875 43 35.35546875 90 c 0
 10.35546875 145 30.35546875 208 59.35546875 257 c 0
 88.35546875 306 134.35546875 348 193.35546875 360 c 0
 246.35546875 371 303.35546875 355 336.35546875 312 c 0
 374.35546875 263 358.35546875 202 331.35546875 152 c 0
 319.35546875 130 305.35546875 109 291.35546875 88 c 0
 333.35546875 3 461.35546875 31 513.35546875 100 c 0
 570.35546875 176 573.35546875 290 554.35546875 379 c 0
 536.35546875 466 476.35546875 527 381.35546875 523 c 0
 297.35546875 519 215.35546875 476 130.35546875 492 c 0
 66.35546875 503 40.35546875 556 65.35546875 613 c 0
 90.35546875 670 149.35546875 710 210.35546875 725 c 0
 284.35546875 743 367.35546875 727 436.35546875 697 c 0
 486.35546875 675 532.35546875 629 507.35546875 573 c 0
 501.35546875 559 490.35546875 547 479.35546875 539 c 1
 489.35546875 535 499.35546875 529 508.35546875 523 c 0
 552.35546875 491 578.35546875 440 589.35546875 388 c 0
327.35546875 551 m 0
 334.35546875 552 342.35546875 553 349.35546875 554 c 1
 315.35546875 591 315.35546875 647 340.35546875 691 c 1
 302.35546875 699 262.35546875 701 224.35546875 693 c 0
 189.35546875 685 157.35546875 670 131.35546875 646 c 0
 105.35546875 622 66.35546875 564 108.35546875 536 c 0
 140.35546875 515 193.35546875 524 228.35546875 530 c 0
 261.35546875 536 294.35546875 545 327.35546875 551 c 0
423.35546875 555 m 2
 467.35546875 554 498.35546875 604 463.35546875 640 c 0
 443.35546875 661 411.35546875 673 381.35546875 681 c 0
 379.35546875 677 376.35546875 673 371.35546875 672 c 1
 350.35546875 632 353.35546875 577 403.35546875 559 c 0
 407.35546875 558 411.35546875 557 415.35546875 556 c 0
 417.35546875 556 421.35546875 555 423.35546875 555 c 2
236.35546875 108 m 0
 249.35546875 147 230.35546875 191 191.35546875 209 c 0
 146.35546875 229 96.35546875 211 70.35546875 172 c 0
 68.35546875 168 64.35546875 167 61.35546875 166 c 0
 60.35546875 158 59.35546875 149 59.35546875 141 c 0
 60.35546875 99 89.35546875 60 133.35546875 51 c 0
 176.35546875 42 223.35546875 67 236.35546875 108 c 0
277.35546875 131 m 2
 300.35546875 168 330.35546875 213 322.35546875 258 c 0
 314.35546875 301 271.35546875 328 228.35546875 329 c 0
 168.35546875 330 115.35546875 286 85.35546875 232 c 1
 119.35546875 252 160.35546875 259 199.35546875 244 c 0
 248.35546875 226 278.35546875 178 276.35546875 129 c 1
 277.35546875 130 277.35546875 131 277.35546875 131 c 2
EndSplineSet
Validated: 33
EndChar

StartChar: Egrave
Encoding: 200 200 56
Width: 500
Flags: HW
LayerCount: 2
Fore
SplineSet
599.365234375 -8 m 1
 615.365234375 -81 562.365234375 -134 504.365234375 -168 c 0
 448.365234375 -201 379.365234375 -220 317.365234375 -192 c 0
 267.365234375 -170 231.365234375 -113 246.365234375 -57 c 0
 248.365234375 -51 250.365234375 -46 253.365234375 -41 c 1
 184.365234375 -42 117.365234375 -27 70.365234375 31 c 0
 15.365234375 98 8.365234375 196 54.365234375 270 c 0
 77.365234375 306 110.365234375 336 148.365234375 355 c 0
 171.365234375 366 194.365234375 374 219.365234375 378 c 0
 247.365234375 382 278.365234375 379 305.365234375 389 c 0
 342.365234375 403 356.365234375 441 324.365234375 470 c 0
 302.365234375 490 267.365234375 494 239.365234375 494 c 0
 226.365234375 494 211.365234375 493 198.365234375 489 c 1
 211.365234375 485 223.365234375 477 231.365234375 463 c 0
 254.365234375 422 221.365234375 371 175.365234375 373 c 0
 136.365234375 375 113.365234375 413 117.365234375 449 c 0
 67.365234375 485 43.365234375 550 61.365234375 610 c 0
 78.365234375 667 125.365234375 701 180.365234375 716 c 0
 236.365234375 731 306.365234375 746 357.365234375 712 c 0
 404.365234375 681 446.365234375 622 448.365234375 564 c 0
 449.365234375 516 419.365234375 473 373.365234375 461 c 1
 386.365234375 425 372.365234375 386 337.365234375 365 c 0
 286.365234375 334 220.365234375 351 166.365234375 324 c 0
 110.365234375 296 65.365234375 242 60.365234375 178 c 0
 55.365234375 121 79.365234375 60 126.365234375 27 c 0
 173.365234375 -6 231.365234375 -10 287.365234375 -4 c 0
 310.365234375 11 339.365234375 16 366.365234375 6 c 0
 381.365234375 0 385.365234375 -26 366.365234375 -29 c 0
 345.365234375 -32 324.365234375 -36 302.365234375 -38 c 0
 286.365234375 -52 276.365234375 -74 282.365234375 -99 c 0
 292.365234375 -141 332.365234375 -166 373.365234375 -169 c 0
 445.365234375 -175 585.365234375 -107 565.365234375 -18 c 0
 560.365234375 5 594.365234375 15 599.365234375 -8 c 1
200.365234375 421 m 2
 218.365234375 453 171.365234375 469 157.365234375 437 c 0
 156.365234375 436 156.365234375 435 155.365234375 434 c 0
 161.365234375 411 184.365234375 394 200.365234375 421 c 2
234.365234375 530 m 0
 276.365234375 531 324.365234375 522 354.365234375 491 c 0
 356.365234375 492 358.365234375 494 361.365234375 494 c 0
 386.365234375 497 404.365234375 521 410.365234375 544 c 0
 417.365234375 571 408.365234375 599 394.365234375 622 c 0
 379.365234375 647 357.365234375 671 332.365234375 685 c 0
 304.365234375 701 273.365234375 697 243.365234375 692 c 0
 190.365234375 684 130.365234375 671 103.365234375 618 c 0
 79.365234375 572 92.365234375 517 131.365234375 484 c 1
 153.365234375 516 196.365234375 529 234.365234375 530 c 0
EndSplineSet
EndChar

StartChar: Eacute
Encoding: 201 201 57
Width: 666
Flags: HW
LayerCount: 2
Fore
SplineSet
676.543945312 610 m 1
 675.543945312 611 l 1
 688.543945312 590 655.543945312 571 642.543945312 591 c 0
 581.543945312 683 461.543945312 720 361.543945312 669 c 0
 357.543945312 667 354.543945312 664 350.543945312 662 c 1
 368.543945312 659 386.543945312 655 402.543945312 649 c 0
 559.543945312 597 656.543945312 438 632.543945312 274 c 0
 608.543945312 108 447.543945312 -31 275.543945312 6 c 0
 204.543945312 22 140.543945312 73 130.543945312 148 c 0
 125.543945312 186 134.543945312 221 152.543945312 251 c 1
 118.543945312 238 85.5439453125 223 53.5439453125 207 c 0
 31.5439453125 196 11.5439453125 229 33.5439453125 240 c 0
 79.5439453125 263 127.543945312 283 175.543945312 300 c 0
 186.543945312 304 198.543945312 307 210.543945312 311 c 1
 194.543945312 312 177.543945312 320 169.543945312 336 c 0
 164.543945312 346 162.543945312 357 163.543945312 368 c 0
 155.543945312 374 150.543945312 387 160.543945312 397 c 0
 168.543945312 405 178.543945312 410 189.543945312 413 c 0
 232.543945312 445 300.543945312 427 334.543945312 390 c 0
 352.543945312 370 367.543945312 336 344.543945312 314 c 0
 332.543945312 303 314.543945312 302 299.543945312 298 c 0
 286.543945312 295 272.543945312 291 259.543945312 287 c 0
 258.543945312 286 257.543945312 285 256.543945312 285 c 0
 167.543945312 259 135.543945312 147 206.543945312 82 c 0
 267.543945312 26 365.543945312 31 436.543945312 63 c 0
 571.543945312 125 627.543945312 286 581.543945312 424 c 0
 541.543945312 544 429.543945312 623 306.543945312 629 c 0
 289.543945312 611 275.543945312 591 261.543945312 569 c 0
 241.543945312 537 212.543945312 506 170.543945312 512 c 0
 141.543945312 516 122.543945312 540 121.543945312 569 c 0
 121.543945312 603 143.543945312 630 173.543945312 644 c 0
 209.543945312 661 250.543945312 669 292.543945312 668 c 0
 315.543945312 688 341.543945312 704 370.543945312 715 c 0
 484.543945312 758 610.543945312 710 676.543945312 610 c 1
251.543945312 391 m 1
 266.543945312 368 263.543945312 337 240.543945312 321 c 1
 260.543945312 327 281.543945312 332 302.543945312 337 c 0
 309.543945312 338 317.543945312 338 317.543945312 345 c 0
 317.543945312 353 309.543945312 361 304.543945312 366 c 0
 291.543945312 379 275.543945312 387 257.543945312 390 c 0
 256.543945312 391 253.543945312 391 251.543945312 391 c 1
204.543945312 352 m 0
 212.543945312 343 225.543945312 355 222.543945312 365 c 0
 219.543945312 374 213.543945312 377 206.543945312 377 c 0
 200.543945312 370 197.543945312 359 204.543945312 352 c 0
213.543945312 567 m 0
 224.543945312 578 230.543945312 592 238.543945312 605 c 0
 243.543945312 613 249.543945312 620 254.543945312 627 c 1
 221.543945312 623 162.543945312 612 160.543945312 575 c 0
 158.543945312 534 198.543945312 551 213.543945312 567 c 0
EndSplineSet
EndChar

StartChar: Ecircumflex
Encoding: 202 202 58
Width: 576
Flags: HW
LayerCount: 2
Fore
SplineSet
480.334960938 361 m 1
 479.334960938 361 l 1
 583.334960938 278 575.334960938 110 461.334960938 39 c 0
 398.334960938 0 310.334960938 -6 238.334960938 4 c 0
 167.334960938 14 99.3349609375 47 57.3349609375 107 c 0
 19.3349609375 162 11.3349609375 239 46.3349609375 297 c 0
 68.3349609375 333 102.334960938 355 139.334960938 370 c 1
 103.334960938 377 80.3349609375 412 86.3349609375 449 c 0
 87.3349609375 459 91.3349609375 467 95.3349609375 475 c 0
 94.3349609375 484 99.3349609375 494 110.334960938 496 c 0
 126.334960938 512 148.334960938 522 171.334960938 526 c 0
 208.334960938 532 252.334960938 518 280.334960938 491 c 1
 287.334960938 533 288.334960938 575 286.334960938 617 c 0
 285.334960938 631 285.334960938 646 283.334960938 661 c 0
 269.334960938 661 255.334960938 660 241.334960938 660 c 0
 233.334960938 660 227.334960938 665 224.334960938 671 c 0
 221.334960938 673 219.334960938 676 218.334960938 680 c 0
 210.334960938 709 236.334960938 737 264.334960938 733 c 0
 285.334960938 730 300.334960938 715 308.334960938 697 c 0
 327.334960938 698 351.334960938 701 366.334960938 687 c 0
 383.334960938 670 377.334960938 645 364.334960938 628 c 0
 353.334960938 613 339.334960938 602 323.334960938 593 c 0
 324.334960938 569 322.334960938 545 320.334960938 521 c 1
 369.334960938 600 431.334960938 670 502.334960938 729 c 0
 520.334960938 743 545.334960938 718 527.334960938 704 c 0
 467.334960938 655 415.334960938 597 371.334960938 534 c 1
 389.334960938 537 408.334960938 536 425.334960938 529 c 0
 490.334960938 501 507.334960938 421 471.334960938 367 c 0
 474.334960938 365 477.334960938 363 480.334960938 361 c 1
327.334960938 463 m 0
 320.334960938 448 317.334960938 429 327.334960938 415 c 0
 339.334960938 399 367.334960938 404 385.334960938 402 c 0
 404.334960938 399 423.334960938 393 440.334960938 385 c 0
 461.334960938 415 461.334960938 454 432.334960938 482 c 0
 402.334960938 511 354.334960938 505 331.334960938 470 c 0
 330.334960938 468 328.334960938 465 327.334960938 463 c 0
335.334960938 662 m 1
 331.334960938 662 327.334960938 662 323.334960938 662 c 0
 322.334960938 662 319.334960938 662 318.334960938 662 c 1
 319.334960938 653 321.334960938 643 322.334960938 634 c 1
 326.334960938 638 331.334960938 642 335.334960938 647 c 0
 337.334960938 649 335.334960938 647 337.334960938 650 c 0
 338.334960938 651 338.334960938 653 339.334960938 654 c 0
 340.334960938 655 341.334960938 657 342.334960938 658 c 0
 342.334960938 659 342.334960938 662 342.334960938 662 c 1
 341.334960938 662 340.334960938 662 340.334960938 662 c 2
 338.334960938 662 337.334960938 662 335.334960938 662 c 1
256.334960938 467 m 1
 236.334960938 489 201.334960938 496 172.334960938 490 c 1
 194.334960938 482 211.334960938 467 215.334960938 439 c 0
 218.334960938 418 210.334960938 399 197.334960938 386 c 1
 203.334960938 387 209.334960938 389 215.334960938 390 c 0
 234.334960938 394 257.334960938 396 266.334960938 416 c 0
 274.334960938 433 268.334960938 454 256.334960938 467 c 1
122.334960938 437 m 2
 122.334960938 418 137.334960938 401 157.334960938 403 c 0
 179.334960938 406 189.334960938 433 174.334960938 449 c 0
 163.334960938 461 145.334960938 463 129.334960938 462 c 0
 124.334960938 455 122.334960938 446 122.334960938 437 c 2
465.334960938 85 m 0
 530.334960938 144 539.334960938 248 479.334960938 314 c 0
 469.334960938 325 459.334960938 333 447.334960938 341 c 0
 434.334960938 333 417.334960938 344 418.334960938 356 c 0
 401.334960938 363 383.334960938 367 365.334960938 368 c 0
 336.334960938 369 310.334960938 375 296.334960938 398 c 1
 277.334960938 361 235.334960938 359 199.334960938 351 c 0
 155.334960938 341 108.334960938 323 81.3349609375 285 c 0
 21.3349609375 199 89.3349609375 96 170.334960938 59 c 0
 218.334960938 37 272.334960938 33 324.334960938 37 c 0
 373.334960938 41 427.334960938 50 465.334960938 85 c 0
EndSplineSet
Validated: 33
EndChar

StartChar: Edieresis
Encoding: 203 203 59
Width: 1055
Flags: HW
LayerCount: 2
Fore
SplineSet
1026.38964844 289 m 2
 1044.38964844 206 1009.38964844 118 946.389648438 63 c 0
 819.389648438 -46 554.389648438 -17 554.389648438 185 c 0
 554.389648438 224 564.389648438 265 585.389648438 299 c 0
 609.389648438 338 643.389648438 357 683.389648438 375 c 0
 713.389648438 389 755.389648438 421 722.389648438 456 c 0
 708.389648438 471 686.389648438 474 666.389648438 470 c 1
 683.389648438 447 688.389648438 419 669.389648438 392 c 0
 646.389648438 360 594.389648438 357 575.389648438 394 c 0
 559.389648438 426 574.389648438 456 599.389648438 477 c 1
 591.389648438 480 582.389648438 481 574.389648438 482 c 0
 520.389648438 489 471.389648438 478 424.389648438 455 c 1
 450.389648438 424 470.389648438 387 482.389648438 349 c 0
 513.389648438 252 526.389648438 111 441.389648438 36 c 0
 407.389648438 6 358.389648438 -10 314.389648438 7 c 0
 293.389648438 15 275.389648438 30 263.389648438 48 c 1
 245.389648438 20 218.389648438 2 179.389648438 10 c 0
 124.389648438 20 97.3896484375 68 80.3896484375 116 c 1
 54.3896484375 94 l 2
 36.3896484375 79 13.3896484375 102 29.3896484375 120 c 0
 90.3896484375 189 150.389648438 258 212.389648438 326 c 0
 257.389648438 376 306.389648438 425 363.389648438 462 c 1
 353.389648438 469 343.389648438 475 331.389648438 480 c 0
 308.389648438 489 280.389648438 493 255.389648438 488 c 1
 259.389648438 485 262.389648438 480 266.389648438 475 c 0
 289.389648438 442 269.389648438 393 228.389648438 388 c 0
 192.389648438 384 161.389648438 413 164.389648438 448 c 0
 164.389648438 452 166.389648438 455 167.389648438 459 c 0
 167.389648438 460 l 2
 178.389648438 499 224.389648438 521 262.389648438 525 c 0
 315.389648438 531 359.389648438 513 396.389648438 482 c 0
 458.389648438 514 533.389648438 532 602.389648438 514 c 0
 613.389648438 511 624.389648438 506 635.389648438 499 c 0
 637.389648438 500 639.389648438 500 641.389648438 501 c 0
 683.389648438 516 735.389648438 505 759.389648438 467 c 1
 764.389648438 490 778.389648438 511 800.389648438 522 c 0
 845.389648438 545 900.389648438 522 924.389648438 480 c 0
 937.389648438 456 942.389648438 430 940.389648438 403 c 0
 947.389648438 400 954.389648438 396 962.389648438 390 c 0
 995.389648438 366 1017.38964844 329 1026.38964844 289 c 2
234.389648438 429 m 0
 253.389648438 447 218.389648438 477 201.389648438 450 c 0
 200.389648438 446 201.389648438 441 207.389648438 437 c 0
 211.389648438 423 220.389648438 421 234.389648438 429 c 0
454.389648438 311 m 1
 443.389648438 357 424.389648438 403 392.389648438 437 c 0
 351.389648438 412 313.389648438 379 281.389648438 346 c 0
 220.389648438 284 163.389648438 219 106.389648438 153 c 0
 117.389648438 118 129.389648438 74 163.389648438 54 c 0
 213.389648438 25 240.389648438 69 249.389648438 112 c 0
 253.389648438 132 286.389648438 128 284.389648438 108 c 0
 280.389648438 63 323.389648438 29 367.389648438 37 c 0
 405.389648438 44 434.389648438 75 450.389648438 109 c 0
 478.389648438 171 470.389648438 247 454.389648438 311 c 1
610.389648438 412 m 2
 626.389648438 390 644.389648438 419 641.389648438 437 c 0
 640.389648438 445 637.389648438 452 632.389648438 457 c 0
 617.389648438 448 597.389648438 429 610.389648438 412 c 2
823.389648438 493 m 2
 803.389648438 486 790.389648438 465 795.389648438 444 c 0
 801.389648438 421 821.389648438 416 843.389648438 415 c 0
 865.389648438 414 884.389648438 415 903.389648438 413 c 1
 903.389648438 418 904.389648438 422 903.389648438 427 c 0
 899.389648438 465 866.389648438 508 823.389648438 493 c 2
963.389648438 139 m 1
 1002.38964844 202 1011.38964844 297 952.389648438 352 c 0
 946.389648438 358 940.389648438 361 934.389648438 365 c 1
 929.389648438 344 922.389648438 323 915.389648438 305 c 0
 893.389648438 249 765.389648438 28 684.389648438 121 c 0
 653.389648438 156 668.389648438 211 697.389648438 242 c 0
 738.389648438 285 801.389648438 290 851.389648438 260 c 0
 852.389648438 260 l 0
 853.389648438 261 853.389648438 262 854.389648438 263 c 0
 873.389648438 296 892.389648438 337 900.389648438 377 c 1
 881.389648438 380 861.389648438 379 838.389648438 379 c 0
 814.389648438 379 790.389648438 386 774.389648438 405 c 0
 772.389648438 407 770.389648438 410 769.389648438 412 c 1
 760.389648438 373 712.389648438 350 676.389648438 333 c 0
 608.389648438 301 577.389648438 222 593.389648438 149 c 0
 611.389648438 67 697.389648438 33 774.389648438 35 c 0
 849.389648438 37 923.389648438 74 963.389648438 139 c 1
832.389648438 230 m 2
 798.389648438 250 756.389648438 250 727.389648438 221 c 0
 707.389648438 202 686.389648438 150 725.389648438 142 c 0
 755.389648438 136 784.389648438 173 803.389648438 193 c 0
 813.389648438 204 823.389648438 217 832.389648438 230 c 2
EndSplineSet
Validated: 33
EndChar

StartChar: Igrave
Encoding: 204 204 60
Width: 1053
Flags: HW
LayerCount: 2
Fore
SplineSet
996.856445312 461 m 2
 996.856445312 460 l 2
 1030.85644531 361 1042.85644531 239 1005.85644531 139 c 0
 990.856445312 98 960.856445312 58 916.856445312 45 c 0
 874.856445312 32 825.856445312 48 805.856445312 87 c 0
 799.856445312 98 797.856445312 108 796.856445312 119 c 1
 769.856445312 82 731.856445312 54 689.856445312 35 c 0
 567.856445312 -19 355.856445312 -20 279.856445312 110 c 0
 274.856445312 118 271.856445312 128 267.856445312 137 c 1
 268.856445312 123 265.856445312 109 258.856445312 95 c 0
 239.856445312 57 194.856445312 40 153.856445312 47 c 0
 104.856445312 55 68.8564453125 95 50.8564453125 139 c 0
 46.8564453125 148 43.8564453125 158 40.8564453125 168 c 0
 33.8564453125 173 31.8564453125 181 34.8564453125 189 c 0
 11.8564453125 286 27.8564453125 398 59.8564453125 488 c 0
 92.8564453125 580 156.856445312 708 263.856445312 730 c 0
 379.856445312 754 436.856445312 638 425.856445312 540 c 0
 425.856445312 539 425.856445312 539 425.856445312 538 c 0
 471.856445312 537 517.856445312 518 533.856445312 478 c 1
 536.856445312 483 538.856445312 489 542.856445312 494 c 0
 561.856445312 520 592.856445312 534 624.856445312 538 c 0
 620.856445312 596 630.856445312 658 677.856445312 698 c 0
 717.856445312 732 770.856445312 737 816.856445312 711 c 0
 904.856445312 662 965.856445312 552 996.856445312 461 c 2
714.856445312 682 m 0
 663.856445312 652 655.856445312 591 659.856445312 538 c 0
 731.856445312 526 776.856445312 454 758.856445312 384 c 0
 764.856445312 380 770.856445312 377 776.856445312 372 c 0
 827.856445312 331 844.856445312 264 832.856445312 202 c 1
 872.856445312 238 928.856445312 244 980.856445312 248 c 0
 984.856445312 248 986.856445312 247 989.856445312 246 c 1
 989.856445312 247 989.856445312 249 989.856445312 250 c 0
 992.856445312 298 988.856445312 345 978.856445312 392 c 0
 958.856445312 484 913.856445312 571 847.856445312 639 c 0
 812.856445312 675 765.856445312 712 714.856445312 682 c 0
564.856445312 461 m 1
 543.856445312 399 642.856445312 409 675.856445312 408 c 0
 693.856445312 408 709.856445312 405 725.856445312 400 c 1
 731.856445312 436 717.856445312 474 683.856445312 493 c 0
 646.856445312 513 580.856445312 506 564.856445312 461 c 1
138.856445312 89 m 0
 194.856445312 61 264.856445312 118 216.856445312 174 c 0
 179.856445312 217 118.856445312 203 74.8564453125 180 c 0
 84.8564453125 143 102.856445312 107 138.856445312 89 c 0
275.856445312 292 m 1
 274.856445312 292 l 1
 306.856445312 351 363.856445312 384 428.856445312 394 c 0
 462.856445312 399 510.856445312 407 502.856445312 452 c 0
 495.856445312 492 451.856445312 506 414.856445312 503 c 0
 406.856445312 502 397.856445312 501 387.856445312 497 c 1
 393.856445312 495 397.856445312 492 402.856445312 488 c 0
 434.856445312 463 430.856445312 411 394.856445312 391 c 0
 357.856445312 371 314.856445312 395 306.856445312 434 c 0
 305.856445312 439 305.856445312 443 305.856445312 448 c 0
 302.856445312 453 301.856445312 459 305.856445312 465 c 0
 306.856445312 466 307.856445312 469 308.856445312 470 c 0
 316.856445312 496 339.856445312 516 365.856445312 527 c 0
 373.856445312 531 381.856445312 533 390.856445312 535 c 1
 389.856445312 536 390.856445312 538 390.856445312 540 c 0
 395.856445312 588 386.856445312 656 341.856445312 685 c 0
 293.856445312 716 233.856445312 688 197.856445312 652 c 0
 126.856445312 581 84.8564453125 476 68.8564453125 379 c 0
 60.8564453125 329 59.8564453125 278 65.8564453125 228 c 0
 66.8564453125 224 66.8564453125 221 67.8564453125 217 c 1
 113.856445312 239 165.856445312 247 212.856445312 222 c 0
 231.856445312 212 246.856445312 196 256.856445312 177 c 1
 250.856445312 216 256.856445312 257 275.856445312 292 c 1
385.856445312 454 m 0
 374.856445312 472 352.856445312 466 340.856445312 453 c 0
 340.856445312 447 341.856445312 440 345.856445312 433 c 0
 359.856445312 406 401.856445312 428 385.856445312 454 c 0
641.856445312 54 m 1
 739.856445312 84 834.856445312 183 792.856445312 291 c 0
 774.856445312 338 729.856445312 370 679.856445312 372 c 0
 635.856445312 374 589.856445312 364 552.856445312 394 c 0
 544.856445312 400 538.856445312 407 534.856445312 415 c 1
 524.856445312 392 503.856445312 376 478.856445312 368 c 0
 436.856445312 355 393.856445312 358 355.856445312 331 c 0
 274.856445312 274 267.856445312 155 342.856445312 90 c 0
 417.856445312 24 551.856445312 26 641.856445312 54 c 1
944.856445312 104 m 0
 971.856445312 132 981.856445312 175 986.856445312 214 c 1
 984.856445312 213 982.856445312 212 980.856445312 212 c 0
 929.856445312 208 850.856445312 201 834.856445312 141 c 0
 826.856445312 113 841.856445312 85 870.856445312 78 c 0
 898.856445312 71 925.856445312 84 944.856445312 104 c 0
EndSplineSet
Validated: 33
EndChar

StartChar: Iacute
Encoding: 205 205 61
Width: 477
Flags: HW
LayerCount: 2
Fore
SplineSet
381.732421875 351 m 1
 454.732421875 267 490.732421875 144 396.732421875 61 c 0
 317.732421875 -9 192.732421875 -24 107.732421875 44 c 0
 13.732421875 119 11.732421875 242 73.732421875 340 c 0
 99.732421875 382 132.732421875 419 165.732421875 456 c 1
 152.732421875 451 139.732421875 446 124.732421875 445 c 0
 44.732421875 439 1.732421875 518 35.732421875 588 c 0
 69.732421875 658 163.732421875 727 240.732421875 733 c 0
 277.732421875 736 315.732421875 721 333.732421875 686 c 0
 338.732421875 676 340.732421875 666 340.732421875 655 c 1
 342.732421875 658 345.732421875 660 347.732421875 663 c 0
 361.732421875 679 383.732421875 655 370.732421875 639 c 0
 350.732421875 615 330.732421875 592 309.732421875 569 c 2
 237.732421875 487 l 2
 218.732421875 466 199.732421875 443 180.732421875 422 c 1
 192.732421875 426 205.732421875 429 218.732421875 430 c 0
 282.732421875 434 340.732421875 398 381.732421875 351 c 1
276.732421875 696 m 0
 261.732421875 702 245.732421875 702 229.732421875 698 c 0
 229.732421875 697 229.732421875 697 229.732421875 696 c 0
 223.732421875 671 226.732421875 643 249.732421875 628 c 0
 266.732421875 617 293.732421875 619 304.732421875 639 c 0
 317.732421875 663 296.732421875 688 276.732421875 696 c 0
111.732421875 478 m 1
 145.732421875 476 177.732421875 496 203.732421875 516 c 0
 232.732421875 538 257.732421875 563 282.732421875 589 c 1
 262.732421875 586 240.732421875 592 223.732421875 606 c 0
 199.732421875 626 191.732421875 656 194.732421875 686 c 1
 140.732421875 663 76.732421875 616 59.732421875 561 c 0
 46.732421875 521 67.732421875 481 111.732421875 478 c 1
187.732421875 40 m 0
 303.732421875 7 460.732421875 101 413.732421875 237 c 0
 393.732421875 296 347.732421875 354 292.732421875 381 c 0
 234.732421875 410 153.732421875 400 128.732421875 332 c 0
 124.732421875 320 110.732421875 319 102.732421875 324 c 1
 70.732421875 273 49.732421875 211 70.732421875 151 c 0
 88.732421875 98 134.732421875 55 187.732421875 40 c 0
EndSplineSet
Validated: 33
EndChar

StartChar: Icircumflex
Encoding: 206 206 62
Width: 692
Flags: HW
LayerCount: 2
Fore
SplineSet
627.807617188 657.79296875 m 2
 628.099609375 657.79296875 l 2
 667.01171875 610.981445312 683.103515625 548.079101562 667.01171875 488.979492188 c 0
 661.453125 469.376953125 631.025390625 477.861328125 636.291992188 497.463867188 c 0
 653.553710938 560.952148438 625.758789062 628.536132812 572.21875 665.985351562 c 0
 516.922851562 704.897460938 444.950195312 709.578125 381.754882812 689.098632812 c 0
 322.0703125 669.788085938 234.883789062 618.295898438 230.788085938 547.786132812 c 0
 228.447265625 511.799804688 254.193359375 485.760742188 286.668945312 474.935546875 c 0
 321.192382812 463.525390625 358.348632812 469.376953125 393.45703125 475.228515625 c 0
 395.797851562 483.420898438 398.723632812 491.02734375 402.52734375 498.341796875 c 0
 423.006835938 536.9609375 467.185546875 546.616210938 505.512695312 528.4765625 c 0
 592.11328125 487.809570312 643.8984375 376.046875 650.334960938 285.349609375 c 0
 657.064453125 192.604492188 620.493164062 83.1826171875 542.375976562 27.5947265625 c 0
 504.926757812 0.970703125 453.141601562 -10.1474609375 410.71875 11.5029296875 c 0
 394.334960938 19.6953125 381.461914062 32.275390625 372.684570312 47.1962890625 c 1
 353.959960938 22.328125 324.118164062 5.9443359375 291.935546875 2.7255859375 c 0
 234.883789062 -2.8330078125 167.592773438 25.8388671875 128.680664062 67.3837890625 c 0
 90.353515625 108.051757812 81.2841796875 169.19921875 109.37109375 218.350585938 c 0
 112.295898438 223.32421875 115.807617188 228.297851562 119.318359375 232.686523438 c 1
 92.109375 226.25 64.8994140625 218.643554688 38.275390625 209.28125 c 0
 18.9658203125 202.259765625 10.7744140625 232.979492188 29.791015625 239.708984375 c 0
 85.0869140625 259.310546875 142.138671875 272.76953125 200.360351562 279.791015625 c 0
 200.653320312 279.791015625 201.23828125 279.791015625 201.23828125 279.791015625 c 1
 199.482421875 280.668945312 197.727539062 281.25390625 195.971679688 282.131835938 c 0
 171.98046875 296.174804688 160.5703125 327.1875 168.762695312 353.518554688 c 0
 178.709960938 385.702148438 214.111328125 405.596679688 245.416015625 411.155273438 c 0
 280.524414062 417.591796875 312.708007812 403.548828125 334.650390625 376.33984375 c 0
 346.938476562 361.125976562 355.422851562 343.864257812 363.030273438 326.017578125 c 0
 369.466796875 311.680664062 377.073242188 296.467773438 372.977539062 280.375976562 c 0
 363.908203125 243.8046875 315.047851562 253.751953125 287.546875 253.751953125 c 0
 274.380859375 253.751953125 261.21484375 252.58203125 248.049804688 251.704101562 c 0
 244.5390625 248.778320312 239.857421875 246.73046875 234.298828125 247.608398438 c 0
 140.67578125 261.944335938 90.060546875 147.548828125 156.767578125 84.353515625 c 0
 186.90234375 55.6806640625 233.127929688 34.908203125 274.673828125 33.73828125 c 0
 316.803710938 32.568359375 361.274414062 58.8994140625 360.104492188 105.125976562 c 1
 360.104492188 106.588867188 360.104492188 108.051757812 360.104492188 109.514648438 c 0
 362.737304688 127.946289062 390.82421875 122.387695312 391.409179688 105.41796875 c 0
 391.702148438 100.444335938 390.82421875 95.763671875 390.239257812 91.08203125 c 0
 391.1171875 45.1484375 445.53515625 24.3759765625 485.91015625 35.201171875 c 0
 528.91796875 46.611328125 559.930664062 83.4755859375 580.99609375 120.631835938 c 0
 581.288085938 120.924804688 581.873046875 121.509765625 581.873046875 122.094726562 c 0
 480.936523438 164.810546875 406.331054688 254.336914062 389.946289062 363.758789062 c 0
 386.435546875 388.041992188 384.387695312 415.543945312 387.020507812 442.16796875 c 1
 322.947265625 433.390625 245.124023438 432.512695312 210.307617188 496.5859375 c 0
 175.784179688 560.07421875 222.010742188 625.903320312 271.163085938 664.522460938 c 0
 324.703125 706.65234375 391.702148438 734.447265625 460.749023438 732.984375 c 0
 523.06640625 731.521484375 587.432617188 706.360351562 627.807617188 657.79296875 c 2
307.1484375 359.663085938 m 1
 307.1484375 358.78515625 l 1
 292.8125 374.876953125 274.380859375 382.483398438 253.315429688 379.557617188 c 1
 281.6953125 364.34375 291.642578125 325.139648438 272.91796875 298.807617188 c 0
 268.822265625 292.95703125 263.555664062 287.982421875 257.412109375 284.1796875 c 1
 264.140625 284.471679688 271.163085938 285.057617188 278.184570312 285.057617188 c 0
 291.349609375 285.642578125 304.223632812 285.349609375 317.388671875 285.057617188 c 0
 326.750976562 285.057617188 343.134765625 280.9609375 341.379882812 294.418945312 c 0
 339.916992188 305.830078125 332.017578125 318.703125 327.043945312 328.650390625 c 0
 321.485351562 339.767578125 315.340820312 350.592773438 307.1484375 359.663085938 c 1
199.482421875 325.139648438 m 2
 199.190429688 325.139648438 l 1
 203.578125 313.729492188 214.111328125 305.244140625 226.984375 306.70703125 c 0
 246.293945312 309.047851562 257.119140625 329.235351562 245.708984375 345.619140625 c 0
 234.005859375 362.588867188 210.307617188 353.2265625 206.50390625 335.086914062 c 0
 205.626953125 330.11328125 202.701171875 326.89453125 199.482421875 325.139648438 c 2
466.600585938 505.948242188 m 2
 466.307617188 506.241210938 l 2
 421.836914062 506.826171875 418.033203125 448.311523438 417.448242188 415.836914062 c 0
 416.86328125 375.461914062 424.762695312 334.501953125 441.146484375 297.637695312 c 0
 470.989257812 230.346679688 527.163085938 177.975585938 595.0390625 150.474609375 c 0
 620.78515625 210.451171875 625.758789062 278.328125 607.912109375 341.23046875 c 0
 597.671875 376.631835938 580.99609375 409.985351562 558.467773438 439.2421875 c 0
 537.40234375 466.451171875 504.049804688 505.65625 466.600585938 505.948242188 c 2
EndSplineSet
EndChar

StartChar: Idieresis
Encoding: 207 207 63
Width: 1059
Flags: HW
LayerCount: 2
Fore
SplineSet
837.55078125 444 m 2
 838.55078125 444 l 2
 848.55078125 337 841.55078125 201 782.55078125 111 c 0
 757.55078125 73 719.55078125 43 677.55078125 38 c 0
 643.55078125 34 612.55078125 49 601.55078125 85 c 1
 588.55078125 70 574.55078125 57 558.55078125 45 c 0
 457.55078125 -30 314.55078125 -10 237.55078125 99 c 0
 235.55078125 102 234.55078125 104 232.55078125 107 c 1
 221.55078125 71 190.55078125 50 156.55078125 49 c 0
 117.55078125 48 82.55078125 76 61.55078125 113 c 0
 34.55078125 160 28.55078125 219 25.55078125 274 c 0
 21.55078125 338 25.55078125 402 34.55078125 465 c 0
 47.55078125 560 73.55078125 715 175.55078125 732 c 0
 274.55078125 748 312.55078125 620 309.55078125 531 c 1
 352.55078125 531 401.55078125 502 422.55078125 458 c 1
 437.55078125 501 495.55078125 526 536.55078125 530 c 0
 544.55078125 586 557.55078125 644 594.55078125 686 c 0
 626.55078125 723 673.55078125 739 716.55078125 719 c 0
 805.55078125 678 828.55078125 541 837.55078125 444 c 2
458.55078125 457 m 1
 446.55078125 440 448.55078125 415 469.55078125 410 c 0
 487.55078125 406 507.55078125 416 525.55078125 417 c 0
 549.55078125 418 572.55078125 410 592.55078125 397 c 1
 603.55078125 413 612.55078125 433 608.55078125 453 c 0
 604.55078125 474 585.55078125 489 568.55078125 493 c 0
 536.55078125 501 480.55078125 488 458.55078125 457 c 1
108.55078125 105 m 2
 138.55078125 76 206.55078125 74 205.55078125 136 c 0
 204.55078125 192 106.55078125 200 90.55078125 153 c 0
 88.55078125 148 86.55078125 144 82.55078125 142 c 0
 88.55078125 128 97.55078125 116 108.55078125 105 c 2
215.55078125 274 m 1
 249.55078125 342 317.55078125 329 370.55078125 362 c 0
 450.55078125 412 352.55078125 512 290.55078125 492 c 0
 282.55078125 490 275.55078125 485 268.55078125 478 c 1
 288.55078125 472 305.55078125 457 314.55078125 434 c 0
 327.55078125 400 310.55078125 358 275.55078125 359 c 0
 240.55078125 360 217.55078125 399 218.55078125 436 c 0
 218.55078125 439 218.55078125 441 218.55078125 444 c 0
 206.55078125 449 203.55078125 473 219.55078125 478 c 0
 222.55078125 479 225.55078125 479 228.55078125 480 c 0
 239.55078125 501 257.55078125 517 278.55078125 525 c 0
 278.55078125 526 278.55078125 528 278.55078125 530 c 0
 280.55078125 579 275.55078125 632 243.55078125 668 c 0
 210.55078125 706 163.55078125 703 130.55078125 666 c 0
 100.55078125 632 89.55078125 583 79.55078125 538 c 0
 68.55078125 487 59.55078125 435 56.55078125 382 c 0
 53.55078125 330 54.55078125 277 60.55078125 226 c 0
 62.55078125 211 65.55078125 195 69.55078125 180 c 1
 97.55078125 224 161.55078125 229 201.55078125 202 c 1
 200.55078125 227 204.55078125 251 215.55078125 274 c 1
250.55078125 446 m 2
 249.55078125 446 l 1
 245.55078125 430 248.55078125 413 262.55078125 401 c 0
 284.55078125 382 295.55078125 414 279.55078125 432 c 0
 271.55078125 441 261.55078125 445 250.55078125 446 c 2
545.55078125 78 m 1
 545.55078125 77 l 1
 612.55078125 129 660.55078125 238 613.55078125 325 c 0
 588.55078125 372 547.55078125 384 502.55078125 376 c 0
 477.55078125 371 448.55078125 372 431.55078125 395 c 1
 425.55078125 365 404.55078125 341 380.55078125 328 c 0
 344.55078125 308 301.55078125 310 267.55078125 286 c 0
 232.55078125 262 224.55078125 211 237.55078125 169 c 0
 250.55078125 124 284.55078125 89 319.55078125 66 c 0
 390.55078125 21 478.55078125 26 545.55078125 78 c 1
681.55078125 74 m 2
 681.55078125 75 l 2
 701.55078125 79 719.55078125 90 735.55078125 105 c 0
 743.55078125 113 750.55078125 122 756.55078125 131 c 0
 726.55078125 153 664.55078125 183 637.55078125 141 c 0
 635.55078125 137 634.55078125 134 632.55078125 131 c 0
 631.55078125 130 631.55078125 128 630.55078125 127 c 0
 617.55078125 86 651.55078125 68 681.55078125 74 c 2
773.55078125 161 m 1
 774.55078125 160 l 1
 805.55078125 226 811.55078125 315 810.55078125 385 c 0
 809.55078125 437 803.55078125 488 791.55078125 538 c 0
 779.55078125 588 762.55078125 643 723.55078125 673 c 0
 683.55078125 704 638.55078125 691 608.55078125 650 c 0
 583.55078125 616 574.55078125 571 568.55078125 528 c 0
 594.55078125 523 619.55078125 507 632.55078125 479 c 0
 649.55078125 442 636.55078125 406 617.55078125 375 c 0
 657.55078125 332 669.55078125 265 658.55078125 204 c 0
 657.55078125 200 657.55078125 197 656.55078125 193 c 1
 697.55078125 206 738.55078125 187 773.55078125 161 c 1
1034.55078125 513 m 0
 1033.55078125 307 l 2
 1032.55078125 249 1037.55078125 187 1026.55078125 130 c 0
 1004.55078125 21 892.55078125 -26 793.55078125 14 c 0
 771.55078125 23 781.55078125 59 803.55078125 50 c 0
 848.55078125 31 899.55078125 30 941.55078125 59 c 0
 982.55078125 88 993.55078125 136 995.55078125 183 c 0
 999.55078125 267 998.55078125 351 998.55078125 435 c 1
 992.55078125 422 984.55078125 409 977.55078125 397 c 0
 964.55078125 375 944.55078125 357 917.55078125 359 c 0
 892.55078125 361 871.55078125 380 861.55078125 403 c 0
 847.55078125 435 857.55078125 470 867.55078125 501 c 0
 874.55078125 524 909.55078125 515 902.55078125 492 c 0
 895.55078125 470 886.55078125 443 894.55078125 420 c 0
 902.55078125 399 923.55078125 388 939.55078125 407 c 0
 952.55078125 423 961.55078125 445 970.55078125 463 c 0
 980.55078125 483 990.55078125 502 1000.55078125 522 c 0
 1008.55078125 538 1034.55078125 531 1034.55078125 513 c 0
EndSplineSet
Validated: 33
EndChar

StartChar: Eth
Encoding: 208 208 64
Width: 740
Flags: HW
LayerCount: 2
Fore
SplineSet
705.241210938 477 m 1
 706.241210938 478 l 1
 678.241210938 447 627.241210938 440 591.241210938 463 c 1
 603.241210938 450 615.241210938 436 626.241210938 423 c 0
 660.241210938 380 685.241210938 331 694.241210938 278 c 0
 712.241210938 179 672.241210938 71 571.241210938 23 c 0
 528.241210938 2 476.241210938 -6 429.241210938 7 c 0
 399.241210938 15 372.241210938 35 358.241210938 59 c 1
 308.241210938 -4 202.241210938 -20 139.241210938 45 c 0
 102.241210938 83 93.2412109375 137 114.241210938 184 c 0
 124.241210938 207 141.241210938 225 159.241210938 241 c 1
 121.241210938 231 83.2412109375 221 45.2412109375 211 c 0
 23.2412109375 205 15.2412109375 236 36.2412109375 242 c 0
 86.2412109375 255 136.241210938 268 186.241210938 281 c 0
 196.241210938 284 205.241210938 286 215.241210938 289 c 1
 204.241210938 290 192.241210938 295 184.241210938 302 c 0
 165.241210938 319 162.241210938 347 173.241210938 368 c 0
 184.241210938 391 211.241210938 404 238.241210938 405 c 0
 267.241210938 406 294.241210938 392 312.241210938 372 c 0
 328.241210938 354 340.241210938 328 331.241210938 305 c 0
 320.241210938 277 280.241210938 273 253.241210938 266 c 0
 252.241210938 266 l 0
 184.241210938 225 96.2412109375 155 156.241210938 75 c 0
 210.241210938 3 327.241210938 33 348.241210938 113 c 0
 353.241210938 130 384.241210938 126 382.241210938 108 c 0
 375.241210938 51 441.241210938 28 493.241210938 33 c 0
 537.241210938 37 577.241210938 59 607.241210938 88 c 0
 631.241210938 112 647.241210938 141 655.241210938 171 c 1
 654.241210938 171 653.241210938 170 652.241210938 170 c 0
 529.241210938 167 415.241210938 243 387.241210938 354 c 0
 383.241210938 370 381.241210938 387 380.241210938 404 c 0
 328.241210938 407 279.241210938 417 246.241210938 458 c 0
 215.241210938 497 207.241210938 551 223.241210938 597 c 0
 256.241210938 694 368.241210938 730 470.241210938 733 c 0
 566.241210938 736 667.241210938 702 711.241210938 621 c 0
 721.241210938 617 725.241210938 606 721.241210938 598 c 0
 735.241210938 559 735.241210938 510 705.241210938 477 c 1
262.241210938 367 m 2
 280.241210938 349 278.241210938 318 259.241210938 301 c 1
 267.241210938 303 276.241210938 305 284.241210938 308 c 0
 290.241210938 310 297.241210938 313 298.241210938 319 c 0
 301.241210938 333 288.241210938 349 278.241210938 358 c 0
 273.241210938 362 267.241210938 365 260.241210938 368 c 1
 261.241210938 367 262.241210938 367 262.241210938 367 c 2
201.241210938 339 m 2
 202.241210938 330 208.241210938 321 219.241210938 320 c 0
 232.241210938 319 243.241210938 328 239.241210938 340 c 0
 235.241210938 353 218.241210938 351 210.241210938 343 c 0
 207.241210938 340 204.241210938 340 201.241210938 339 c 2
249.241210938 550 m 2
 248.241210938 519 261.241210938 486 286.241210938 464 c 0
 312.241210938 441 347.241210938 437 381.241210938 436 c 0
 383.241210938 457 389.241210938 478 398.241210938 497 c 0
 418.241210938 539 462.241210938 557 506.241210938 532 c 0
 527.241210938 520 547.241210938 505 565.241210938 488 c 1
 548.241210938 515 550.241210938 550 571.241210938 577 c 0
 594.241210938 607 631.241210938 620 669.241210938 623 c 1
 656.241210938 641 639.241210938 656 619.241210938 668 c 0
 554.241210938 707 468.241210938 709 395.241210938 693 c 0
 319.241210938 677 250.241210938 627 249.241210938 550 c 2
646.241210938 319 m 2
 647.241210938 319 l 2
 632.241210938 358 607.241210938 395 578.241210938 427 c 0
 553.241210938 455 521.241210938 490 485.241210938 507 c 0
 432.241210938 533 417.241210938 454 415.241210938 422 c 0
 415.241210938 421 415.241210938 422 415.241210938 421 c 0
 415.241210938 420 415.241210938 420 415.241210938 419 c 0
 414.241210938 382 423.241210938 344 442.241210938 311 c 0
 483.241210938 240 566.241210938 200 652.241210938 202 c 0
 656.241210938 202 658.241210938 201 661.241210938 200 c 1
 666.241210938 240 660.241210938 281 646.241210938 319 c 2
590.241210938 542 m 1
 575.241210938 498 634.241210938 462 672.241210938 493 c 0
 701.241210938 516 700.241210938 559 688.241210938 590 c 0
 688.241210938 590 687.241210938 590 687.241210938 591 c 1
 648.241210938 591 603.241210938 580 590.241210938 542 c 1
EndSplineSet
EndChar

StartChar: Ntilde
Encoding: 209 209 65
Width: 600
Flags: HW
LayerCount: 2
Fore
SplineSet
545.188476562 465.866210938 m 1
 545.188476562 466.451171875 l 1
 624.475585938 365.806640625 611.309570312 203.4296875 533.486328125 106.880859375 c 0
 446.592773438 -1.078125 289.774414062 -32.9677734375 171.282226562 41.9306640625 c 0
 117.44921875 75.8681640625 70.9306640625 133.504882812 82.3408203125 201.088867188 c 0
 86.4365234375 223.91015625 96.384765625 244.096679688 110.134765625 260.188476562 c 1
 86.7294921875 256.092773438 63.03125 251.411132812 39.91796875 244.974609375 c 0
 18.8525390625 239.123046875 10.076171875 271.891601562 30.8486328125 277.450195312 c 0
 66.2490234375 287.10546875 101.943359375 294.126953125 138.221679688 298.515625 c 1
 134.7109375 302.319335938 131.200195312 306.122070312 128.567382812 310.510742188 c 0
 112.768554688 337.427734375 121.252929688 372.536132812 142.025390625 393.893554688 c 0
 185.033203125 438.072265625 266.661132812 432.512695312 307.913085938 388.919921875 c 0
 327.80859375 367.854492188 340.681640625 337.719726562 335.123046875 308.755859375 c 0
 332.489257812 295.004882812 324.58984375 281.838867188 312.009765625 274.817382812 c 0
 297.380859375 266.625 280.119140625 268.965820312 264.3203125 269.84375 c 0
 247.05859375 270.428710938 229.50390625 270.720703125 212.2421875 270.135742188 c 0
 208.439453125 270.428710938 204.928710938 269.84375 201.41796875 269.84375 c 0
 199.077148438 269.55078125 196.443359375 269.2578125 194.103515625 269.2578125 c 0
 150.509765625 262.821289062 114.81640625 229.46875 113.938476562 181.487304688 c 0
 112.768554688 129.994140625 155.776367188 89.0341796875 197.029296875 65.3359375 c 0
 274.852539062 21.1572265625 370.81640625 24.9609375 446.006835938 72.650390625 c 0
 515.931640625 117.12109375 559.525390625 194.360351562 564.499023438 277.157226562 c 0
 569.47265625 357.615234375 539.922851562 455.041015625 462.68359375 492.197265625 c 0
 382.51953125 530.817382812 289.188476562 501.852539062 204.928710938 503.608398438 c 0
 152.265625 504.485351562 75.611328125 522.333007812 75.611328125 589.916992188 c 0
 75.611328125 652.819335938 155.776367188 690.853515625 204.635742188 709.578125 c 0
 268.708984375 734.154296875 340.096679688 739.420898438 407.094726562 725.669921875 c 0
 472.923828125 711.918945312 543.725585938 677.98046875 574.73828125 614.78515625 c 0
 600.192382812 562.70703125 590.245117188 500.682617188 545.188476562 465.866210938 c 1
314.642578125 543.690429688 m 2
 314.935546875 543.690429688 l 2
 385.737304688 548.37109375 462.391601562 544.275390625 518.564453125 494.831054688 c 0
 519.735351562 493.66015625 520.905273438 492.197265625 522.368164062 491.02734375 c 0
 570.057617188 524.965820312 560.110351562 590.793945312 523.24609375 630.583984375 c 0
 491.063476562 665.107421875 443.374023438 683.5390625 398.025390625 692.901367188 c 0
 312.301757812 710.749023438 215.75390625 692.024414062 144.658203125 639.653320312 c 0
 119.790039062 621.221679688 93.7509765625 590.501953125 121.837890625 561.244140625 c 0
 137.9296875 544.275390625 163.3828125 539.88671875 185.326171875 538.131835938 c 0
 228.333984375 534.620117188 271.634765625 540.764648438 314.642578125 543.690429688 c 2
221.897460938 390.08984375 m 2
 221.604492188 390.08984375 l 2
 210.779296875 390.3828125 199.662109375 388.334960938 189.129882812 384.53125 c 1
 197.029296875 382.190429688 204.928710938 377.802734375 211.365234375 371.073242188 c 0
 229.50390625 352.641601562 230.966796875 324.26171875 217.801757812 304.3671875 c 1
 232.137695312 304.3671875 246.765625 304.3671875 261.102539062 303.78125 c 0
 270.463867188 303.196289062 285.385742188 299.685546875 294.163085938 303.78125 c 0
 301.184570312 307 302.647460938 315.77734375 302.647460938 322.798828125 c 0
 302.647460938 364.34375 258.46875 390.08984375 221.897460938 390.08984375 c 2
154.313476562 340.645507812 m 2
 154.020507812 340.353515625 l 2
 154.020507812 340.060546875 153.435546875 339.767578125 153.435546875 339.767578125 c 2
 153.728515625 333.624023438 155.483398438 327.772460938 160.165039062 323.091796875 c 0
 172.16015625 310.510742188 196.443359375 315.484375 193.225585938 335.96484375 c 0
 190.006835938 357.322265625 163.3828125 356.737304688 154.313476562 340.645507812 c 2
EndSplineSet
EndChar

StartChar: Ograve
Encoding: 210 210 66
Width: 570
Flags: HW
LayerCount: 2
Fore
SplineSet
470.563476562 725 m 2
 553.563476562 705 624.563476562 630 612.563476562 540 c 0
 607.563476562 502 584.563476562 461 545.563476562 449 c 0
 539.563476562 447 533.563476562 446 527.563476562 446 c 1
 549.563476562 407 560.563476562 362 564.563476562 318 c 0
 570.563476562 249 561.563476562 173 518.563476562 116 c 0
 478.563476562 62 414.563476562 27 350.563476562 11 c 0
 224.563476562 -21 71.5634765625 26 28.5634765625 159 c 0
 -14.4365234375 292 93.5634765625 424 232.563476562 403 c 0
 255.563476562 399 246.563476562 365 223.563476562 369 c 0
 160.563476562 379 97.5634765625 345 69.5634765625 288 c 0
 41.5634765625 232 53.5634765625 163 91.5634765625 115 c 0
 162.563476562 26 292.563476562 19 390.563476562 63 c 0
 433.563476562 83 474.563476562 112 499.563476562 153 c 1
 494.563476562 150 488.563476562 149 482.563476562 152 c 0
 419.563476562 184 367.563476562 235 336.563476562 298 c 0
 311.563476562 349 291.563476562 421 314.563476562 477 c 1
 270.563476562 483 224.563476562 500 193.563476562 531 c 0
 154.563476562 570 169.563476562 621 207.563476562 655 c 0
 276.563476562 717 379.563476562 748 470.563476562 725 c 2
223.563476562 621 m 2
 161.563476562 554 283.563476562 515 335.563476562 511 c 0
 362.563476562 539 397.563476562 541 431.563476562 529 c 1
 420.563476562 591 468.563476562 650 531.563476562 654 c 1
 498.563476562 684 451.563476562 696 405.563476562 696 c 0
 341.563476562 696 267.563476562 669 223.563476562 621 c 2
509.563476562 171 m 1
 532.563476562 221 533.563476562 280 526.563476562 333 c 0
 519.563476562 387 498.563476562 442 454.563476562 477 c 0
 430.563476562 496 393.563476562 514 365.563476562 491 c 0
 343.563476562 473 339.563476562 442 340.563476562 415 c 0
 345.563476562 316 413.563476562 227 500.563476562 183 c 0
 506.563476562 180 508.563476562 176 509.563476562 171 c 1
572.563476562 528 m 1
 572.563476562 527 l 1
 580.563476562 555 576.563476562 586 563.563476562 612 c 0
 562.563476562 615 560.563476562 617 559.563476562 620 c 0
 556.563476562 618 552.563476562 617 548.563476562 618 c 0
 516.563476562 623 480.563476562 605 469.563476562 574 c 0
 458.563476562 544 471.563476562 504 499.563476562 488 c 0
 533.563476562 468 562.563476562 496 572.563476562 528 c 1
EndSplineSet
EndChar

StartChar: Oacute
Encoding: 211 211 67
Width: 520
Flags: HW
LayerCount: 2
Fore
SplineSet
347.55859375 731 m 0
 473.55859375 718 612.55859375 595 575.55859375 460 c 0
 569.55859375 438 536.55859375 448 542.55859375 469 c 0
 562.55859375 542 514.55859375 612 456.55859375 653 c 0
 401.55859375 692 332.55859375 709 267.55859375 689 c 0
 204.55859375 669 156.55859375 612 159.55859375 544 c 0
 161.55859375 483 212.55859375 431 274.55859375 432 c 0
 275.55859375 432 277.55859375 432 278.55859375 432 c 0
 282.55859375 452 288.55859375 471 299.55859375 489 c 0
 313.55859375 513 335.55859375 538 366.55859375 534 c 0
 394.55859375 530 421.55859375 503 439.55859375 483 c 0
 480.55859375 439 507.55859375 383 515.55859375 324 c 0
 532.55859375 203 465.55859375 84 355.55859375 30 c 0
 298.55859375 2 229.55859375 -9 168.55859375 11 c 0
 109.55859375 30 66.55859375 77 41.55859375 132 c 0
 18.55859375 185 5.55859375 254 40.55859375 305 c 0
 80.55859375 364 157.55859375 367 222.55859375 364 c 0
 244.55859375 363 245.55859375 328 222.55859375 329 c 0
 160.55859375 332 76.55859375 331 57.55859375 258 c 0
 43.55859375 205 67.55859375 143 99.55859375 101 c 0
 166.55859375 13 288.55859375 22 372.55859375 79 c 0
 389.55859375 91 404.55859375 106 418.55859375 121 c 1
 351.55859375 141 317.55859375 214 294.55859375 274 c 0
 279.55859375 313 272.55859375 356 274.55859375 398 c 1
 210.55859375 398 150.55859375 442 131.55859375 503 c 0
 112.55859375 561 132.55859375 627 174.55859375 671 c 0
 218.55859375 716 285.55859375 737 347.55859375 731 c 0
312.55859375 425 m 2
 299.55859375 369 315.55859375 310 338.55859375 259 c 0
 358.55859375 216 383.55859375 164 434.55859375 152 c 0
 437.55859375 151 438.55859375 150 440.55859375 149 c 0
 474.55859375 200 491.55859375 262 480.55859375 324 c 0
 472.55859375 371 452.55859375 417 420.55859375 453 c 0
 405.55859375 470 368.55859375 512 345.55859375 492 c 0
 327.55859375 476 317.55859375 448 312.55859375 425 c 2
EndSplineSet
EndChar

StartChar: Ocircumflex
Encoding: 212 212 68
Width: 625
Flags: HW
LayerCount: 2
Fore
SplineSet
553.041015625 347 m 2
 554.041015625 347 l 2
 601.041015625 298 612.041015625 227 590.041015625 164 c 0
 534.041015625 3 339.041015625 -22 194.041015625 16 c 0
 130.041015625 33 54.041015625 59 31.041015625 128 c 0
 9.041015625 194 41.041015625 264 93.041015625 306 c 0
 112.041015625 322 134.041015625 333 157.041015625 343 c 1
 153.041015625 342 149.041015625 342 144.041015625 343 c 0
 108.041015625 347 89.041015625 378 91.041015625 410 c 1
 74.041015625 407 62.041015625 432 80.041015625 441 c 0
 89.041015625 446 99.041015625 450 109.041015625 452 c 0
 130.041015625 478 166.041015625 490 200.041015625 492 c 1
 158.041015625 522 145.041015625 581 174.041015625 635 c 0
 216.041015625 712 325.041015625 757 407.041015625 719 c 0
 441.041015625 703 464.041015625 667 468.041015625 632 c 1
 494.041015625 652 519.041015625 672 546.041015625 691 c 0
 562.041015625 702 582.041015625 677 567.041015625 664 c 0
 512.041015625 618 458.041015625 569 402.041015625 525 c 0
 389.041015625 515 377.041015625 507 363.041015625 499 c 0
 359.041015625 495 356.041015625 492 353.041015625 488 c 1
 394.041015625 501 453.041015625 486 487.041015625 464 c 0
 515.041015625 446 533.041015625 408 511.041015625 379 c 1
 527.041015625 371 541.041015625 360 553.041015625 347 c 2
420.041015625 453 m 0
 400.041015625 458 376.041015625 464 356.041015625 453 c 0
 342.041015625 446 338.041015625 433 342.041015625 421 c 0
 358.041015625 412 386.041015625 408 399.041015625 405 c 0
 405.041015625 404 425.041015625 398 444.041015625 395 c 0
 452.041015625 395 460.041015625 395 467.041015625 394 c 0
 478.041015625 396 486.041015625 401 485.041015625 414 c 0
 483.041015625 439 440.041015625 448 420.041015625 453 c 0
427.041015625 598 m 0
 450.041015625 626 422.041015625 672 391.041015625 688 c 1
 390.041015625 686 389.041015625 684 387.041015625 682 c 0
 371.041015625 666 355.041015625 646 356.041015625 622 c 0
 357.041015625 594 383.041015625 572 411.041015625 586 c 0
 412.041015625 587 414.041015625 587 415.041015625 588 c 0
 419.041015625 592 423.041015625 594 427.041015625 598 c 0
196.041015625 598 m 1
 184.041015625 558 201.041015625 521 242.041015625 509 c 0
 277.041015625 499 311.041015625 508 342.041015625 526 c 0
 351.041015625 534 361.041015625 542 370.041015625 550 c 1
 350.041015625 557 334.041015625 574 326.041015625 595 c 0
 312.041015625 633 329.041015625 669 355.041015625 697 c 1
 289.041015625 703 215.041015625 660 196.041015625 598 c 1
125.041015625 396 m 1
 132.041015625 376 141.041015625 372 153.041015625 384 c 2
 164.041015625 391 l 2
 172.041015625 416 150.041015625 421 128.041015625 419 c 0
 124.041015625 412 123.041015625 404 125.041015625 396 c 1
194.041015625 418 m 2
 205.041015625 393 197.041015625 363 176.041015625 350 c 1
 180.041015625 351 183.041015625 353 187.041015625 354 c 0
 220.041015625 365 305.041015625 374 274.041015625 429 c 0
 254.041015625 465 198.041015625 465 162.041015625 449 c 1
 175.041015625 444 187.041015625 434 194.041015625 418 c 2
483.041015625 79 m 1
 535.041015625 115 571.041015625 176 566.041015625 240 c 0
 562.041015625 293 523.041015625 343 472.041015625 359 c 0
 455.041015625 357 436.041015625 359 418.041015625 363 c 0
 379.041015625 362 339.041015625 359 314.041015625 395 c 0
 313.041015625 396 314.041015625 397 313.041015625 398 c 1
 308.041015625 365 279.041015625 345 246.041015625 335 c 0
 188.041015625 318 129.041015625 303 89.041015625 254 c 0
 47.041015625 203 45.041015625 126 105.041015625 87 c 0
 159.041015625 52 236.041015625 37 299.041015625 33 c 0
 363.041015625 29 429.041015625 42 483.041015625 79 c 1
EndSplineSet
Validated: 33
EndChar

StartChar: Otilde
Encoding: 213 213 69
Width: 831
Flags: HW
LayerCount: 2
Fore
SplineSet
740.4453125 470 m 2
 868.4453125 332 806.4453125 9 593.4453125 5 c 0
 569.4453125 5 570.4453125 42 593.4453125 42 c 0
 776.4453125 45 822.4453125 341 706.4453125 451 c 0
 636.4453125 517 536.4453125 480 484.4453125 411 c 0
 443.4453125 356 427.4453125 289 416.4453125 222 c 1
 439.4453125 234 465.4453125 235 490.4453125 219 c 0
 536.4453125 189 538.4453125 127 510.4453125 84 c 0
 454.4453125 -3 312.4453125 -11 237.4453125 50 c 0
 145.4453125 125 176.4453125 248 240.4453125 330 c 0
 262.4453125 358 297.4453125 385 309.4453125 420 c 0
 323.4453125 460 293.4453125 495 253.4453125 496 c 0
 190.4453125 498 132.4453125 434 102.4453125 384 c 0
 34.4453125 271 52.4453125 128 139.4453125 32 c 0
 155.4453125 14 129.4453125 -12 113.4453125 6 c 0
 38.4453125 89 5.4453125 206 34.4453125 316 c 0
 57.4453125 402 119.4453125 492 204.4453125 524 c 0
 285.4453125 554 381.4453125 490 339.4453125 398 c 0
 316.4453125 348 268.4453125 315 241.4453125 267 c 0
 209.4453125 211 201.4453125 136 251.4453125 87 c 0
 300.4453125 39 378.4453125 38 437.4453125 68 c 0
 471.4453125 85 504.4453125 123 489.4453125 164 c 0
 473.4453125 209 423.4453125 196 406.4453125 159 c 0
 396.4453125 138 371.4453125 154 373.4453125 173 c 0
 388.4453125 281 407.4453125 402 495.4453125 476 c 0
 567.4453125 537 673.4453125 542 740.4453125 470 c 2
EndSplineSet
Validated: 33
EndChar

StartChar: Odieresis
Encoding: 214 214 70
Width: 650
Flags: HW
LayerCount: 2
Fore
SplineSet
540.041015625 483 m 1
 539.041015625 483 l 1
 653.041015625 400 683.041015625 245 600.041015625 128 c 0
 514.041015625 7 349.041015625 -28 214.041015625 23 c 0
 155.041015625 45 117.041015625 93 123.041015625 158 c 0
 126.041015625 191 140.041015625 220 160.041015625 243 c 1
 122.041015625 232 85.041015625 220 47.041015625 209 c 0
 24.041015625 202 14.041015625 237 37.041015625 244 c 0
 88.041015625 259 140.041015625 275 191.041015625 290 c 0
 199.041015625 292 206.041015625 295 214.041015625 297 c 1
 193.041015625 300 175.041015625 315 169.041015625 336 c 0
 163.041015625 356 168.041015625 379 180.041015625 396 c 0
 181.041015625 404 186.041015625 410 194.041015625 411 c 0
 237.041015625 446 307.041015625 430 330.041015625 379 c 0
 341.041015625 355 340.041015625 327 322.041015625 306 c 0
 306.041015625 287 281.041015625 278 257.041015625 271 c 0
 256.041015625 269 254.041015625 267 251.041015625 266 c 0
 207.041015625 243 166.041015625 208 160.041015625 156 c 0
 154.041015625 95 199.041015625 65 251.041015625 50 c 0
 354.041015625 21 470.041015625 41 546.041015625 119 c 0
 612.041015625 187 634.041015625 294 586.041015625 379 c 0
 539.041015625 463 443.041015625 503 351.041015625 509 c 0
 305.041015625 512 260.041015625 503 215.041015625 506 c 0
 186.041015625 507 156.041015625 517 138.041015625 541 c 0
 94.041015625 598 134.041015625 673 190.041015625 702 c 0
 227.041015625 721 270.041015625 726 311.041015625 730 c 0
 354.041015625 734 398.041015625 735 440.041015625 726 c 0
 503.041015625 712 581.041015625 665 581.041015625 591 c 0
 581.041015625 540 532.041015625 504 486.041015625 514 c 1
 505.041015625 506 523.041015625 495 540.041015625 483 c 1
327.041015625 547 m 1
 373.041015625 546 419.041015625 539 463.041015625 523 c 1
 462.041015625 524 460.041015625 525 458.041015625 526 c 0
 401.041015625 567 426.041015625 652 491.041015625 666 c 1
 477.041015625 674 462.041015625 681 450.041015625 685 c 0
 405.041015625 699 358.041015625 697 311.041015625 693 c 0
 262.041015625 688 200.041015625 681 169.041015625 637 c 0
 137.041015625 590 168.041015625 545 220.041015625 543 c 0
 255.041015625 542 291.041015625 548 327.041015625 547 c 1
502.041015625 631 m 2
 469.041015625 625 449.041015625 589 474.041015625 561 c 0
 494.041015625 538 533.041015625 547 543.041015625 576 c 0
 550.041015625 598 543.041015625 617 529.041015625 634 c 0
 528.041015625 634 526.041015625 633 524.041015625 633 c 0
 519.041015625 633 516.041015625 635 513.041015625 638 c 1
 511.041015625 635 507.041015625 632 502.041015625 631 c 2
246.041015625 394 m 1
 245.041015625 394 244.041015625 394 243.041015625 394 c 1
 256.041015625 385 266.041015625 373 270.041015625 355 c 0
 274.041015625 337 267.041015625 320 255.041015625 309 c 1
 269.041015625 313 287.041015625 318 296.041015625 331 c 0
 319.041015625 362 274.041015625 395 246.041015625 394 c 1
207.041015625 370 m 2
 202.041015625 359 202.041015625 339 216.041015625 334 c 0
 227.041015625 330 237.041015625 337 234.041015625 349 c 0
 230.041015625 361 220.041015625 367 208.041015625 371 c 0
 208.041015625 370 207.041015625 370 207.041015625 370 c 2
EndSplineSet
EndChar

StartChar: multiply
Encoding: 215 215 71
Width: 1056
Flags: HW
LayerCount: 2
Fore
SplineSet
897.895507812 4 m 1
 896.895507812 3 l 1
 899.895507812 26 934.895507812 16 931.895507812 -7 c 0
 922.895507812 -72 892.895507812 -136 836.895507812 -174 c 0
 786.895507812 -208 718.895507812 -218 663.895507812 -190 c 0
 612.895507812 -164 579.895507812 -105 595.895507812 -49 c 0
 600.895507812 -33 606.895507812 -20 616.895507812 -9 c 1
 563.895507812 6 518.895507812 43 495.895507812 97 c 0
 458.895507812 185 496.895507812 290 583.895507812 333 c 0
 609.895507812 346 643.895507812 352 659.895507812 378 c 0
 679.895507812 410 663.895507812 452 631.895507812 468 c 0
 624.895507812 472 615.895507812 474 605.895507812 475 c 1
 608.895507812 470 611.895507812 464 612.895507812 458 c 0
 623.895507812 415 586.895507812 367 539.895507812 379 c 0
 496.895507812 390 488.895507812 445 513.895507812 477 c 0
 516.895507812 480 518.895507812 483 521.895507812 486 c 1
 465.895507812 488 409.895507812 428 382.895507812 386 c 0
 359.895507812 351 346.895507812 311 341.895507812 270 c 1
 363.895507812 281 391.895507812 282 415.895507812 268 c 0
 464.895507812 240 472.895507812 178 458.895507812 128 c 0
 428.895507812 26 312.895507812 -24 222.895507812 39 c 0
 131.895507812 102 133.895507812 230 183.895507812 318 c 0
 206.895507812 359 298.895507812 432 247.895507812 478 c 0
 188.895507812 531 119.895507812 454 93.8955078125 406 c 0
 34.8955078125 296 50.8955078125 158 124.895507812 59 c 0
 138.895507812 41 107.895507812 23 93.8955078125 41 c 0
 27.8955078125 129 5.8955078125 244 33.8955078125 350 c 0
 53.8955078125 427 112.895507812 534 206.895507812 530 c 0
 241.895507812 529 277.895507812 509 292.895507812 477 c 0
 310.895507812 437 288.895507812 398 263.895507812 367 c 0
 226.895507812 320 192.895507812 276 185.895507812 215 c 0
 178.895507812 154 202.895507812 88 259.895507812 59 c 0
 318.895507812 29 383.895507812 56 413.895507812 113 c 0
 427.895507812 140 434.895507812 174 424.895507812 203 c 0
 412.895507812 238 354.895507812 268 339.895507812 217 c 0
 333.895507812 197 304.895507812 201 303.895507812 221 c 0
 297.895507812 339 372.895507812 498 502.895507812 520 c 0
 525.895507812 524 549.895507812 520 569.895507812 510 c 0
 596.895507812 516 626.895507812 512 650.895507812 499 c 0
 692.895507812 476 714.895507812 428 700.895507812 382 c 0
 682.895507812 320 613.895507812 319 570.895507812 282 c 0
 514.895507812 235 501.895507812 155 538.895507812 92 c 0
 564.895507812 48 609.895507812 24 657.895507812 21 c 0
 680.895507812 30 705.895507812 34 731.895507812 29 c 0
 750.895507812 25 747.895507812 -1 731.895507812 -6 c 0
 709.895507812 -13 687.895507812 -17 665.895507812 -16 c 0
 636.895507812 -33 618.895507812 -67 631.895507812 -104 c 0
 646.895507812 -146 692.895507812 -170 735.895507812 -169 c 0
 830.895507812 -167 885.895507812 -81 897.895507812 4 c 1
535.895507812 444 m 0
 525.895507812 397 589.895507812 416 577.895507812 453 c 0
 575.895507812 461 568.895507812 468 562.895507812 473 c 0
 549.895507812 468 538.895507812 459 535.895507812 444 c 0
1028.89550781 356 m 0
 1055.89550781 189 949.895507812 28 804.895507812 1 c 0
 781.895507812 -3 771.895507812 37 794.895507812 41 c 0
 911.895507812 63 1001.89550781 180 995.895507812 318 c 0
 992.895507812 384 963.895507812 450 908.895507812 478 c 0
 857.895507812 504 796.895507812 483 771.895507812 425 c 0
 760.895507812 401 730.895507812 422 740.895507812 446 c 0
 770.895507812 514 841.895507812 546 904.895507812 524 c 0
 970.895507812 501 1016.89550781 432 1028.89550781 356 c 0
EndSplineSet
Validated: 33
EndChar

StartChar: Oslash
Encoding: 216 216 72
Width: 1053
Flags: HW
LayerCount: 2
Fore
SplineSet
918.032226562 -8 m 2
 918.032226562 15 954.032226562 15 954.032226562 -8 c 0
 957.032226562 -156 787.032226562 -245 658.032226562 -186 c 0
 604.032226562 -161 561.032226562 -101 577.032226562 -39 c 0
 581.032226562 -25 588.032226562 -13 596.032226562 -2 c 1
 544.032226562 15 501.032226562 56 482.032226562 110 c 1
 483.032226562 60 464.032226562 -1 404.032226562 -2 c 0
 363.032226562 -2 338.032226562 25 322.032226562 58 c 1
 307.032226562 23 282.032226562 -2 237.032226562 4 c 0
 177.032226562 12 153.032226562 65 142.032226562 118 c 1
 138.032226562 113 134.032226562 107 130.032226562 102 c 0
 116.032226562 84 88.0322265625 99 98.0322265625 120 c 0
 149.032226562 228 207.032226562 343 297.032226562 422 c 1
 282.032226562 437 266.032226562 451 250.032226562 463 c 0
 244.032226562 467 236.032226562 472 227.032226562 477 c 1
 234.032226562 444 213.032226562 407 174.032226562 408 c 0
 132.032226562 409 118.032226562 454 133.032226562 486 c 1
 93.0322265625 465 77.0322265625 394 69.0322265625 357 c 0
 46.0322265625 249 64.0322265625 135 115.032226562 38 c 0
 126.032226562 18 95.0322265625 -1 84.0322265625 20 c 0
 45.0322265625 95 23.0322265625 179 24.0322265625 264 c 0
 24.0322265625 336 36.0322265625 429 82.0322265625 487 c 0
 107.032226562 518 152.032226562 537 188.032226562 522 c 0
 223.032226562 524 261.032226562 501 287.032226562 479 c 0
 300.032226562 468 313.032226562 456 325.032226562 444 c 0
 350.032226562 462 377.032226562 478 407.032226562 490 c 0
 438.032226562 503 480.032226562 515 519.032226562 513 c 0
 545.032226562 531 580.032226562 536 611.032226562 527 c 0
 658.032226562 514 722.032226562 466 726.032226562 414 c 0
 731.032226562 349 641.032226562 350 601.032226562 327 c 0
 532.032226562 288 491.032226562 208 513.032226562 130 c 0
 529.032226562 73 578.032226562 33 633.032226562 26 c 0
 654.032226562 35 677.032226562 38 700.032226562 30 c 0
 717.032226562 24 718.032226562 0 700.032226562 -5 c 0
 680.032226562 -11 659.032226562 -12 639.032226562 -11 c 0
 616.032226562 -27 605.032226562 -59 614.032226562 -89 c 0
 628.032226562 -136 674.032226562 -160 720.032226562 -166 c 0
 818.032226562 -178 920.032226562 -113 918.032226562 -8 c 2
191.032226562 455 m 0
 198.032226562 467 191.032226562 478 180.032226562 485 c 0
 174.032226562 483 169.032226562 478 165.032226562 471 c 0
 157.032226562 455 176.032226562 428 191.032226562 455 c 0
524.032226562 464 m 0
 517.032226562 446 524.032226562 411 551.032226562 418 c 0
 573.032226562 423 573.032226562 444 560.032226562 459 c 0
 552.032226562 468 541.032226562 473 529.032226562 475 c 0
 527.032226562 472 526.032226562 468 524.032226562 464 c 0
446.032226562 88 m 1
 446.032226562 87 l 1
 450.032226562 133 434.032226562 186 419.032226562 228 c 0
 397.032226562 288 363.032226562 346 321.032226562 395 c 1
 321.032226562 395 321.032226562 394 320.032226562 394 c 0
 251.032226562 334 204.032226562 255 164.032226562 174 c 0
 167.032226562 171 170.032226562 167 171.032226562 161 c 0
 176.032226562 118 183.032226562 57 232.032226562 42 c 0
 284.032226562 26 297.032226562 86 301.032226562 123 c 0
 303.032226562 142 332.032226562 150 337.032226562 128 c 0
 343.032226562 100 349.032226562 67 372.032226562 47 c 0
 408.032226562 16 442.032226562 50 446.032226562 88 c 1
349.032226562 417 m 1
 408.032226562 349 452.032226562 265 472.032226562 178 c 1
 474.032226562 245 509.032226562 308 565.032226562 347 c 0
 585.032226562 361 607.032226562 373 631.032226562 380 c 0
 656.032226562 388 705.032226562 390 684.032226562 429 c 0
 668.032226562 459 614.032226562 496 572.032226562 496 c 1
 576.032226562 494 580.032226562 492 583.032226562 489 c 0
 616.032226562 458 615.032226562 398 566.032226562 384 c 0
 519.032226562 371 478.032226562 411 484.032226562 458 c 0
 485.032226562 464 487.032226562 469 489.032226562 475 c 1
 480.032226562 474 471.032226562 472 464.032226562 470 c 0
 422.032226562 461 384.032226562 442 349.032226562 417 c 1
1025.03222656 296 m 1
 1025.03222656 297 l 1
 1028.03222656 262 1031.03222656 226 1026.03222656 191 c 0
 1011.03222656 86 894.032226562 -43 783.032226562 15 c 0
 762.032226562 26 781.032226562 58 802.032226562 47 c 0
 858.032226562 18 924.032226562 67 956.032226562 112 c 0
 994.032226562 165 994.032226562 225 989.032226562 288 c 0
 984.032226562 349 979.032226562 420 933.032226562 465 c 0
 886.032226562 511 807.032226562 499 781.032226562 435 c 0
 772.032226562 413 737.032226562 423 746.032226562 445 c 0
 772.032226562 509 839.032226562 548 906.032226562 525 c 0
 959.032226562 507 992.032226562 456 1008.03222656 404 c 0
 1019.03222656 369 1022.03222656 332 1025.03222656 296 c 1
EndSplineSet
Validated: 33
EndChar

StartChar: Ugrave
Encoding: 217 217 73
Width: 668
Flags: HW
LayerCount: 2
Fore
SplineSet
627.340820312 439 m 2
 664.340820312 310 644.340820312 130 538.340820312 36 c 0
 460.340820312 -32 353.340820312 3 316.340820312 80 c 1
 287.340820312 34 238.340820312 2 178.340820312 1 c 0
 105.340820312 0 35.3408203125 55 25.3408203125 129 c 0
 14.3408203125 209 72.3408203125 276 150.340820312 288 c 0
 198.340820312 295 246.340820312 286 293.340820312 293 c 0
 325.340820312 298 363.340820312 315 351.340820312 354 c 0
 343.340820312 381 315.340820312 398 291.340820312 409 c 0
 279.340820312 414 266.340820312 418 253.340820312 420 c 1
 261.340820312 412 268.340820312 402 272.340820312 390 c 0
 287.340820312 344 256.340820312 294 207.340820312 291 c 0
 160.340820312 288 126.340820312 327 129.340820312 372 c 0
 130.340820312 387 136.340820312 401 144.340820312 413 c 0
 142.340820312 420 144.340820312 428 152.340820312 432 c 0
 158.340820312 435 164.340820312 437 170.340820312 439 c 0
 183.340820312 448 199.340820312 453 215.340820312 456 c 0
 266.340820312 464 327.340820312 442 362.340820312 405 c 0
 394.340820312 372 403.340820312 317 366.340820312 284 c 0
 283.340820312 210 68.3408203125 317 60.3408203125 152 c 0
 56.3408203125 86 119.340820312 34 183.340820312 38 c 0
 245.340820312 42 289.340820312 86 304.340820312 142 c 0
 304.340820312 155 306.340820312 168 310.340820312 181 c 0
 316.340820312 200 347.340820312 197 346.340820312 176 c 0
 345.340820312 163 344.340820312 150 341.340820312 138 c 0
 342.340820312 75 398.340820312 20 467.340820312 38 c 0
 532.340820312 55 569.340820312 132 588.340820312 190 c 0
 624.340820312 300 615.340820312 439 542.340820312 534 c 0
 501.340820312 587 434.340820312 605 371.340820312 618 c 0
 339.340820312 624 305.340820312 629 272.340820312 628 c 0
 255.340820312 612 240.340820312 594 227.340820312 574 c 0
 209.340820312 545 192.340820312 512 157.340820312 502 c 0
 97.3408203125 484 63.3408203125 548 95.3408203125 595 c 0
 128.340820312 643 199.340820312 661 258.340820312 664 c 0
 275.340820312 678 293.340820312 690 313.340820312 700 c 0
 409.340820312 749 523.340820312 741 613.340820312 685 c 0
 633.340820312 673 614.340820312 641 594.340820312 654 c 0
 511.340820312 705 408.340820312 712 322.340820312 664 c 0
 321.340820312 663 320.340820312 664 319.340820312 663 c 1
 382.340820312 658 450.340820312 642 504.340820312 612 c 0
 570.340820312 576 607.340820312 509 627.340820312 439 c 2
206.340820312 610 m 2
 209.340820312 614 213.340820312 618 216.340820312 622 c 1
 205.340820312 620 195.340820312 618 185.340820312 614 c 0
 168.340820312 608 147.340820312 599 134.340820312 586 c 0
 129.340820312 581 126.340820312 578 123.340820312 571 c 0
 115.340820312 554 130.340820312 531 149.340820312 538 c 0
 177.340820312 547 190.340820312 587 206.340820312 610 c 2
170.340820312 345 m 0
 190.340820312 310 241.340820312 331 239.340820312 368 c 0
 237.340820312 397 211.340820312 410 186.340820312 406 c 0
 168.340820312 391 158.340820312 367 170.340820312 345 c 0
EndSplineSet
Validated: 33
EndChar

